track,time,event,note,velocity
1,0.039,Note_off,55,63
1,0.618,Note_on,55,112
1,1.092,Note_on,64,112
1,1.262,Note_off,64,63
1,1.395,Note_off,55,63
1,1.732,Note_on,55,112
1,2.309,Note_off,55,63
1,2.925,Note_on,53,112
1,3.825,Note_on,67,112
1,3.877,Note_off,67,63
1,4.079,Note_on,64,112
1,4.205,Note_off,64,63
1,4.497,Note_on,65,112
1,4.598,Note_off,65,63
1,4.736,Note_off,53,63
1,4.949,Note_on,64,112
1,5.007,Note_off,64,63
1,5.165,Note_on,53,112
1,5.55,Note_on,69,112
1,5.689,Note_off,69,63
1,6.172,Note_on,71,112
1,6.18,Note_off,71,63
1,6.2,Note_on,71,112
1,6.334,Note_off,71,63
1,6.746,Note_on,72,112
1,7.013,Note_off,72,63
1,7.627,Note_on,69,112
1,7.707,Note_off,69,63
1,8.163,Note_on,72,112
1,8.286,Note_off,72,63
1,9.376,Note_on,74,112
1,9.517,Note_off,74,63
1,10.982,Note_on,70,112
1,11.006,Note_off,70,63
1,11.5,Note_on,59,112
1,11.745,Note_off,59,63
1,12.211,Note_on,53,112
1,12.39,Note_off,53,63
1,12.39,Note_on,52,112
1,12.485,Note_off,53,63
1,12.645,Note_off,52,63
1,13.101,Note_on,50,112
1,13.522,Note_off,50,63
1,13.814,Note_on,48,112
1,14.181,Note_off,48,63
1,14.328,Note_on,53,112
1,14.543,Note_off,53,63
1,14.849,Note_on,48,112
1,15.076,Note_off,48,63
1,15.195,Note_on,53,112
1,15.662,Note_off,53,63
1,16.134,Note_on,57,112
1,16.5,Note_off,57,63
1,17.182,Note_on,59,112
1,17.575,Note_off,59,63
1,18.485,Note_on,55,112
1,18.738,Note_off,55,63
1,18.927,Note_on,57,112
1,19.207,Note_off,57,63
1,19.335,Note_on,55,112
1,19.569,Note_off,55,63
1,19.658,Note_on,53,112
1,20.332,Note_off,53,63
1,20.527,Note_on,53,112
1,21.333,Note_on,65,112
1,21.477,Note_off,65,63
1,21.805,Note_off,53,63
1,22.233,Note_on,53,112
1,22.87,Note_off,53,63
