track,time,event,note,velocity
1,0,Note_on,64,112
1,0,Note_off,64,63
1,4,Note_on,64,112
1,4,Note_off,64,63
1,6,Note_on,64,112
1,6,Note_off,64,63
1,6,Note_on,64,112
1,6,Note_off,64,63
1,6,Note_on,64,112
1,6,Note_off,64,63
1,6,Note_on,64,112
1,7,Note_off,64,63
1,7,Note_on,64,112
1,7,Note_off,64,63
1,7,Note_on,64,112
1,7,Note_off,64,63
1,7,Note_on,64,112
1,7,Note_off,64,63
1,7,Note_on,64,112
1,7,Note_off,64,63
1,7,Note_on,64,112
1,7,Note_off,64,63
1,7,Note_on,64,112
1,7,Note_off,64,63
1,7,Note_on,64,112
1,7,Note_off,64,63
1,7,Note_on,64,112
1,7,Note_off,64,63
1,7,Note_on,64,112
1,7,Note_off,64,63
1,7,Note_on,64,112
1,7,Note_off,64,63
1,7,Note_on,64,112
1,7,Note_off,64,63
1,7,Note_on,64,112
1,7,Note_off,64,63
1,7,Note_on,64,112
1,7,Note_off,64,63
1,7,Note_on,64,112
1,7,Note_off,64,63
1,7,Note_on,64,112
1,8,Note_off,64,63
1,8,Note_on,64,112
1,8,Note_off,64,63
1,8,Note_on,64,112
1,8,Note_off,64,63
1,8,Note_on,64,112
1,8,Note_off,64,63
1,8,Note_on,64,112
1,8,Note_off,64,63
1,8,Note_on,64,112
1,8,Note_off,64,63
1,8,Note_on,64,112
1,8,Note_off,64,63
1,8,Note_on,64,112
1,8,Note_off,64,63
1,8,Note_on,64,112
1,8,Note_off,64,63
1,8,Note_on,64,112
1,8,Note_off,64,63
1,8,Note_on,64,112
1,8,Note_off,64,63
1,8,Note_on,64,112
1,8,Note_off,64,63
1,8,Note_on,64,112
1,8,Note_off,64,63
1,8,Note_on,64,112
1,8,Note_off,64,63
1,8,Note_on,64,112
1,8,Note_off,64,63
1,8,Note_on,64,112
1,8,Note_off,64,63
1,8,Note_on,64,112
1,8,Note_off,64,63
1,8,Note_on,64,112
1,8,Note_off,64,63
1,8,Note_on,64,112
1,8,Note_off,64,63
1,8,Note_on,64,112
1,8,Note_off,64,63
1,8,Note_on,64,112
1,8,Note_off,64,63
1,8,Note_on,45,112
1,9,Note_off,45,63
1,9,Note_on,48,112
1,9,Note_on,52,112
1,10,Note_off,48,63
1,10,Note_off,52,63
1,10,Note_on,40,112
1,10,Note_off,40,63
1,11,Note_on,48,112
1,11,Note_on,52,112
1,11,Note_off,48,63
1,11,Note_off,52,63
1,11,Note_on,40,112
1,11,Note_off,40,63
1,11,Note_on,42,112
1,11,Note_off,42,63
1,11,Note_on,44,112
1,11,Note_off,44,63
1,11,Note_on,33,112
1,11,Note_on,45,112
1,12,Note_off,33,63
1,12,Note_off,45,63
1,12,Note_on,48,112
1,12,Note_on,52,112
1,12,Note_off,48,63
1,12,Note_off,52,63
1,13,Note_on,40,112
1,13,Note_off,40,63
1,13,Note_on,48,112
1,13,Note_on,52,112
1,14,Note_off,48,63
1,14,Note_off,52,63
1,14,Note_on,64,112
1,14,Note_on,45,112
1,14,Note_off,64,63
1,14,Note_on,64,112
1,14,Note_off,45,63
1,14,Note_off,64,63
1,14,Note_on,64,112
1,14,Note_on,48,112
1,14,Note_on,52,112
1,14,Note_off,64,63
1,14,Note_off,48,63
1,14,Note_off,52,63
1,14,Note_on,64,112
1,15,Note_off,64,63
1,15,Note_on,64,112
1,15,Note_on,40,112
1,15,Note_off,64,63
1,15,Note_off,40,63
1,15,Note_on,64,112
1,15,Note_off,64,63
1,15,Note_on,64,112
1,15,Note_on,48,112
1,15,Note_on,52,112
1,16,Note_off,64,63
1,16,Note_off,48,63
1,16,Note_off,52,63
1,16,Note_on,64,112
1,16,Note_off,64,63
1,16,Note_on,64,112
1,16,Note_on,45,112
1,16,Note_off,64,63
1,16,Note_off,45,63
1,16,Note_on,64,112
1,17,Note_off,64,63
1,17,Note_on,64,112
1,17,Note_on,48,112
1,17,Note_on,52,112
1,17,Note_off,64,63
1,17,Note_off,48,63
1,17,Note_off,52,63
1,17,Note_on,64,112
1,17,Note_off,64,63
1,17,Note_on,64,112
1,17,Note_on,40,112
1,17,Note_off,64,63
1,17,Note_off,40,63
1,17,Note_on,64,112
1,18,Note_off,64,63
1,18,Note_on,64,112
1,18,Note_on,48,112
1,18,Note_on,52,112
1,18,Note_off,64,63
1,18,Note_off,48,63
1,18,Note_off,52,63
1,18,Note_on,64,112
1,18,Note_off,64,63
1,18,Note_on,64,112
1,18,Note_on,45,112
1,18,Note_off,64,63
1,18,Note_off,45,63
1,18,Note_on,64,112
1,19,Note_off,64,63
1,19,Note_on,64,112
1,19,Note_on,48,112
1,19,Note_on,52,112
1,19,Note_off,64,63
1,19,Note_off,48,63
1,19,Note_off,52,63
1,19,Note_on,64,112
1,19,Note_off,64,63
1,19,Note_on,64,112
1,19,Note_on,40,112
1,19,Note_off,64,63
1,19,Note_off,40,63
1,19,Note_on,65,112
1,20,Note_off,65,63
1,20,Note_on,64,112
1,20,Note_on,48,112
1,20,Note_on,52,112
1,20,Note_off,64,63
1,20,Note_off,48,63
1,20,Note_off,52,63
1,20,Note_on,63,112
1,20,Note_off,63,63
1,20,Note_on,64,112
1,20,Note_on,45,112
1,20,Note_off,64,63
1,20,Note_off,45,63
1,20,Note_on,69,112
1,20,Note_on,48,112
1,20,Note_on,52,112
1,21,Note_off,69,63
1,21,Note_off,48,63
1,21,Note_off,52,63
1,21,Note_on,72,112
1,21,Note_on,40,112
1,21,Note_off,40,63
1,21,Note_off,72,63
1,21,Note_on,48,112
1,21,Note_on,52,112
1,21,Note_off,48,63
1,21,Note_off,52,63
1,21,Note_on,74,112
1,21,Note_on,44,112
1,22,Note_off,74,63
1,22,Note_off,44,63
1,22,Note_on,74,112
1,22,Note_off,74,63
1,22,Note_on,74,112
1,22,Note_on,50,112
1,22,Note_on,52,112
1,22,Note_off,74,63
1,22,Note_off,50,63
1,22,Note_off,52,63
1,22,Note_on,74,112
1,22,Note_off,74,63
1,22,Note_on,74,112
1,22,Note_on,40,112
1,23,Note_off,74,63
1,23,Note_off,40,63
1,23,Note_on,72,112
1,23,Note_off,72,63
1,23,Note_on,71,112
1,23,Note_on,50,112
1,23,Note_on,52,112
1,23,Note_off,71,63
1,23,Note_off,50,63
1,23,Note_off,52,63
1,23,Note_on,74,112
1,23,Note_off,74,63
1,23,Note_on,72,112
1,23,Note_on,45,112
1,23,Note_off,72,63
1,23,Note_off,45,63
1,23,Note_on,72,112
1,24,Note_off,72,63
1,24,Note_on,72,112
1,24,Note_on,48,112
1,24,Note_on,52,112
1,24,Note_off,72,63
1,24,Note_off,48,63
1,24,Note_off,52,63
1,24,Note_on,72,112
1,24,Note_off,72,63
1,24,Note_on,72,112
1,24,Note_on,40,112
1,24,Note_off,72,63
1,24,Note_off,40,63
1,24,Note_on,71,112
1,25,Note_off,71,63
1,25,Note_on,69,112
1,25,Note_on,48,112
1,25,Note_on,52,112
1,25,Note_off,69,63
1,25,Note_off,48,63
1,25,Note_off,52,63
1,25,Note_on,72,112
1,25,Note_off,72,63
1,25,Note_on,71,112
1,25,Note_on,47,112
1,25,Note_off,71,63
1,25,Note_off,47,63
1,25,Note_on,71,112
1,25,Note_off,71,63
1,25,Note_on,71,112
1,25,Note_on,51,112
1,25,Note_on,57,112
1,26,Note_off,71,63
1,26,Note_off,51,63
1,26,Note_off,57,63
1,26,Note_on,71,112
1,26,Note_off,71,63
1,26,Note_on,66,112
1,26,Note_on,42,112
1,26,Note_off,66,63
1,26,Note_off,42,63
1,26,Note_on,71,112
1,26,Note_on,51,112
1,26,Note_on,57,112
1,26,Note_off,71,63
1,26,Note_off,51,63
1,26,Note_off,57,63
1,26,Note_on,68,112
1,26,Note_on,52,112
1,26,Note_on,56,112
1,27,Note_off,68,63
1,27,Note_off,52,63
1,27,Note_off,56,63
1,27,Note_on,28,112
1,27,Note_on,40,112
1,27,Note_off,28,63
1,27,Note_off,40,63
1,27,Note_on,42,112
1,27,Note_off,42,63
1,27,Note_on,44,112
1,27,Note_off,44,63
1,27,Note_on,64,112
1,27,Note_on,45,112
1,28,Note_off,64,63
1,28,Note_off,45,63
1,28,Note_on,64,112
1,28,Note_off,64,63
1,28,Note_on,64,112
1,28,Note_on,48,112
1,28,Note_on,52,112
1,28,Note_off,64,63
1,28,Note_off,48,63
1,28,Note_off,52,63
1,28,Note_on,64,112
1,28,Note_off,64,63
1,28,Note_on,64,112
1,28,Note_on,40,112
1,28,Note_off,64,63
1,28,Note_off,40,63
1,28,Note_on,64,112
1,28,Note_off,64,63
1,28,Note_on,64,112
1,28,Note_on,48,112
1,28,Note_on,52,112
1,29,Note_off,64,63
1,29,Note_off,48,63
1,29,Note_off,52,63
1,29,Note_on,64,112
1,29,Note_off,64,63
1,29,Note_on,64,112
1,29,Note_on,45,112
1,29,Note_off,64,63
1,29,Note_off,45,63
1,29,Note_on,64,112
1,29,Note_off,64,63
1,29,Note_on,64,112
1,29,Note_on,48,112
1,29,Note_on,52,112
1,29,Note_off,64,63
1,29,Note_off,48,63
1,29,Note_off,52,63
1,29,Note_on,64,112
1,29,Note_off,64,63
1,29,Note_on,64,112
1,29,Note_on,40,112
1,30,Note_off,64,63
1,30,Note_off,40,63
1,30,Note_on,64,112
1,30,Note_off,64,63
1,30,Note_on,64,112
1,30,Note_on,48,112
1,30,Note_on,52,112
1,30,Note_off,64,63
1,30,Note_off,48,63
1,30,Note_off,52,63
1,30,Note_on,64,112
1,30,Note_off,64,63
1,30,Note_on,64,112
1,30,Note_on,45,112
1,30,Note_off,64,63
1,30,Note_off,45,63
1,30,Note_on,65,112
1,30,Note_off,65,63
1,30,Note_on,64,112
1,30,Note_on,48,112
1,30,Note_on,52,112
1,30,Note_off,64,63
1,30,Note_off,48,63
1,30,Note_off,52,63
1,30,Note_on,63,112
1,31,Note_off,63,63
1,31,Note_on,64,112
1,31,Note_on,40,112
1,31,Note_off,64,63
1,31,Note_off,40,63
1,31,Note_on,69,112
1,31,Note_on,48,112
1,31,Note_on,52,112
1,31,Note_off,69,63
1,31,Note_off,48,63
1,31,Note_off,52,63
1,31,Note_on,72,112
1,31,Note_off,72,63
1,31,Note_on,76,112
1,31,Note_on,45,112
1,31,Note_off,76,63
1,31,Note_off,45,63
1,31,Note_on,81,112
1,31,Note_on,48,112
1,31,Note_on,52,112
1,32,Note_off,81,63
1,32,Note_off,48,63
1,32,Note_off,52,63
1,32,Note_on,84,112
1,32,Note_on,40,112
1,32,Note_off,40,63
1,32,Note_off,84,63
1,32,Note_on,48,112
1,32,Note_on,52,112
1,32,Note_off,48,63
1,32,Note_off,52,63
1,32,Note_on,86,112
1,32,Note_on,50,112
1,32,Note_off,86,63
1,32,Note_off,50,63
1,32,Note_on,84,112
1,32,Note_off,84,63
1,32,Note_on,83,112
1,33,Note_on,53,112
1,33,Note_on,57,112
1,33,Note_off,83,63
1,33,Note_off,53,63
1,33,Note_off,57,63
1,33,Note_on,86,112
1,33,Note_off,86,63
1,33,Note_on,84,112
1,33,Note_on,48,112
1,33,Note_off,84,63
1,33,Note_off,48,63
1,33,Note_on,83,112
1,33,Note_off,83,63
1,33,Note_on,81,112
1,33,Note_on,52,112
1,33,Note_on,57,112
1,33,Note_off,81,63
1,33,Note_off,52,63
1,33,Note_off,57,63
1,33,Note_on,84,112
1,33,Note_off,84,63
1,33,Note_on,83,112
1,33,Note_on,47,112
1,33,Note_off,83,63
1,33,Note_off,47,63
1,33,Note_on,81,112
1,34,Note_off,81,63
1,34,Note_on,80,112
1,34,Note_on,50,112
1,34,Note_on,53,112
1,34,Note_off,80,63
1,34,Note_off,50,63
1,34,Note_off,53,63
1,34,Note_on,83,112
1,34,Note_off,83,63
1,34,Note_on,81,112
1,34,Note_on,45,112
1,34,Note_off,81,63
1,34,Note_off,45,63
1,34,Note_on,76,112
1,34,Note_off,76,63
1,34,Note_on,72,112
1,34,Note_on,48,112
1,34,Note_on,52,112
1,34,Note_off,72,63
1,34,Note_off,48,63
1,34,Note_off,52,63
1,34,Note_on,69,112
1,34,Note_off,69,63
1,34,Note_on,77,112
1,34,Note_on,40,112
1,34,Note_on,52,112
1,34,Note_off,77,63
1,34,Note_off,40,63
1,34,Note_off,52,63
1,34,Note_on,76,112
1,35,Note_off,76,63
1,35,Note_on,74,112
1,35,Note_on,42,112
1,35,Note_on,54,112
1,35,Note_off,74,63
1,35,Note_off,42,63
1,35,Note_off,54,63
1,35,Note_on,72,112
1,35,Note_off,72,63
1,35,Note_on,71,112
1,35,Note_on,44,112
1,35,Note_on,56,112
1,35,Note_off,71,63
1,35,Note_off,44,63
1,35,Note_off,56,63
1,35,Note_on,69,112
1,35,Note_off,69,63
1,35,Note_on,68,112
1,35,Note_on,40,112
1,35,Note_on,52,112
1,35,Note_off,68,63
1,35,Note_off,40,63
1,35,Note_off,52,63
1,35,Note_on,71,112
1,35,Note_off,71,63
1,35,Note_on,69,112
1,35,Note_on,45,112
1,35,Note_on,57,112
1,36,Note_off,69,63
1,36,Note_off,45,63
1,36,Note_off,57,63
1,36,Note_on,28,112
1,36,Note_on,40,112
1,36,Note_off,28,63
1,36,Note_off,40,63
1,36,Note_on,42,112
1,36,Note_off,42,63
1,36,Note_on,44,112
1,36,Note_off,44,63
1,36,Note_on,64,112
1,36,Note_on,45,112
1,37,Note_off,64,63
1,37,Note_on,64,112
1,37,Note_off,45,63
1,37,Note_off,64,63
1,37,Note_on,64,112
1,37,Note_on,48,112
1,37,Note_on,52,112
1,37,Note_off,64,63
1,37,Note_off,48,63
1,37,Note_off,52,63
1,37,Note_on,64,112
1,37,Note_off,64,63
1,37,Note_on,64,112
1,37,Note_on,40,112
1,37,Note_off,64,63
1,37,Note_off,40,63
1,37,Note_on,64,112
1,37,Note_off,64,63
1,37,Note_on,64,112
1,37,Note_on,48,112
1,37,Note_on,52,112
1,37,Note_off,64,63
1,37,Note_off,48,63
1,37,Note_off,52,63
1,37,Note_on,64,112
1,37,Note_off,64,63
1,37,Note_on,64,112
1,37,Note_on,45,112
1,37,Note_off,64,63
1,37,Note_off,45,63
1,37,Note_on,64,112
1,37,Note_off,64,63
1,37,Note_on,64,112
1,37,Note_on,48,112
1,37,Note_on,52,112
1,38,Note_off,64,63
1,38,Note_off,48,63
1,38,Note_off,52,63
1,38,Note_on,64,112
1,38,Note_off,64,63
1,38,Note_on,64,112
1,38,Note_on,40,112
1,38,Note_off,64,63
1,38,Note_off,40,63
1,38,Note_on,64,112
1,38,Note_off,64,63
1,38,Note_on,64,112
1,38,Note_on,48,112
1,38,Note_on,52,112
1,38,Note_off,64,63
1,38,Note_off,48,63
1,38,Note_off,52,63
1,38,Note_on,64,112
1,38,Note_off,64,63
1,38,Note_on,64,112
1,38,Note_on,45,112
1,38,Note_off,64,63
1,38,Note_off,45,63
1,38,Note_on,64,112
1,38,Note_off,64,63
1,38,Note_on,64,112
1,38,Note_on,48,112
1,38,Note_on,52,112
1,38,Note_off,64,63
1,38,Note_off,48,63
1,38,Note_off,52,63
1,38,Note_on,64,112
1,39,Note_off,64,63
1,39,Note_on,64,112
1,39,Note_on,40,112
1,39,Note_off,64,63
1,39,Note_off,40,63
1,39,Note_on,65,112
1,39,Note_off,65,63
1,39,Note_on,64,112
1,39,Note_on,48,112
1,39,Note_on,52,112
1,39,Note_off,64,63
1,39,Note_off,48,63
1,39,Note_off,52,63
1,39,Note_on,63,112
1,39,Note_off,63,63
1,39,Note_on,64,112
1,39,Note_on,45,112
1,39,Note_off,64,63
1,39,Note_off,45,63
1,39,Note_on,69,112
1,39,Note_on,48,112
1,39,Note_on,52,112
1,39,Note_off,69,63
1,39,Note_off,48,63
1,39,Note_off,52,63
1,39,Note_on,72,112
1,39,Note_on,40,112
1,39,Note_off,40,63
1,40,Note_off,72,63
1,40,Note_on,48,112
1,40,Note_on,52,112
1,40,Note_off,48,63
1,40,Note_off,52,63
1,40,Note_on,74,112
1,40,Note_on,47,112
1,40,Note_off,74,63
1,40,Note_off,47,63
1,40,Note_on,74,112
1,40,Note_off,74,63
1,40,Note_on,74,112
1,40,Note_on,50,112
1,40,Note_on,52,112
1,40,Note_off,74,63
1,40,Note_off,50,63
1,40,Note_off,52,63
1,40,Note_on,74,112
1,40,Note_off,74,63
1,40,Note_on,74,112
1,40,Note_on,40,112
1,40,Note_off,74,63
1,40,Note_off,40,63
1,40,Note_on,72,112
1,40,Note_off,72,63
1,40,Note_on,71,112
1,40,Note_on,50,112
1,40,Note_on,52,112
1,40,Note_off,71,63
1,40,Note_off,50,63
1,40,Note_off,52,63
1,40,Note_on,74,112
1,41,Note_off,74,63
1,41,Note_on,72,112
1,41,Note_on,45,112
1,41,Note_off,72,63
1,41,Note_off,45,63
1,41,Note_on,72,112
1,41,Note_off,72,63
1,41,Note_on,72,112
1,41,Note_on,48,112
1,41,Note_on,52,112
1,41,Note_off,72,63
1,41,Note_off,48,63
1,41,Note_off,52,63
1,41,Note_on,72,112
1,41,Note_off,72,63
1,41,Note_on,72,112
1,41,Note_on,40,112
1,41,Note_off,72,63
1,41,Note_off,40,63
1,41,Note_on,71,112
1,41,Note_off,71,63
1,41,Note_on,69,112
1,41,Note_on,48,112
1,41,Note_on,52,112
1,41,Note_off,69,63
1,41,Note_off,48,63
1,41,Note_off,52,63
1,41,Note_on,72,112
1,41,Note_off,72,63
1,41,Note_on,71,112
1,41,Note_on,47,112
1,42,Note_off,71,63
1,42,Note_off,47,63
1,42,Note_on,71,112
1,42,Note_off,71,63
1,42,Note_on,71,112
1,42,Note_on,51,112
1,42,Note_on,54,112
1,42,Note_off,71,63
1,42,Note_off,51,63
1,42,Note_off,54,63
1,42,Note_on,71,112
1,42,Note_off,71,63
1,42,Note_on,66,112
1,42,Note_on,42,112
1,42,Note_off,66,63
1,42,Note_off,42,63
1,42,Note_on,71,112
1,42,Note_on,51,112
1,42,Note_on,54,112
1,42,Note_off,71,63
1,42,Note_off,51,63
1,42,Note_off,54,63
1,42,Note_on,68,112
1,42,Note_on,52,112
1,42,Note_on,56,112
1,42,Note_off,68,63
1,42,Note_off,52,63
1,42,Note_off,56,63
1,43,Note_on,28,112
1,43,Note_on,40,112
1,43,Note_off,28,63
1,43,Note_off,40,63
1,43,Note_on,42,112
1,43,Note_off,42,63
1,43,Note_on,44,112
1,43,Note_off,44,63
1,43,Note_on,64,112
1,43,Note_on,45,112
1,43,Note_off,64,63
1,43,Note_off,45,63
1,43,Note_on,64,112
1,43,Note_off,64,63
1,43,Note_on,64,112
1,43,Note_on,48,112
1,43,Note_on,52,112
1,43,Note_off,64,63
1,43,Note_off,48,63
1,43,Note_off,52,63
1,43,Note_on,64,112
1,44,Note_off,64,63
1,44,Note_on,64,112
1,44,Note_on,40,112
1,44,Note_off,64,63
1,44,Note_off,40,63
1,44,Note_on,64,112
1,44,Note_off,64,63
1,44,Note_on,64,112
1,44,Note_on,48,112
1,44,Note_on,52,112
1,44,Note_off,64,63
1,44,Note_off,48,63
1,44,Note_off,52,63
1,44,Note_on,64,112
1,44,Note_off,64,63
1,44,Note_on,64,112
1,44,Note_on,45,112
1,44,Note_off,64,63
1,44,Note_off,45,63
1,44,Note_on,64,112
1,44,Note_off,64,63
1,44,Note_on,64,112
1,44,Note_on,48,112
1,44,Note_on,52,112
1,44,Note_off,64,63
1,44,Note_off,48,63
1,44,Note_off,52,63
1,44,Note_on,64,112
1,44,Note_off,64,63
1,44,Note_on,64,112
1,44,Note_on,40,112
1,44,Note_off,64,63
1,44,Note_off,40,63
1,44,Note_on,64,112
1,45,Note_off,64,63
1,45,Note_on,64,112
1,45,Note_on,48,112
1,45,Note_on,52,112
1,45,Note_off,64,63
1,45,Note_off,48,63
1,45,Note_off,52,63
1,45,Note_on,64,112
1,45,Note_off,64,63
1,45,Note_on,64,112
1,45,Note_on,45,112
1,45,Note_off,64,63
1,45,Note_off,45,63
1,45,Note_on,65,112
1,45,Note_off,65,63
1,45,Note_on,64,112
1,45,Note_on,48,112
1,45,Note_on,52,112
1,45,Note_off,64,63
1,45,Note_off,48,63
1,45,Note_off,52,63
1,45,Note_on,63,112
1,45,Note_off,63,63
1,45,Note_on,64,112
1,45,Note_on,40,112
1,45,Note_off,64,63
1,45,Note_off,40,63
1,45,Note_on,69,112
1,45,Note_on,48,112
1,45,Note_on,52,112
1,46,Note_off,69,63
1,46,Note_off,48,63
1,46,Note_off,52,63
1,46,Note_on,72,112
1,46,Note_off,72,63
1,46,Note_on,76,112
1,46,Note_on,45,112
1,46,Note_off,76,63
1,46,Note_off,45,63
1,46,Note_on,81,112
1,46,Note_on,48,112
1,46,Note_on,52,112
1,46,Note_off,81,63
1,46,Note_off,48,63
1,46,Note_off,52,63
1,46,Note_on,84,112
1,46,Note_on,40,112
1,46,Note_off,40,63
1,46,Note_off,84,63
1,46,Note_on,48,112
1,46,Note_on,52,112
1,46,Note_off,48,63
1,46,Note_off,52,63
1,46,Note_on,86,112
1,46,Note_on,50,112
1,47,Note_off,86,63
1,47,Note_off,50,63
1,47,Note_on,84,112
1,47,Note_off,84,63
1,47,Note_on,83,112
1,47,Note_on,53,112
1,47,Note_on,57,112
1,47,Note_off,83,63
1,47,Note_off,53,63
1,47,Note_off,57,63
1,47,Note_on,86,112
1,47,Note_off,86,63
1,47,Note_on,84,112
1,47,Note_on,48,112
1,47,Note_off,84,63
1,47,Note_off,48,63
1,47,Note_on,83,112
1,47,Note_off,83,63
1,47,Note_on,81,112
1,47,Note_on,52,112
1,47,Note_on,57,112
1,47,Note_off,81,63
1,47,Note_off,52,63
1,47,Note_off,57,63
1,47,Note_on,84,112
1,47,Note_off,84,63
1,47,Note_on,83,112
1,47,Note_on,47,112
1,47,Note_off,83,63
1,47,Note_off,47,63
1,47,Note_on,81,112
1,47,Note_off,81,63
1,47,Note_on,80,112
1,47,Note_on,50,112
1,47,Note_on,53,112
1,48,Note_off,80,63
1,48,Note_off,50,63
1,48,Note_off,53,63
1,48,Note_on,83,112
1,48,Note_off,83,63
1,48,Note_on,81,112
1,48,Note_on,45,112
1,48,Note_off,81,63
1,48,Note_off,45,63
1,48,Note_on,76,112
1,48,Note_off,76,63
1,48,Note_on,72,112
1,48,Note_on,48,112
1,48,Note_on,52,112
1,48,Note_off,72,63
1,48,Note_off,48,63
1,48,Note_off,52,63
1,48,Note_on,69,112
1,48,Note_off,69,63
1,48,Note_on,77,112
1,48,Note_on,40,112
1,48,Note_on,52,112
1,48,Note_off,77,63
1,48,Note_off,40,63
1,48,Note_off,52,63
1,48,Note_on,76,112
1,48,Note_off,76,63
1,48,Note_on,74,112
1,48,Note_on,42,112
1,48,Note_on,54,112
1,48,Note_off,74,63
1,48,Note_off,42,63
1,48,Note_off,54,63
1,48,Note_on,72,112
1,49,Note_off,72,63
1,49,Note_on,71,112
1,49,Note_on,44,112
1,49,Note_on,56,112
1,49,Note_off,71,63
1,49,Note_off,44,63
1,49,Note_off,56,63
1,49,Note_on,69,112
1,49,Note_off,69,63
1,49,Note_on,68,112
1,49,Note_on,40,112
1,49,Note_on,52,112
1,49,Note_off,68,63
1,49,Note_off,40,63
1,49,Note_off,52,63
1,49,Note_on,71,112
1,49,Note_off,71,63
1,49,Note_on,69,112
1,49,Note_on,45,112
1,49,Note_on,57,112
1,49,Note_off,69,63
1,49,Note_off,45,63
1,49,Note_off,57,63
1,49,Note_on,33,112
1,49,Note_on,45,112
1,50,Note_off,33,63
1,50,Note_off,45,63
1,50,Note_on,47,112
1,50,Note_off,47,63
1,50,Note_on,49,112
1,50,Note_off,49,63
1,50,Note_on,74,112
1,50,Note_on,38,112
1,50,Note_on,50,112
1,50,Note_off,38,63
1,50,Note_off,50,63
1,51,Note_on,53,112
1,51,Note_on,57,112
1,51,Note_off,74,63
1,51,Note_off,53,63
1,51,Note_off,57,63
1,51,Note_on,73,112
1,51,Note_off,73,63
1,51,Note_on,74,112
1,51,Note_on,45,112
1,51,Note_off,74,63
1,51,Note_off,45,63
1,51,Note_on,76,112
1,51,Note_on,53,112
1,51,Note_on,57,112
1,51,Note_off,76,63
1,51,Note_off,53,63
1,51,Note_off,57,63
1,51,Note_on,77,112
1,51,Note_on,50,112
1,51,Note_off,77,63
1,51,Note_off,50,63
1,51,Note_on,76,112
1,52,Note_on,53,112
1,52,Note_on,57,112
1,52,Note_off,76,63
1,52,Note_off,53,63
1,52,Note_off,57,63
1,52,Note_on,74,112
1,52,Note_on,45,112
1,52,Note_off,74,63
1,52,Note_off,45,63
1,52,Note_on,77,112
1,52,Note_on,53,112
1,52,Note_on,57,112
1,52,Note_off,77,63
1,52,Note_off,53,63
1,52,Note_off,57,63
1,52,Note_on,76,112
1,52,Note_on,48,112
1,52,Note_off,48,63
1,52,Note_on,52,112
1,52,Note_on,57,112
1,52,Note_off,76,63
1,52,Note_off,52,63
1,52,Note_off,57,63
1,52,Note_on,74,112
1,53,Note_off,74,63
1,53,Note_on,72,112
1,53,Note_on,45,112
1,53,Note_off,72,63
1,53,Note_off,45,63
1,53,Note_on,74,112
1,53,Note_on,52,112
1,53,Note_on,57,112
1,53,Note_off,74,63
1,53,Note_off,52,63
1,53,Note_off,57,63
1,53,Note_on,76,112
1,53,Note_on,48,112
1,53,Note_off,48,63
1,53,Note_on,52,112
1,53,Note_on,57,112
1,53,Note_off,52,63
1,53,Note_off,57,63
1,53,Note_on,45,112
1,54,Note_off,45,63
1,54,Note_off,76,63
1,54,Note_on,72,112
1,54,Note_on,52,112
1,54,Note_on,57,112
1,54,Note_off,52,63
1,54,Note_off,57,63
1,54,Note_off,72,63
1,54,Note_on,71,112
1,54,Note_on,52,112
1,54,Note_off,52,63
1,54,Note_on,56,112
1,54,Note_on,59,112
1,54,Note_off,71,63
1,54,Note_off,56,63
1,54,Note_off,59,63
1,54,Note_on,70,112
1,54,Note_off,70,63
1,54,Note_on,71,112
1,54,Note_on,47,112
1,54,Note_off,71,63
1,54,Note_off,47,63
1,55,Note_on,72,112
1,55,Note_on,56,112
1,55,Note_on,59,112
1,55,Note_off,72,63
1,55,Note_off,56,63
1,55,Note_off,59,63
1,55,Note_on,74,112
1,55,Note_on,52,112
1,55,Note_off,74,63
1,55,Note_off,52,63
1,55,Note_on,72,112
1,55,Note_on,56,112
1,55,Note_on,59,112
1,55,Note_off,72,63
1,55,Note_off,56,63
1,55,Note_off,59,63
1,55,Note_on,71,112
1,55,Note_on,47,112
1,55,Note_off,71,63
1,55,Note_off,47,63
1,55,Note_on,74,112
1,55,Note_on,56,112
1,55,Note_on,59,112
1,55,Note_off,74,63
1,55,Note_off,56,63
1,55,Note_off,59,63
1,56,Note_on,72,112
1,56,Note_on,45,112
1,56,Note_off,72,63
1,56,Note_off,45,63
1,56,Note_on,69,112
1,56,Note_on,45,112
1,56,Note_off,69,63
1,56,Note_off,45,63
1,56,Note_on,72,112
1,56,Note_on,48,112
1,56,Note_off,72,63
1,56,Note_off,48,63
1,56,Note_on,76,112
1,56,Note_on,52,112
1,56,Note_off,76,63
1,56,Note_off,52,63
1,56,Note_on,81,112
1,56,Note_on,57,112
1,57,Note_off,81,63
1,57,Note_off,57,63
1,57,Note_on,76,112
1,57,Note_on,52,112
1,57,Note_off,76,63
1,57,Note_off,52,63
1,57,Note_on,72,112
1,57,Note_on,48,112
1,57,Note_off,72,63
1,57,Note_off,48,63
1,57,Note_on,69,112
1,57,Note_on,45,112
1,57,Note_off,69,63
1,57,Note_off,45,63
1,57,Note_on,74,112
1,57,Note_on,38,112
1,57,Note_on,50,112
1,57,Note_off,38,63
1,57,Note_off,50,63
1,57,Note_on,53,112
1,57,Note_on,57,112
1,58,Note_off,74,63
1,58,Note_off,53,63
1,58,Note_off,57,63
1,58,Note_on,73,112
1,58,Note_off,73,63
1,58,Note_on,74,112
1,58,Note_on,45,112
1,58,Note_off,74,63
1,58,Note_off,45,63
1,58,Note_on,76,112
1,58,Note_on,53,112
1,58,Note_on,57,112
1,58,Note_off,76,63
1,58,Note_off,53,63
1,58,Note_off,57,63
1,58,Note_on,77,112
1,58,Note_on,50,112
1,58,Note_off,77,63
1,58,Note_off,50,63
1,58,Note_on,76,112
1,58,Note_on,53,112
1,58,Note_on,57,112
1,58,Note_off,76,63
1,58,Note_off,53,63
1,58,Note_off,57,63
1,59,Note_on,74,112
1,59,Note_on,45,112
1,59,Note_off,74,63
1,59,Note_off,45,63
1,59,Note_on,77,112
1,59,Note_on,53,112
1,59,Note_on,57,112
1,59,Note_off,77,63
1,59,Note_off,53,63
1,59,Note_off,57,63
1,59,Note_on,76,112
1,59,Note_on,48,112
1,59,Note_off,48,63
1,59,Note_on,52,112
1,59,Note_on,57,112
1,59,Note_off,76,63
1,59,Note_off,52,63
1,59,Note_off,57,63
1,59,Note_on,74,112
1,59,Note_off,74,63
1,59,Note_on,72,112
1,59,Note_on,45,112
1,59,Note_off,72,63
1,59,Note_off,45,63
1,60,Note_on,74,112
1,60,Note_on,52,112
1,60,Note_on,57,112
1,60,Note_off,74,63
1,60,Note_off,52,63
1,60,Note_off,57,63
1,60,Note_on,76,112
1,60,Note_on,48,112
1,60,Note_off,76,63
1,60,Note_off,48,63
1,60,Note_on,52,112
1,60,Note_on,57,112
1,60,Note_off,52,63
1,60,Note_off,57,63
1,60,Note_on,81,112
1,60,Note_on,45,112
1,60,Note_off,45,63
1,60,Note_off,81,63
1,60,Note_on,52,112
1,60,Note_on,57,112
1,60,Note_off,52,63
1,60,Note_off,57,63
1,61,Note_on,50,112
1,61,Note_off,50,63
1,61,Note_on,74,112
1,61,Note_on,53,112
1,61,Note_on,57,112
1,61,Note_off,53,63
1,61,Note_off,57,63
1,61,Note_off,74,63
1,61,Note_on,47,112
1,61,Note_off,47,63
1,61,Note_on,77,112
1,61,Note_on,53,112
1,61,Note_on,57,112
1,61,Note_off,77,63
1,61,Note_off,53,63
1,61,Note_off,57,63
1,61,Note_on,76,112
1,61,Note_on,40,112
1,61,Note_on,52,112
1,62,Note_off,76,63
1,62,Note_off,40,63
1,62,Note_off,52,63
1,62,Note_on,72,112
1,62,Note_on,36,112
1,62,Note_on,48,112
1,62,Note_off,72,63
1,62,Note_off,36,63
1,62,Note_off,48,63
1,62,Note_on,74,112
1,62,Note_on,38,112
1,62,Note_on,50,112
1,62,Note_off,74,63
1,62,Note_off,38,63
1,62,Note_off,50,63
1,62,Note_on,71,112
1,62,Note_on,35,112
1,62,Note_on,47,112
1,62,Note_off,71,63
1,62,Note_off,35,63
1,62,Note_off,47,63
1,62,Note_on,69,112
1,62,Note_on,33,112
1,62,Note_on,45,112
1,63,Note_off,69,63
1,63,Note_off,33,63
1,63,Note_off,45,63
1,63,Note_on,64,112
1,63,Note_on,68,112
1,63,Note_on,76,112
1,63,Note_on,28,112
1,63,Note_on,40,112
1,63,Note_off,64,63
1,63,Note_off,68,63
1,63,Note_off,76,63
1,63,Note_off,28,63
1,63,Note_off,40,63
1,63,Note_on,69,112
1,63,Note_on,72,112
1,63,Note_on,81,112
1,63,Note_on,33,112
1,63,Note_on,45,112
1,64,Note_off,69,63
1,64,Note_off,72,63
1,64,Note_off,81,63
1,64,Note_off,33,63
1,64,Note_off,45,63
1,64,Note_on,28,112
1,64,Note_on,40,112
1,64,Note_off,28,63
1,64,Note_off,40,63
1,64,Note_on,42,112
1,64,Note_off,42,63
1,64,Note_on,44,112
1,64,Note_off,44,63
1,64,Note_on,64,112
1,64,Note_on,45,112
1,64,Note_off,64,63
1,64,Note_on,64,112
1,65,Note_off,45,63
1,65,Note_off,64,63
1,65,Note_on,64,112
1,65,Note_on,48,112
1,65,Note_on,52,112
1,65,Note_off,64,63
1,65,Note_off,48,63
1,65,Note_off,52,63
1,65,Note_on,64,112
1,65,Note_off,64,63
1,65,Note_on,64,112
1,65,Note_on,40,112
1,65,Note_off,64,63
1,65,Note_off,40,63
1,65,Note_on,64,112
1,65,Note_off,64,63
1,65,Note_on,64,112
1,65,Note_on,48,112
1,65,Note_on,52,112
1,65,Note_off,64,63
1,65,Note_off,48,63
1,65,Note_off,52,63
1,65,Note_on,64,112
1,65,Note_off,64,63
1,65,Note_on,64,112
1,65,Note_on,45,112
1,65,Note_off,64,63
1,65,Note_off,45,63
1,65,Note_on,64,112
1,66,Note_off,64,63
1,66,Note_on,64,112
1,66,Note_on,48,112
1,66,Note_on,52,112
1,66,Note_off,64,63
1,66,Note_off,48,63
1,66,Note_off,52,63
1,66,Note_on,64,112
1,66,Note_off,64,63
1,66,Note_on,64,112
1,66,Note_on,40,112
1,66,Note_off,64,63
1,66,Note_off,40,63
1,66,Note_on,64,112
1,66,Note_off,64,63
1,66,Note_on,64,112
1,66,Note_on,48,112
1,66,Note_on,52,112
1,66,Note_off,64,63
1,66,Note_off,48,63
1,66,Note_off,52,63
1,66,Note_on,64,112
1,67,Note_off,64,63
1,67,Note_on,64,112
1,67,Note_on,45,112
1,67,Note_off,64,63
1,67,Note_off,45,63
1,67,Note_on,64,112
1,67,Note_off,64,63
1,67,Note_on,64,112
1,67,Note_on,48,112
1,67,Note_on,52,112
1,67,Note_off,64,63
1,67,Note_off,48,63
1,67,Note_off,52,63
1,67,Note_on,64,112
1,67,Note_off,64,63
1,67,Note_on,64,112
1,67,Note_on,40,112
1,67,Note_off,64,63
1,67,Note_off,40,63
1,67,Note_on,65,112
1,67,Note_off,65,63
1,67,Note_on,64,112
1,67,Note_on,48,112
1,67,Note_on,52,112
1,67,Note_off,64,63
1,67,Note_off,48,63
1,67,Note_off,52,63
1,67,Note_on,63,112
1,67,Note_off,63,63
1,67,Note_on,64,112
1,67,Note_on,45,112
1,67,Note_off,64,63
1,67,Note_off,45,63
1,68,Note_on,69,112
1,68,Note_on,48,112
1,68,Note_on,52,112
1,68,Note_off,69,63
1,68,Note_off,48,63
1,68,Note_off,52,63
1,68,Note_on,72,112
1,68,Note_on,40,112
1,68,Note_off,40,63
1,68,Note_off,72,63
1,68,Note_on,48,112
1,68,Note_on,52,112
1,68,Note_off,48,63
1,68,Note_off,52,63
1,68,Note_on,74,112
1,68,Note_on,47,112
1,68,Note_off,74,63
1,68,Note_off,47,63
1,68,Note_on,74,112
1,68,Note_off,74,63
1,68,Note_on,74,112
1,68,Note_on,50,112
1,68,Note_on,52,112
1,69,Note_off,74,63
1,69,Note_off,50,63
1,69,Note_off,52,63
1,69,Note_on,74,112
1,69,Note_off,74,63
1,69,Note_on,74,112
1,69,Note_on,40,112
1,69,Note_off,74,63
1,69,Note_off,40,63
1,69,Note_on,72,112
1,69,Note_off,72,63
1,69,Note_on,71,112
1,69,Note_on,50,112
1,69,Note_on,52,112
1,69,Note_off,71,63
1,69,Note_off,50,63
1,69,Note_off,52,63
1,69,Note_on,74,112
1,69,Note_off,74,63
1,69,Note_on,72,112
1,69,Note_on,45,112
1,69,Note_off,72,63
1,69,Note_off,45,63
1,69,Note_on,72,112
1,69,Note_off,72,63
1,69,Note_on,72,112
1,69,Note_on,48,112
1,69,Note_on,52,112
1,69,Note_off,72,63
1,69,Note_off,48,63
1,69,Note_off,52,63
1,69,Note_on,72,112
1,69,Note_off,72,63
1,69,Note_on,72,112
1,69,Note_on,40,112
1,70,Note_off,72,63
1,70,Note_off,40,63
1,70,Note_on,71,112
1,70,Note_off,71,63
1,70,Note_on,69,112
1,70,Note_on,48,112
1,70,Note_on,52,112
1,70,Note_off,69,63
1,70,Note_off,48,63
1,70,Note_off,52,63
1,70,Note_on,72,112
1,70,Note_off,72,63
1,70,Note_on,71,112
1,70,Note_on,47,112
1,70,Note_off,71,63
1,70,Note_off,47,63
1,70,Note_on,71,112
1,70,Note_off,71,63
1,70,Note_on,71,112
1,70,Note_on,51,112
1,70,Note_on,54,112
1,70,Note_off,71,63
1,70,Note_off,51,63
1,70,Note_off,54,63
1,70,Note_on,71,112
1,70,Note_off,71,63
1,70,Note_on,66,112
1,70,Note_on,42,112
1,70,Note_off,66,63
1,70,Note_off,42,63
1,71,Note_on,71,112
1,71,Note_on,51,112
1,71,Note_on,54,112
1,71,Note_off,71,63
1,71,Note_off,51,63
1,71,Note_off,54,63
1,71,Note_on,68,112
1,71,Note_on,52,112
1,71,Note_on,56,112
1,71,Note_off,68,63
1,71,Note_off,52,63
1,71,Note_off,56,63
1,71,Note_on,28,112
1,71,Note_on,40,112
1,71,Note_off,28,63
1,71,Note_off,40,63
1,72,Note_on,42,112
1,72,Note_off,42,63
1,72,Note_on,44,112
1,72,Note_off,44,63
1,72,Note_on,64,112
1,72,Note_on,45,112
1,72,Note_off,64,63
1,72,Note_off,45,63
1,72,Note_on,64,112
1,72,Note_off,64,63
1,72,Note_on,64,112
1,72,Note_on,48,112
1,72,Note_on,52,112
1,72,Note_off,64,63
1,72,Note_off,48,63
1,72,Note_off,52,63
1,72,Note_on,64,112
1,72,Note_off,64,63
1,72,Note_on,64,112
1,72,Note_on,40,112
1,72,Note_off,64,63
1,72,Note_off,40,63
1,72,Note_on,64,112
1,72,Note_off,64,63
1,72,Note_on,64,112
1,72,Note_on,48,112
1,72,Note_on,52,112
1,72,Note_off,64,63
1,72,Note_off,48,63
1,72,Note_off,52,63
1,72,Note_on,64,112
1,73,Note_off,64,63
1,73,Note_on,64,112
1,73,Note_on,45,112
1,73,Note_off,64,63
1,73,Note_off,45,63
1,73,Note_on,64,112
1,73,Note_off,64,63
1,73,Note_on,64,112
1,73,Note_on,48,112
1,73,Note_on,52,112
1,73,Note_off,64,63
1,73,Note_off,48,63
1,73,Note_off,52,63
1,73,Note_on,64,112
1,73,Note_off,64,63
1,73,Note_on,64,112
1,73,Note_on,40,112
1,73,Note_off,64,63
1,73,Note_off,40,63
1,73,Note_on,64,112
1,73,Note_off,64,63
1,73,Note_on,64,112
1,73,Note_on,48,112
1,73,Note_on,52,112
1,73,Note_off,64,63
1,73,Note_off,48,63
1,73,Note_off,52,63
1,73,Note_on,64,112
1,73,Note_off,64,63
1,73,Note_on,64,112
1,74,Note_on,45,112
1,74,Note_off,64,63
1,74,Note_off,45,63
1,74,Note_on,65,112
1,74,Note_off,65,63
1,74,Note_on,64,112
1,74,Note_on,48,112
1,74,Note_on,52,112
1,74,Note_off,64,63
1,74,Note_off,48,63
1,74,Note_off,52,63
1,74,Note_on,63,112
1,74,Note_off,63,63
1,74,Note_on,64,112
1,74,Note_on,40,112
1,74,Note_off,64,63
1,74,Note_off,40,63
1,74,Note_on,69,112
1,74,Note_on,48,112
1,74,Note_on,52,112
1,74,Note_off,69,63
1,74,Note_off,48,63
1,74,Note_off,52,63
1,74,Note_on,72,112
1,74,Note_off,72,63
1,74,Note_on,76,112
1,74,Note_on,45,112
1,75,Note_off,76,63
1,75,Note_off,45,63
1,75,Note_on,81,112
1,75,Note_on,48,112
1,75,Note_on,52,112
1,75,Note_off,81,63
1,75,Note_off,48,63
1,75,Note_off,52,63
1,75,Note_on,84,112
1,75,Note_on,40,112
1,75,Note_off,40,63
1,75,Note_off,84,63
1,75,Note_on,48,112
1,75,Note_on,52,112
1,75,Note_off,48,63
1,75,Note_off,52,63
1,75,Note_on,86,112
1,75,Note_on,50,112
1,76,Note_off,86,63
1,76,Note_off,50,63
1,76,Note_on,84,112
1,76,Note_off,84,63
1,76,Note_on,83,112
1,76,Note_on,53,112
1,76,Note_on,57,112
1,76,Note_off,83,63
1,76,Note_off,53,63
1,76,Note_off,57,63
1,76,Note_on,86,112
1,76,Note_off,86,63
1,76,Note_on,84,112
1,76,Note_on,48,112
1,76,Note_off,84,63
1,76,Note_off,48,63
1,76,Note_on,83,112
1,76,Note_off,83,63
1,76,Note_on,81,112
1,76,Note_on,52,112
1,76,Note_on,57,112
1,76,Note_off,81,63
1,76,Note_off,52,63
1,76,Note_off,57,63
1,76,Note_on,84,112
1,76,Note_off,84,63
1,76,Note_on,83,112
1,76,Note_on,47,112
1,77,Note_off,83,63
1,77,Note_off,47,63
1,77,Note_on,81,112
1,77,Note_off,81,63
1,77,Note_on,80,112
1,77,Note_on,50,112
1,77,Note_on,56,112
1,77,Note_off,80,63
1,77,Note_off,50,63
1,77,Note_off,56,63
1,77,Note_on,83,112
1,77,Note_off,83,63
1,77,Note_on,81,112
1,77,Note_on,45,112
1,77,Note_off,81,63
1,77,Note_off,45,63
1,77,Note_on,76,112
1,77,Note_off,76,63
1,77,Note_on,72,112
1,77,Note_on,48,112
1,77,Note_on,57,112
1,77,Note_off,72,63
1,77,Note_off,48,63
1,77,Note_off,57,63
1,77,Note_on,69,112
1,77,Note_off,69,63
1,77,Note_on,77,112
1,77,Note_on,47,112
1,77,Note_off,77,63
1,77,Note_off,47,63
1,77,Note_on,76,112
1,77,Note_off,76,63
1,77,Note_on,74,112
1,78,Note_off,74,63
1,78,Note_on,72,112
1,78,Note_off,72,63
1,78,Note_on,71,112
1,78,Note_on,40,112
1,78,Note_on,52,112
1,78,Note_off,71,63
1,78,Note_on,69,112
1,78,Note_off,69,63
1,78,Note_on,68,112
1,78,Note_off,68,63
1,78,Note_on,71,112
1,78,Note_off,40,63
1,78,Note_off,52,63
1,78,Note_off,71,63
1,78,Note_on,69,112
1,78,Note_on,45,112
1,78,Note_on,57,112
1,78,Note_off,69,63
1,78,Note_off,45,63
1,78,Note_off,57,63
1,78,Note_on,33,112
1,78,Note_on,45,112
1,79,Note_off,33,63
1,79,Note_off,45,63
1,79,Note_on,48,112
1,79,Note_on,52,112
1,79,Note_off,48,63
1,79,Note_off,52,63
1,79,Note_on,40,112
1,79,Note_off,40,63
1,79,Note_on,48,112
1,80,Note_on,52,112
1,80,Note_off,48,63
1,80,Note_off,52,63
1,80,Note_on,40,112
1,80,Note_off,40,63
1,80,Note_on,42,112
1,80,Note_off,42,63
1,80,Note_on,44,112
1,80,Note_off,44,63
1,80,Note_on,33,112
1,80,Note_on,45,112
1,80,Note_off,33,63
1,80,Note_off,45,63
1,80,Note_on,48,112
1,80,Note_on,52,112
1,81,Note_off,48,63
1,81,Note_off,52,63
1,81,Note_on,40,112
1,81,Note_off,40,63
1,81,Note_on,48,112
1,81,Note_on,52,112
1,81,Note_off,48,63
1,81,Note_off,52,63
1,81,Note_on,33,112
1,81,Note_on,45,112
1,82,Note_off,33,63
1,82,Note_off,45,63
1,82,Note_on,48,112
1,82,Note_on,52,112
1,82,Note_on,57,112
1,82,Note_off,48,63
1,82,Note_off,52,63
1,82,Note_off,57,63
1,82,Note_on,40,112
1,82,Note_off,40,63
1,82,Note_on,48,112
1,82,Note_on,52,112
1,82,Note_on,57,112
1,82,Note_off,48,63
1,82,Note_off,52,63
1,82,Note_off,57,63
1,82,Note_on,40,112
1,82,Note_off,40,63
1,82,Note_on,42,112
1,82,Note_off,42,63
1,82,Note_on,44,112
1,82,Note_off,44,63
1,82,Note_on,33,112
1,82,Note_on,45,112
1,83,Note_off,33,63
1,83,Note_off,45,63
1,83,Note_on,48,112
1,83,Note_on,52,112
1,83,Note_on,57,112
1,83,Note_off,48,63
1,83,Note_off,52,63
1,83,Note_off,57,63
1,83,Note_on,40,112
1,83,Note_off,40,63
1,83,Note_on,48,112
1,83,Note_on,52,112
1,83,Note_on,57,112
1,83,Note_off,48,63
1,83,Note_off,52,63
1,83,Note_off,57,63
1,84,Note_on,33,112
1,84,Note_on,45,112
1,84,Note_off,33,63
1,84,Note_off,45,63
1,84,Note_on,52,112
1,84,Note_on,57,112
1,84,Note_on,60,112
1,84,Note_off,52,63
1,84,Note_off,57,63
1,84,Note_off,60,63
1,84,Note_on,40,112
1,84,Note_off,40,63
1,84,Note_on,52,112
1,84,Note_on,57,112
1,84,Note_on,60,112
1,84,Note_off,52,63
1,84,Note_off,57,63
1,84,Note_off,60,63
1,84,Note_on,33,112
1,84,Note_on,45,112
1,85,Note_off,33,63
1,85,Note_off,45,63
1,85,Note_on,57,112
1,85,Note_on,60,112
1,85,Note_on,64,112
1,85,Note_off,57,63
1,85,Note_off,60,63
1,85,Note_off,64,63
1,85,Note_on,40,112
1,85,Note_off,40,63
1,85,Note_on,57,112
1,85,Note_on,60,112
1,85,Note_on,64,112
1,85,Note_off,57,63
1,85,Note_off,60,63
1,85,Note_off,64,63
1,85,Note_on,33,112
1,85,Note_on,45,112
1,85,Note_off,33,63
1,85,Note_off,45,63
1,85,Note_on,60,112
1,85,Note_on,64,112
1,85,Note_on,69,112
1,85,Note_off,60,63
1,85,Note_off,64,63
1,85,Note_off,69,63
1,85,Note_on,40,112
1,85,Note_off,40,63
1,86,Note_on,64,112
1,86,Note_on,69,112
1,86,Note_on,72,112
1,86,Note_off,64,63
1,86,Note_off,69,63
1,86,Note_off,72,63
1,86,Note_on,33,112
1,86,Note_on,45,112
1,86,Note_off,33,63
1,86,Note_off,45,63
1,86,Note_on,69,112
1,86,Note_on,72,112
1,86,Note_on,76,112
1,86,Note_off,69,63
1,86,Note_off,72,63
1,86,Note_off,76,63
1,86,Note_on,40,112
1,86,Note_off,40,63
1,86,Note_on,72,112
1,86,Note_on,76,112
1,86,Note_on,81,112
1,86,Note_off,72,63
1,86,Note_off,76,63
1,86,Note_off,81,63
1,86,Note_on,76,112
1,86,Note_on,45,112
1,86,Note_off,76,63
1,86,Note_on,69,112
1,86,Note_on,72,112
1,87,Note_off,45,63
1,87,Note_off,69,63
1,87,Note_off,72,63
1,87,Note_on,76,112
1,87,Note_on,48,112
1,87,Note_on,52,112
1,87,Note_off,76,63
1,87,Note_off,48,63
1,87,Note_off,52,63
1,87,Note_on,69,112
1,87,Note_on,72,112
1,87,Note_off,69,63
1,87,Note_off,72,63
1,87,Note_on,76,112
1,87,Note_on,40,112
1,87,Note_off,76,63
1,87,Note_off,40,63
1,87,Note_on,69,112
1,87,Note_on,72,112
1,87,Note_off,69,63
1,87,Note_off,72,63
1,87,Note_on,76,112
1,87,Note_on,48,112
1,87,Note_on,52,112
1,87,Note_off,76,63
1,87,Note_off,48,63
1,87,Note_off,52,63
1,87,Note_on,69,112
1,87,Note_on,72,112
1,87,Note_off,69,63
1,87,Note_off,72,63
1,87,Note_on,76,112
1,87,Note_on,45,112
1,87,Note_off,76,63
1,87,Note_off,45,63
1,87,Note_on,69,112
1,87,Note_on,72,112
1,87,Note_off,69,63
1,87,Note_off,72,63
1,87,Note_on,76,112
1,87,Note_on,48,112
1,87,Note_on,52,112
1,88,Note_off,76,63
1,88,Note_off,48,63
1,88,Note_off,52,63
1,88,Note_on,69,112
1,88,Note_on,72,112
1,88,Note_off,69,63
1,88,Note_off,72,63
1,88,Note_on,76,112
1,88,Note_on,40,112
1,88,Note_off,76,63
1,88,Note_off,40,63
1,88,Note_on,69,112
1,88,Note_on,72,112
1,88,Note_off,69,63
1,88,Note_off,72,63
1,88,Note_on,76,112
1,88,Note_on,48,112
1,88,Note_on,52,112
1,88,Note_off,76,63
1,88,Note_off,48,63
1,88,Note_off,52,63
1,88,Note_on,69,112
1,88,Note_on,72,112
1,88,Note_off,69,63
1,88,Note_off,72,63
1,88,Note_on,76,112
1,88,Note_on,45,112
1,88,Note_off,76,63
1,88,Note_off,45,63
1,88,Note_on,69,112
1,88,Note_on,72,112
1,88,Note_off,69,63
1,88,Note_off,72,63
1,88,Note_on,76,112
1,88,Note_on,48,112
1,88,Note_on,52,112
1,88,Note_off,76,63
1,88,Note_off,48,63
1,88,Note_off,52,63
1,88,Note_on,69,112
1,88,Note_on,72,112
1,88,Note_off,69,63
1,88,Note_off,72,63
1,88,Note_on,76,112
1,88,Note_on,40,112
1,89,Note_off,76,63
1,89,Note_off,40,63
1,89,Note_on,77,112
1,89,Note_off,77,63
1,89,Note_on,76,112
1,89,Note_on,48,112
1,89,Note_on,52,112
1,89,Note_off,76,63
1,89,Note_off,48,63
1,89,Note_off,52,63
1,89,Note_on,75,112
1,89,Note_off,75,63
1,89,Note_on,76,112
1,89,Note_on,45,112
1,89,Note_off,76,63
1,89,Note_off,45,63
1,89,Note_on,81,112
1,89,Note_on,48,112
1,89,Note_on,52,112
1,89,Note_off,81,63
1,89,Note_off,48,63
1,89,Note_off,52,63
1,89,Note_on,84,112
1,89,Note_on,40,112
1,90,Note_off,40,63
1,90,Note_off,84,63
1,90,Note_on,48,112
1,90,Note_on,52,112
1,90,Note_off,48,63
1,90,Note_off,52,63
1,90,Note_on,76,112
1,90,Note_on,80,112
1,90,Note_on,47,112
1,90,Note_off,76,63
1,90,Note_off,80,63
1,90,Note_off,47,63
1,90,Note_on,86,112
1,90,Note_off,86,63
1,90,Note_on,76,112
1,90,Note_on,80,112
1,90,Note_on,50,112
1,90,Note_on,52,112
1,90,Note_off,76,63
1,90,Note_off,80,63
1,90,Note_off,50,63
1,90,Note_off,52,63
1,90,Note_on,86,112
1,90,Note_off,86,63
1,90,Note_on,76,112
1,90,Note_on,80,112
1,90,Note_on,40,112
1,90,Note_off,76,63
1,90,Note_off,80,63
1,90,Note_off,40,63
1,90,Note_on,86,112
1,90,Note_off,86,63
1,90,Note_on,76,112
1,90,Note_on,80,112
1,90,Note_on,50,112
1,90,Note_on,52,112
1,91,Note_off,76,63
1,91,Note_off,80,63
1,91,Note_off,50,63
1,91,Note_off,52,63
1,91,Note_on,86,112
1,91,Note_off,86,63
1,91,Note_on,76,112
1,91,Note_on,81,112
1,91,Note_on,45,112
1,91,Note_off,76,63
1,91,Note_off,81,63
1,91,Note_off,45,63
1,91,Note_on,84,112
1,91,Note_off,84,63
1,91,Note_on,76,112
1,91,Note_on,81,112
1,91,Note_on,48,112
1,91,Note_on,52,112
1,91,Note_off,76,63
1,91,Note_off,81,63
1,91,Note_off,48,63
1,91,Note_off,52,63
1,91,Note_on,84,112
1,91,Note_off,84,63
1,91,Note_on,76,112
1,91,Note_on,81,112
1,91,Note_on,40,112
1,91,Note_off,76,63
1,91,Note_off,81,63
1,91,Note_off,40,63
1,91,Note_on,84,112
1,91,Note_off,84,63
1,91,Note_on,76,112
1,91,Note_on,81,112
1,91,Note_on,48,112
1,91,Note_on,52,112
1,91,Note_off,76,63
1,91,Note_off,81,63
1,91,Note_off,48,63
1,91,Note_off,52,63
1,91,Note_on,84,112
1,92,Note_off,84,63
1,92,Note_on,75,112
1,92,Note_on,78,112
1,92,Note_on,47,112
1,92,Note_off,75,63
1,92,Note_off,78,63
1,92,Note_off,47,63
1,92,Note_on,83,112
1,92,Note_off,83,63
1,92,Note_on,75,112
1,92,Note_on,78,112
1,92,Note_on,51,112
1,92,Note_on,54,112
1,92,Note_off,75,63
1,92,Note_off,78,63
1,92,Note_off,51,63
1,92,Note_off,54,63
1,92,Note_on,83,112
1,92,Note_off,83,63
1,92,Note_on,78,112
1,92,Note_on,42,112
1,92,Note_off,78,63
1,92,Note_off,42,63
1,92,Note_on,83,112
1,92,Note_on,51,112
1,92,Note_on,54,112
1,92,Note_off,83,63
1,92,Note_off,51,63
1,92,Note_off,54,63
1,92,Note_on,76,112
1,92,Note_on,80,112
1,92,Note_on,52,112
1,92,Note_on,56,112
1,93,Note_off,76,63
1,93,Note_off,80,63
1,93,Note_off,52,63
1,93,Note_off,56,63
1,93,Note_on,28,112
1,93,Note_on,40,112
1,93,Note_off,28,63
1,93,Note_off,40,63
1,93,Note_on,42,112
1,93,Note_off,42,63
1,93,Note_on,44,112
1,93,Note_off,44,63
1,93,Note_on,76,112
1,93,Note_on,45,112
1,93,Note_off,76,63
1,93,Note_off,45,63
1,93,Note_on,69,112
1,93,Note_on,72,112
1,93,Note_off,69,63
1,93,Note_off,72,63
1,93,Note_on,76,112
1,93,Note_on,48,112
1,93,Note_on,52,112
1,94,Note_off,76,63
1,94,Note_off,48,63
1,94,Note_off,52,63
1,94,Note_on,69,112
1,94,Note_on,72,112
1,94,Note_off,69,63
1,94,Note_off,72,63
1,94,Note_on,76,112
1,94,Note_on,40,112
1,94,Note_off,76,63
1,94,Note_off,40,63
1,94,Note_on,69,112
1,94,Note_on,72,112
1,94,Note_off,69,63
1,94,Note_off,72,63
1,94,Note_on,76,112
1,94,Note_on,48,112
1,94,Note_on,52,112
1,94,Note_off,76,63
1,94,Note_off,48,63
1,94,Note_off,52,63
1,94,Note_on,69,112
1,94,Note_on,72,112
1,94,Note_off,69,63
1,94,Note_off,72,63
1,94,Note_on,76,112
1,94,Note_on,45,112
1,94,Note_off,76,63
1,94,Note_off,45,63
1,94,Note_on,69,112
1,94,Note_on,72,112
1,94,Note_off,69,63
1,94,Note_off,72,63
1,94,Note_on,76,112
1,94,Note_on,48,112
1,94,Note_on,52,112
1,95,Note_off,76,63
1,95,Note_off,48,63
1,95,Note_off,52,63
1,95,Note_on,69,112
1,95,Note_on,72,112
1,95,Note_off,69,63
1,95,Note_off,72,63
1,95,Note_on,76,112
1,95,Note_on,40,112
1,95,Note_off,76,63
1,95,Note_off,40,63
1,95,Note_on,69,112
1,95,Note_on,72,112
1,95,Note_off,69,63
1,95,Note_off,72,63
1,95,Note_on,76,112
1,95,Note_on,48,112
1,95,Note_on,52,112
1,95,Note_off,76,63
1,95,Note_off,48,63
1,95,Note_off,52,63
1,95,Note_on,69,112
1,95,Note_on,72,112
1,95,Note_off,69,63
1,95,Note_off,72,63
1,95,Note_on,76,112
1,95,Note_on,45,112
1,95,Note_off,76,63
1,95,Note_off,45,63
1,95,Note_on,77,112
1,95,Note_off,77,63
1,95,Note_on,76,112
1,95,Note_on,48,112
1,95,Note_on,52,112
1,95,Note_off,76,63
1,95,Note_off,48,63
1,95,Note_off,52,63
1,95,Note_on,75,112
1,95,Note_off,75,63
1,95,Note_on,76,112
1,95,Note_on,40,112
1,96,Note_off,76,63
1,96,Note_off,40,63
1,96,Note_on,81,112
1,96,Note_on,48,112
1,96,Note_on,52,112
1,96,Note_off,81,63
1,96,Note_off,48,63
1,96,Note_off,52,63
1,96,Note_on,84,112
1,96,Note_off,84,63
1,96,Note_on,88,112
1,96,Note_on,45,112
1,96,Note_off,88,63
1,96,Note_off,45,63
1,96,Note_on,93,112
1,96,Note_on,48,112
1,96,Note_on,52,112
1,96,Note_off,93,63
1,96,Note_off,48,63
1,96,Note_off,52,63
1,96,Note_on,96,112
1,96,Note_on,40,112
1,97,Note_off,40,63
1,97,Note_off,96,63
1,97,Note_on,48,112
1,97,Note_on,52,112
1,97,Note_off,48,63
1,97,Note_off,52,63
1,97,Note_on,98,112
1,97,Note_on,50,112
1,97,Note_off,98,63
1,97,Note_off,50,63
1,97,Note_on,96,112
1,97,Note_off,96,63
1,97,Note_on,95,112
1,97,Note_on,53,112
1,97,Note_on,57,112
1,97,Note_off,95,63
1,97,Note_off,53,63
1,97,Note_off,57,63
1,97,Note_on,98,112
1,97,Note_off,98,63
1,97,Note_on,96,112
1,97,Note_on,48,112
1,97,Note_off,96,63
1,97,Note_off,48,63
1,97,Note_on,95,112
1,98,Note_off,95,63
1,98,Note_on,93,112
1,98,Note_on,52,112
1,98,Note_on,57,112
1,98,Note_off,93,63
1,98,Note_off,52,63
1,98,Note_off,57,63
1,98,Note_on,96,112
1,98,Note_off,96,63
1,98,Note_on,95,112
1,98,Note_on,47,112
1,98,Note_off,95,63
1,98,Note_off,47,63
1,98,Note_on,93,112
1,98,Note_off,93,63
1,98,Note_on,92,112
1,98,Note_on,50,112
1,98,Note_on,56,112
1,98,Note_off,92,63
1,98,Note_off,50,63
1,98,Note_off,56,63
1,98,Note_on,95,112
1,98,Note_off,95,63
1,98,Note_on,93,112
1,98,Note_on,45,112
1,98,Note_off,93,63
1,98,Note_off,45,63
1,98,Note_on,88,112
1,98,Note_off,88,63
1,98,Note_on,84,112
1,98,Note_on,48,112
1,98,Note_on,52,112
1,99,Note_off,84,63
1,99,Note_off,48,63
1,99,Note_off,52,63
1,99,Note_on,81,112
1,99,Note_off,81,63
1,99,Note_on,89,112
1,99,Note_on,47,112
1,99,Note_off,89,63
1,99,Note_off,47,63
1,99,Note_on,88,112
1,99,Note_off,88,63
1,99,Note_on,86,112
1,99,Note_off,86,63
1,99,Note_on,84,112
1,99,Note_off,84,63
1,99,Note_on,83,112
1,99,Note_on,40,112
1,99,Note_on,52,112
1,99,Note_off,83,63
1,99,Note_on,81,112
1,99,Note_off,81,63
1,99,Note_on,80,112
1,99,Note_off,80,63
1,99,Note_on,83,112
1,99,Note_off,40,63
1,99,Note_off,52,63
1,100,Note_off,83,63
1,100,Note_on,81,112
1,100,Note_on,45,112
1,100,Note_on,57,112
1,100,Note_off,81,63
1,100,Note_off,45,63
1,100,Note_off,57,63
1,100,Note_on,45,112
1,100,Note_off,45,63
1,100,Note_on,74,112
1,100,Note_on,62,112
1,101,Note_off,62,63
1,101,Note_on,65,112
1,101,Note_on,69,112
1,101,Note_off,74,63
1,101,Note_off,65,63
1,101,Note_off,69,63
1,101,Note_on,73,112
1,101,Note_off,73,63
1,101,Note_on,74,112
1,101,Note_off,74,63
1,101,Note_on,76,112
1,101,Note_on,65,112
1,101,Note_on,69,112
1,101,Note_off,76,63
1,101,Note_off,65,63
1,101,Note_off,69,63
1,101,Note_on,77,112
1,101,Note_off,77,63
1,101,Note_on,76,112
1,101,Note_on,65,112
1,101,Note_on,69,112
1,102,Note_off,76,63
1,102,Note_off,65,63
1,102,Note_off,69,63
1,102,Note_on,74,112
1,102,Note_on,62,112
1,102,Note_off,74,63
1,102,Note_off,62,63
1,102,Note_on,77,112
1,102,Note_on,65,112
1,102,Note_on,69,112
1,102,Note_off,77,63
1,102,Note_off,65,63
1,102,Note_off,69,63
1,102,Note_on,76,112
1,102,Note_on,60,112
1,102,Note_off,60,63
1,102,Note_on,64,112
1,102,Note_on,69,112
1,102,Note_off,76,63
1,102,Note_off,64,63
1,102,Note_off,69,63
1,102,Note_on,74,112
1,102,Note_off,74,63
1,102,Note_on,72,112
1,103,Note_off,72,63
1,103,Note_on,74,112
1,103,Note_on,64,112
1,103,Note_on,69,112
1,103,Note_off,74,63
1,103,Note_off,64,63
1,103,Note_off,69,63
1,103,Note_on,76,112
1,103,Note_on,64,112
1,103,Note_on,69,112
1,103,Note_off,64,63
1,103,Note_off,69,63
1,103,Note_on,60,112
1,103,Note_off,60,63
1,103,Note_off,76,63
1,103,Note_on,72,112
1,103,Note_on,64,112
1,103,Note_on,69,112
1,104,Note_off,64,63
1,104,Note_off,69,63
1,104,Note_off,72,63
1,104,Note_on,71,112
1,104,Note_on,59,112
1,104,Note_off,59,63
1,104,Note_on,59,112
1,104,Note_on,64,112
1,104,Note_off,71,63
1,104,Note_off,59,63
1,104,Note_off,64,63
1,104,Note_on,70,112
1,104,Note_off,70,63
1,104,Note_on,71,112
1,104,Note_off,71,63
1,104,Note_on,72,112
1,104,Note_on,59,112
1,104,Note_on,64,112
1,104,Note_off,72,63
1,104,Note_off,59,63
1,104,Note_off,64,63
1,105,Note_on,74,112
1,105,Note_off,74,63
1,105,Note_on,72,112
1,105,Note_on,59,112
1,105,Note_on,64,112
1,105,Note_off,72,63
1,105,Note_off,59,63
1,105,Note_off,64,63
1,105,Note_on,71,112
1,105,Note_on,59,112
1,105,Note_off,71,63
1,105,Note_off,59,63
1,105,Note_on,74,112
1,105,Note_on,59,112
1,105,Note_on,64,112
1,105,Note_off,74,63
1,105,Note_off,59,63
1,105,Note_off,64,63
1,105,Note_on,72,112
1,105,Note_on,57,112
1,105,Note_off,72,63
1,105,Note_off,57,63
1,106,Note_on,69,112
1,106,Note_on,57,112
1,106,Note_off,69,63
1,106,Note_off,57,63
1,106,Note_on,72,112
1,106,Note_on,60,112
1,106,Note_off,72,63
1,106,Note_off,60,63
1,106,Note_on,76,112
1,106,Note_on,64,112
1,106,Note_off,76,63
1,106,Note_off,64,63
1,106,Note_on,81,112
1,106,Note_on,57,112
1,106,Note_on,69,112
1,106,Note_off,81,63
1,106,Note_off,57,63
1,106,Note_off,69,63
1,106,Note_on,76,112
1,106,Note_on,52,112
1,106,Note_on,64,112
1,107,Note_off,76,63
1,107,Note_off,52,63
1,107,Note_off,64,63
1,107,Note_on,72,112
1,107,Note_on,48,112
1,107,Note_on,60,112
1,107,Note_off,72,63
1,107,Note_off,48,63
1,107,Note_off,60,63
1,107,Note_on,69,112
1,107,Note_on,45,112
1,107,Note_on,57,112
1,107,Note_off,69,63
1,107,Note_off,45,63
1,107,Note_off,57,63
1,107,Note_on,74,112
1,107,Note_on,50,112
1,107,Note_off,50,63
1,107,Note_on,53,112
1,107,Note_on,57,112
1,107,Note_off,74,63
1,107,Note_off,53,63
1,107,Note_off,57,63
1,107,Note_on,73,112
1,107,Note_off,73,63
1,107,Note_on,74,112
1,107,Note_on,45,112
1,108,Note_off,74,63
1,108,Note_off,45,63
1,108,Note_on,76,112
1,108,Note_on,53,112
1,108,Note_on,57,112
1,108,Note_off,76,63
1,108,Note_off,53,63
1,108,Note_off,57,63
1,108,Note_on,77,112
1,108,Note_on,50,112
1,108,Note_off,77,63
1,108,Note_off,50,63
1,108,Note_on,76,112
1,108,Note_on,53,112
1,108,Note_on,57,112
1,108,Note_off,76,63
1,108,Note_off,53,63
1,108,Note_off,57,63
1,108,Note_on,74,112
1,108,Note_on,45,112
1,108,Note_off,74,63
1,108,Note_off,45,63
1,108,Note_on,77,112
1,108,Note_on,53,112
1,109,Note_on,57,112
1,109,Note_off,77,63
1,109,Note_off,53,63
1,109,Note_off,57,63
1,109,Note_on,76,112
1,109,Note_on,48,112
1,109,Note_off,48,63
1,109,Note_on,52,112
1,109,Note_on,57,112
1,109,Note_off,76,63
1,109,Note_off,52,63
1,109,Note_off,57,63
1,109,Note_on,74,112
1,109,Note_off,74,63
1,109,Note_on,72,112
1,109,Note_on,45,112
1,109,Note_off,72,63
1,109,Note_off,45,63
1,109,Note_on,74,112
1,109,Note_on,52,112
1,109,Note_on,57,112
1,109,Note_off,74,63
1,109,Note_off,52,63
1,109,Note_off,57,63
1,110,Note_on,76,112
1,110,Note_on,48,112
1,110,Note_off,76,63
1,110,Note_off,48,63
1,110,Note_on,52,112
1,110,Note_on,57,112
1,110,Note_off,52,63
1,110,Note_off,57,63
1,110,Note_on,81,112
1,110,Note_on,45,112
1,110,Note_off,45,63
1,110,Note_off,81,63
1,110,Note_on,52,112
1,110,Note_on,57,112
1,110,Note_off,52,63
1,110,Note_off,57,63
1,110,Note_on,50,112
1,110,Note_off,50,63
1,111,Note_on,74,112
1,111,Note_on,53,112
1,111,Note_on,57,112
1,111,Note_off,53,63
1,111,Note_off,57,63
1,111,Note_off,74,63
1,111,Note_on,47,112
1,111,Note_off,47,63
1,111,Note_on,77,112
1,111,Note_on,53,112
1,111,Note_on,57,112
1,111,Note_off,77,63
1,111,Note_off,53,63
1,111,Note_off,57,63
1,111,Note_on,76,112
1,111,Note_on,40,112
1,111,Note_on,52,112
1,111,Note_off,76,63
1,111,Note_off,40,63
1,111,Note_off,52,63
1,111,Note_on,72,112
1,111,Note_on,36,112
1,111,Note_on,48,112
1,111,Note_off,72,63
1,111,Note_off,36,63
1,111,Note_off,48,63
1,112,Note_on,74,112
1,112,Note_on,38,112
1,112,Note_on,50,112
1,112,Note_off,74,63
1,112,Note_off,38,63
1,112,Note_off,50,63
1,112,Note_on,71,112
1,112,Note_on,35,112
1,112,Note_on,47,112
1,112,Note_off,71,63
1,112,Note_off,35,63
1,112,Note_off,47,63
1,112,Note_on,69,112
1,112,Note_on,33,112
1,112,Note_on,45,112
1,112,Note_off,69,63
1,112,Note_off,33,63
1,112,Note_off,45,63
1,113,Note_on,64,112
1,113,Note_on,68,112
1,113,Note_on,76,112
1,113,Note_on,28,112
1,113,Note_on,40,112
1,113,Note_off,64,63
1,113,Note_off,68,63
1,113,Note_off,76,63
1,113,Note_off,28,63
1,113,Note_off,40,63
1,113,Note_on,69,112
1,113,Note_on,72,112
1,113,Note_on,81,112
1,113,Note_on,33,112
1,113,Note_on,45,112
1,113,Note_off,69,63
1,113,Note_off,72,63
1,113,Note_off,81,63
1,113,Note_off,33,63
1,113,Note_off,45,63
1,113,Note_on,28,112
1,113,Note_on,40,112
1,114,Note_off,28,63
1,114,Note_off,40,63
1,114,Note_on,64,112
1,114,Note_on,45,112
1,114,Note_off,64,63
1,114,Note_on,57,112
1,114,Note_on,60,112
1,114,Note_off,45,63
1,114,Note_off,57,63
1,114,Note_off,60,63
1,114,Note_on,64,112
1,114,Note_on,48,112
1,114,Note_on,52,112
1,114,Note_off,64,63
1,114,Note_off,48,63
1,114,Note_off,52,63
1,114,Note_on,57,112
1,114,Note_on,60,112
1,114,Note_off,57,63
1,114,Note_off,60,63
1,114,Note_on,64,112
1,114,Note_on,40,112
1,114,Note_off,64,63
1,114,Note_off,40,63
1,114,Note_on,57,112
1,114,Note_on,60,112
1,115,Note_off,57,63
1,115,Note_off,60,63
1,115,Note_on,64,112
1,115,Note_on,48,112
1,115,Note_on,52,112
1,115,Note_off,64,63
1,115,Note_off,48,63
1,115,Note_off,52,63
1,115,Note_on,57,112
1,115,Note_on,60,112
1,115,Note_off,57,63
1,115,Note_off,60,63
1,115,Note_on,64,112
1,115,Note_on,45,112
1,115,Note_off,64,63
1,115,Note_off,45,63
1,115,Note_on,57,112
1,115,Note_on,60,112
1,115,Note_off,57,63
1,115,Note_off,60,63
1,115,Note_on,64,112
1,115,Note_on,48,112
1,115,Note_on,52,112
1,115,Note_off,64,63
1,115,Note_off,48,63
1,115,Note_off,52,63
1,115,Note_on,57,112
1,115,Note_on,60,112
1,115,Note_off,57,63
1,115,Note_off,60,63
1,115,Note_on,64,112
1,115,Note_on,40,112
1,115,Note_off,64,63
1,115,Note_off,40,63
1,115,Note_on,57,112
1,115,Note_on,60,112
1,115,Note_off,57,63
1,115,Note_off,60,63
1,115,Note_on,64,112
1,115,Note_on,48,112
1,115,Note_on,52,112
1,116,Note_off,64,63
1,116,Note_off,48,63
1,116,Note_off,52,63
1,116,Note_on,57,112
1,116,Note_on,60,112
1,116,Note_off,57,63
1,116,Note_off,60,63
1,116,Note_on,64,112
1,116,Note_on,45,112
1,116,Note_off,64,63
1,116,Note_off,45,63
1,116,Note_on,57,112
1,116,Note_on,60,112
1,116,Note_off,57,63
1,116,Note_off,60,63
1,116,Note_on,64,112
1,116,Note_on,48,112
1,116,Note_on,52,112
1,116,Note_off,64,63
1,116,Note_off,48,63
1,116,Note_off,52,63
1,116,Note_on,57,112
1,116,Note_on,60,112
1,116,Note_off,57,63
1,116,Note_off,60,63
1,116,Note_on,64,112
1,116,Note_on,40,112
1,116,Note_off,64,63
1,116,Note_off,40,63
1,116,Note_on,65,112
1,116,Note_off,65,63
1,116,Note_on,64,112
1,116,Note_on,48,112
1,116,Note_on,52,112
1,116,Note_off,64,63
1,116,Note_off,48,63
1,116,Note_off,52,63
1,116,Note_on,63,112
1,117,Note_off,63,63
1,117,Note_on,64,112
1,117,Note_on,45,112
1,117,Note_off,64,63
1,117,Note_off,45,63
1,117,Note_on,69,112
1,117,Note_on,48,112
1,117,Note_on,52,112
1,117,Note_off,69,63
1,117,Note_off,48,63
1,117,Note_off,52,63
1,117,Note_on,72,112
1,117,Note_on,40,112
1,117,Note_off,40,63
1,117,Note_off,72,63
1,117,Note_on,48,112
1,117,Note_on,52,112
1,117,Note_off,48,63
1,117,Note_off,52,63
1,117,Note_on,64,112
1,117,Note_on,68,112
1,117,Note_on,47,112
1,117,Note_off,64,63
1,117,Note_off,68,63
1,118,Note_off,47,63
1,118,Note_on,74,112
1,118,Note_off,74,63
1,118,Note_on,64,112
1,118,Note_on,68,112
1,118,Note_on,50,112
1,118,Note_on,52,112
1,118,Note_off,64,63
1,118,Note_off,68,63
1,118,Note_off,50,63
1,118,Note_off,52,63
1,118,Note_on,74,112
1,118,Note_off,74,63
1,118,Note_on,64,112
1,118,Note_on,68,112
1,118,Note_on,40,112
1,118,Note_off,64,63
1,118,Note_off,68,63
1,118,Note_off,40,63
1,118,Note_on,74,112
1,118,Note_off,74,63
1,118,Note_on,64,112
1,118,Note_on,68,112
1,118,Note_on,50,112
1,118,Note_on,52,112
1,118,Note_off,64,63
1,118,Note_off,68,63
1,118,Note_off,50,63
1,118,Note_off,52,63
1,118,Note_on,74,112
1,118,Note_off,74,63
1,118,Note_on,64,112
1,118,Note_on,69,112
1,118,Note_on,45,112
1,118,Note_off,64,63
1,118,Note_off,69,63
1,118,Note_off,45,63
1,118,Note_on,72,112
1,118,Note_off,72,63
1,118,Note_on,64,112
1,118,Note_on,69,112
1,118,Note_on,48,112
1,118,Note_on,52,112
1,119,Note_off,64,63
1,119,Note_off,69,63
1,119,Note_off,48,63
1,119,Note_off,52,63
1,119,Note_on,72,112
1,119,Note_off,72,63
1,119,Note_on,64,112
1,119,Note_on,69,112
1,119,Note_on,40,112
1,119,Note_off,64,63
1,119,Note_off,69,63
1,119,Note_off,40,63
1,119,Note_on,72,112
1,119,Note_off,72,63
1,119,Note_on,64,112
1,119,Note_on,69,112
1,119,Note_on,48,112
1,119,Note_on,52,112
1,119,Note_off,64,63
1,119,Note_off,69,63
1,119,Note_off,48,63
1,119,Note_off,52,63
1,119,Note_on,72,112
1,119,Note_off,72,63
1,119,Note_on,63,112
1,119,Note_on,66,112
1,119,Note_on,47,112
1,119,Note_off,63,63
1,119,Note_off,66,63
1,119,Note_off,47,63
1,119,Note_on,71,112
1,119,Note_off,71,63
1,119,Note_on,63,112
1,119,Note_on,66,112
1,119,Note_on,51,112
1,119,Note_on,54,112
1,119,Note_off,63,63
1,119,Note_off,66,63
1,119,Note_off,51,63
1,119,Note_off,54,63
1,119,Note_on,71,112
1,120,Note_off,71,63
1,120,Note_on,66,112
1,120,Note_on,42,112
1,120,Note_off,66,63
1,120,Note_off,42,63
1,120,Note_on,71,112
1,120,Note_on,51,112
1,120,Note_on,54,112
1,120,Note_off,71,63
1,120,Note_off,51,63
1,120,Note_off,54,63
1,120,Note_on,64,112
1,120,Note_on,68,112
1,120,Note_on,52,112
1,120,Note_on,56,112
1,120,Note_off,64,63
1,120,Note_off,68,63
1,120,Note_off,52,63
1,120,Note_off,56,63
1,120,Note_on,28,112
1,120,Note_on,40,112
1,121,Note_off,28,63
1,121,Note_off,40,63
1,121,Note_on,42,112
1,121,Note_off,42,63
1,121,Note_on,44,112
1,121,Note_off,44,63
1,121,Note_on,64,112
1,121,Note_on,45,112
1,121,Note_off,64,63
1,121,Note_off,45,63
1,121,Note_on,57,112
1,121,Note_on,60,112
1,121,Note_off,57,63
1,121,Note_off,60,63
1,121,Note_on,64,112
1,121,Note_on,48,112
1,121,Note_on,52,112
1,121,Note_off,64,63
1,121,Note_off,48,63
1,121,Note_off,52,63
1,121,Note_on,57,112
1,121,Note_on,60,112
1,121,Note_off,57,63
1,121,Note_off,60,63
1,121,Note_on,64,112
1,121,Note_on,40,112
1,121,Note_off,64,63
1,121,Note_off,40,63
1,121,Note_on,57,112
1,121,Note_on,60,112
1,121,Note_off,57,63
1,121,Note_off,60,63
1,121,Note_on,64,112
1,121,Note_on,48,112
1,121,Note_on,52,112
1,122,Note_off,64,63
1,122,Note_off,48,63
1,122,Note_off,52,63
1,122,Note_on,57,112
1,122,Note_on,60,112
1,122,Note_off,57,63
1,122,Note_off,60,63
1,122,Note_on,64,112
1,122,Note_on,45,112
1,122,Note_off,64,63
1,122,Note_off,45,63
1,122,Note_on,57,112
1,122,Note_on,60,112
1,122,Note_off,57,63
1,122,Note_off,60,63
1,122,Note_on,64,112
1,122,Note_on,48,112
1,122,Note_on,52,112
1,122,Note_off,64,63
1,122,Note_off,48,63
1,122,Note_off,52,63
1,122,Note_on,57,112
1,122,Note_on,60,112
1,122,Note_off,57,63
1,122,Note_off,60,63
1,122,Note_on,64,112
1,122,Note_on,40,112
1,122,Note_off,64,63
1,122,Note_off,40,63
1,122,Note_on,57,112
1,122,Note_on,60,112
1,122,Note_off,57,63
1,122,Note_off,60,63
1,122,Note_on,64,112
1,122,Note_on,48,112
1,122,Note_on,52,112
1,123,Note_off,64,63
1,123,Note_off,48,63
1,123,Note_off,52,63
1,123,Note_on,57,112
1,123,Note_on,60,112
1,123,Note_off,57,63
1,123,Note_off,60,63
1,123,Note_on,64,112
1,123,Note_on,45,112
1,123,Note_off,64,63
1,123,Note_off,45,63
1,123,Note_on,65,112
1,123,Note_off,65,63
1,123,Note_on,64,112
1,123,Note_on,48,112
1,123,Note_on,52,112
1,123,Note_off,64,63
1,123,Note_off,48,63
1,123,Note_off,52,63
1,123,Note_on,63,112
1,123,Note_off,63,63
1,123,Note_on,64,112
1,123,Note_on,40,112
1,123,Note_off,64,63
1,123,Note_off,40,63
1,123,Note_on,69,112
1,123,Note_on,48,112
1,123,Note_on,52,112
1,123,Note_off,69,63
1,123,Note_off,48,63
1,123,Note_off,52,63
1,123,Note_on,72,112
1,123,Note_off,72,63
1,123,Note_on,76,112
1,123,Note_on,45,112
1,124,Note_off,76,63
1,124,Note_off,45,63
1,124,Note_on,81,112
1,124,Note_on,48,112
1,124,Note_on,52,112
1,124,Note_off,81,63
1,124,Note_off,48,63
1,124,Note_off,52,63
1,124,Note_on,84,112
1,124,Note_on,40,112
1,124,Note_off,40,63
1,124,Note_off,84,63
1,124,Note_on,48,112
1,124,Note_on,52,112
1,124,Note_off,48,63
1,124,Note_off,52,63
1,124,Note_on,86,112
1,124,Note_on,50,112
1,124,Note_on,53,112
1,124,Note_off,86,63
1,124,Note_off,50,63
1,124,Note_off,53,63
1,124,Note_on,84,112
1,125,Note_off,84,63
1,125,Note_on,83,112
1,125,Note_on,57,112
1,125,Note_off,83,63
1,125,Note_off,57,63
1,125,Note_on,86,112
1,125,Note_off,86,63
1,125,Note_on,84,112
1,125,Note_on,48,112
1,125,Note_on,52,112
1,125,Note_off,84,63
1,125,Note_off,48,63
1,125,Note_off,52,63
1,125,Note_on,83,112
1,125,Note_off,83,63
1,125,Note_on,81,112
1,125,Note_on,57,112
1,125,Note_off,81,63
1,125,Note_off,57,63
1,125,Note_on,84,112
1,125,Note_off,84,63
1,125,Note_on,83,112
1,125,Note_on,47,112
1,125,Note_on,50,112
1,125,Note_off,83,63
1,125,Note_off,47,63
1,125,Note_off,50,63
1,125,Note_on,81,112
1,125,Note_off,81,63
1,125,Note_on,80,112
1,125,Note_on,52,112
1,125,Note_off,80,63
1,125,Note_off,52,63
1,125,Note_on,83,112
1,126,Note_off,83,63
1,126,Note_on,81,112
1,126,Note_on,45,112
1,126,Note_on,48,112
1,126,Note_off,81,63
1,126,Note_off,45,63
1,126,Note_off,48,63
1,126,Note_on,76,112
1,126,Note_off,76,63
1,126,Note_on,72,112
1,126,Note_on,52,112
1,126,Note_off,72,63
1,126,Note_off,52,63
1,126,Note_on,69,112
1,126,Note_off,69,63
1,126,Note_on,77,112
1,126,Note_on,44,112
1,126,Note_on,52,112
1,126,Note_off,77,63
1,126,Note_off,44,63
1,126,Note_off,52,63
1,126,Note_on,76,112
1,126,Note_off,76,63
1,126,Note_on,74,112
1,126,Note_off,74,63
1,126,Note_on,72,112
1,126,Note_off,72,63
1,126,Note_on,71,112
1,126,Note_on,40,112
1,126,Note_on,52,112
1,127,Note_off,71,63
1,127,Note_on,69,112
1,127,Note_off,69,63
1,127,Note_on,68,112
1,127,Note_off,68,63
1,127,Note_on,71,112
1,127,Note_off,40,63
1,127,Note_off,52,63
1,127,Note_off,71,63
1,127,Note_on,69,112
1,127,Note_on,45,112
1,127,Note_on,57,112
1,127,Note_off,69,63
1,127,Note_off,45,63
1,127,Note_off,57,63
1,127,Note_on,33,112
1,127,Note_on,45,112
1,128,Note_off,33,63
1,128,Note_off,45,63
1,128,Note_on,65,112
1,128,Note_on,46,112
1,128,Note_off,65,63
1,128,Note_on,58,112
1,128,Note_on,61,112
1,128,Note_off,46,63
1,128,Note_off,58,63
1,128,Note_off,61,63
1,128,Note_on,65,112
1,128,Note_on,49,112
1,128,Note_on,53,112
1,128,Note_off,65,63
1,128,Note_off,49,63
1,128,Note_off,53,63
1,128,Note_on,58,112
1,128,Note_on,61,112
1,129,Note_off,58,63
1,129,Note_off,61,63
1,129,Note_on,65,112
1,129,Note_on,41,112
1,129,Note_off,65,63
1,129,Note_off,41,63
1,129,Note_on,58,112
1,129,Note_on,61,112
1,129,Note_off,58,63
1,129,Note_off,61,63
1,129,Note_on,65,112
1,129,Note_on,49,112
1,129,Note_on,53,112
1,129,Note_off,65,63
1,129,Note_off,49,63
1,129,Note_off,53,63
1,129,Note_on,58,112
1,129,Note_on,61,112
1,129,Note_off,58,63
1,129,Note_off,61,63
1,129,Note_on,65,112
1,129,Note_on,46,112
1,129,Note_off,65,63
1,129,Note_off,46,63
1,129,Note_on,58,112
1,129,Note_on,61,112
1,129,Note_off,58,63
1,129,Note_off,61,63
1,129,Note_on,65,112
1,129,Note_on,49,112
1,129,Note_on,53,112
1,129,Note_off,65,63
1,129,Note_off,49,63
1,129,Note_off,53,63
1,129,Note_on,58,112
1,129,Note_on,61,112
1,130,Note_off,58,63
1,130,Note_off,61,63
1,130,Note_on,65,112
1,130,Note_on,41,112
1,130,Note_off,65,63
1,130,Note_off,41,63
1,130,Note_on,58,112
1,130,Note_on,61,112
1,130,Note_off,58,63
1,130,Note_off,61,63
1,130,Note_on,65,112
1,130,Note_on,49,112
1,130,Note_on,53,112
1,130,Note_off,65,63
1,130,Note_off,49,63
1,130,Note_off,53,63
1,130,Note_on,58,112
1,130,Note_on,61,112
1,130,Note_off,58,63
1,130,Note_off,61,63
1,130,Note_on,65,112
1,130,Note_on,46,112
1,130,Note_off,65,63
1,130,Note_off,46,63
1,130,Note_on,58,112
1,130,Note_on,61,112
1,130,Note_off,58,63
1,130,Note_off,61,63
1,130,Note_on,65,112
1,130,Note_on,49,112
1,130,Note_on,53,112
1,130,Note_off,65,63
1,130,Note_off,49,63
1,130,Note_off,53,63
1,130,Note_on,58,112
1,130,Note_on,61,112
1,130,Note_off,58,63
1,130,Note_off,61,63
1,130,Note_on,65,112
1,130,Note_on,41,112
1,131,Note_off,65,63
1,131,Note_off,41,63
1,131,Note_on,66,112
1,131,Note_off,66,63
1,131,Note_on,65,112
1,131,Note_on,49,112
1,131,Note_on,53,112
1,131,Note_off,65,63
1,131,Note_off,49,63
1,131,Note_off,53,63
1,131,Note_on,64,112
1,131,Note_off,64,63
1,131,Note_on,65,112
1,131,Note_on,46,112
1,131,Note_off,65,63
1,131,Note_off,46,63
1,131,Note_on,70,112
1,131,Note_on,49,112
1,131,Note_on,53,112
1,131,Note_off,70,63
1,131,Note_off,49,63
1,131,Note_off,53,63
1,131,Note_on,73,112
1,131,Note_on,41,112
1,131,Note_off,41,63
1,131,Note_off,73,63
1,131,Note_on,49,112
1,131,Note_on,53,112
1,131,Note_off,49,63
1,131,Note_off,53,63
1,131,Note_on,65,112
1,131,Note_on,69,112
1,131,Note_on,48,112
1,131,Note_off,65,63
1,131,Note_off,69,63
1,131,Note_off,48,63
1,131,Note_on,75,112
1,132,Note_off,75,63
1,132,Note_on,65,112
1,132,Note_on,69,112
1,132,Note_on,51,112
1,132,Note_on,53,112
1,132,Note_off,65,63
1,132,Note_off,69,63
1,132,Note_off,51,63
1,132,Note_off,53,63
1,132,Note_on,75,112
1,132,Note_off,75,63
1,132,Note_on,65,112
1,132,Note_on,69,112
1,132,Note_on,41,112
1,132,Note_off,65,63
1,132,Note_off,69,63
1,132,Note_off,41,63
1,132,Note_on,75,112
1,132,Note_off,75,63
1,132,Note_on,65,112
1,132,Note_on,69,112
1,132,Note_on,51,112
1,132,Note_on,53,112
1,132,Note_off,65,63
1,132,Note_off,69,63
1,132,Note_off,51,63
1,132,Note_off,53,63
1,132,Note_on,75,112
1,132,Note_off,75,63
1,132,Note_on,65,112
1,132,Note_on,70,112
1,132,Note_on,46,112
1,132,Note_off,65,63
1,132,Note_off,70,63
1,132,Note_off,46,63
1,132,Note_on,73,112
1,132,Note_off,73,63
1,132,Note_on,65,112
1,132,Note_on,70,112
1,132,Note_on,49,112
1,132,Note_on,53,112
1,132,Note_off,65,63
1,132,Note_off,70,63
1,132,Note_off,49,63
1,132,Note_off,53,63
1,132,Note_on,73,112
1,133,Note_off,73,63
1,133,Note_on,65,112
1,133,Note_on,70,112
1,133,Note_on,41,112
1,133,Note_off,65,63
1,133,Note_off,70,63
1,133,Note_off,41,63
1,133,Note_on,73,112
1,133,Note_off,73,63
1,133,Note_on,65,112
1,133,Note_on,70,112
1,133,Note_on,49,112
1,133,Note_on,53,112
1,133,Note_off,65,63
1,133,Note_off,70,63
1,133,Note_off,49,63
1,133,Note_off,53,63
1,133,Note_on,73,112
1,133,Note_off,73,63
1,133,Note_on,64,112
1,133,Note_on,67,112
1,133,Note_on,48,112
1,133,Note_off,64,63
1,133,Note_off,67,63
1,133,Note_off,48,63
1,133,Note_on,72,112
1,133,Note_off,72,63
1,133,Note_on,64,112
1,133,Note_on,67,112
1,133,Note_on,52,112
1,133,Note_on,55,112
1,133,Note_off,64,63
1,133,Note_off,67,63
1,133,Note_off,52,63
1,133,Note_off,55,63
1,133,Note_on,72,112
1,133,Note_off,72,63
1,133,Note_on,67,112
1,133,Note_on,43,112
1,134,Note_off,67,63
1,134,Note_off,43,63
1,134,Note_on,72,112
1,134,Note_on,52,112
1,134,Note_on,55,112
1,134,Note_off,72,63
1,134,Note_off,52,63
1,134,Note_off,55,63
1,134,Note_on,65,112
1,134,Note_on,69,112
1,134,Note_on,53,112
1,134,Note_on,57,112
1,134,Note_off,65,63
1,134,Note_off,69,63
1,134,Note_off,53,63
1,134,Note_off,57,63
1,134,Note_on,29,112
1,134,Note_on,41,112
1,134,Note_off,29,63
1,134,Note_off,41,63
1,134,Note_on,43,112
1,134,Note_off,43,63
1,134,Note_on,45,112
1,134,Note_off,45,63
1,134,Note_on,65,112
1,134,Note_on,46,112
1,134,Note_off,65,63
1,134,Note_off,46,63
1,134,Note_on,58,112
1,134,Note_on,61,112
1,134,Note_off,58,63
1,134,Note_off,61,63
1,134,Note_on,65,112
1,134,Note_on,49,112
1,134,Note_on,53,112
1,134,Note_off,65,63
1,134,Note_off,49,63
1,134,Note_off,53,63
1,134,Note_on,58,112
1,134,Note_on,61,112
1,134,Note_off,58,63
1,134,Note_off,61,63
1,134,Note_on,65,112
1,135,Note_on,41,112
1,135,Note_off,65,63
1,135,Note_off,41,63
1,135,Note_on,58,112
1,135,Note_on,61,112
1,135,Note_off,58,63
1,135,Note_off,61,63
1,135,Note_on,65,112
1,135,Note_on,49,112
1,135,Note_on,53,112
1,135,Note_off,65,63
1,135,Note_off,49,63
1,135,Note_off,53,63
1,135,Note_on,58,112
1,135,Note_on,61,112
1,135,Note_off,58,63
1,135,Note_off,61,63
1,135,Note_on,65,112
1,135,Note_on,46,112
1,135,Note_off,65,63
1,135,Note_off,46,63
1,135,Note_on,58,112
1,135,Note_on,61,112
1,135,Note_off,58,63
1,135,Note_off,61,63
1,135,Note_on,65,112
1,135,Note_on,49,112
1,135,Note_on,53,112
1,135,Note_off,65,63
1,135,Note_off,49,63
1,135,Note_off,53,63
1,135,Note_on,58,112
1,135,Note_on,61,112
1,135,Note_off,58,63
1,135,Note_off,61,63
1,135,Note_on,65,112
1,135,Note_on,41,112
1,135,Note_off,65,63
1,135,Note_off,41,63
1,135,Note_on,58,112
1,135,Note_on,61,112
1,136,Note_off,58,63
1,136,Note_off,61,63
1,136,Note_on,65,112
1,136,Note_on,49,112
1,136,Note_on,53,112
1,136,Note_off,65,63
1,136,Note_off,49,63
1,136,Note_off,53,63
1,136,Note_on,58,112
1,136,Note_on,61,112
1,136,Note_off,58,63
1,136,Note_off,61,63
1,136,Note_on,65,112
1,136,Note_on,46,112
1,136,Note_off,65,63
1,136,Note_off,46,63
1,136,Note_on,66,112
1,136,Note_off,66,63
1,136,Note_on,65,112
1,136,Note_on,49,112
1,136,Note_on,53,112
1,136,Note_off,65,63
1,136,Note_off,49,63
1,136,Note_off,53,63
1,136,Note_on,64,112
1,136,Note_off,64,63
1,136,Note_on,65,112
1,136,Note_on,41,112
1,136,Note_off,65,63
1,136,Note_off,41,63
1,136,Note_on,70,112
1,136,Note_on,49,112
1,136,Note_on,53,112
1,136,Note_off,70,63
1,136,Note_off,49,63
1,136,Note_off,53,63
1,136,Note_on,73,112
1,136,Note_off,73,63
1,136,Note_on,77,112
1,136,Note_on,46,112
1,137,Note_off,77,63
1,137,Note_off,46,63
1,137,Note_on,82,112
1,137,Note_on,49,112
1,137,Note_on,53,112
1,137,Note_off,82,63
1,137,Note_off,49,63
1,137,Note_off,53,63
1,137,Note_on,85,112
1,137,Note_on,41,112
1,137,Note_off,41,63
1,137,Note_off,85,63
1,137,Note_on,49,112
1,137,Note_on,53,112
1,137,Note_off,49,63
1,137,Note_off,53,63
1,137,Note_on,87,112
1,137,Note_on,51,112
1,137,Note_off,87,63
1,137,Note_off,51,63
1,137,Note_on,85,112
1,137,Note_off,85,63
1,137,Note_on,84,112
1,137,Note_on,54,112
1,137,Note_on,58,112
1,137,Note_off,84,63
1,137,Note_off,54,63
1,137,Note_off,58,63
1,137,Note_on,87,112
1,138,Note_off,87,63
1,138,Note_on,85,112
1,138,Note_on,49,112
1,138,Note_off,85,63
1,138,Note_off,49,63
1,138,Note_on,84,112
1,138,Note_off,84,63
1,138,Note_on,82,112
1,138,Note_on,53,112
1,138,Note_on,58,112
1,138,Note_off,82,63
1,138,Note_off,53,63
1,138,Note_off,58,63
1,138,Note_on,85,112
1,138,Note_off,85,63
1,138,Note_on,84,112
1,138,Note_on,48,112
1,138,Note_off,84,63
1,138,Note_off,48,63
1,138,Note_on,82,112
1,138,Note_off,82,63
1,138,Note_on,81,112
1,138,Note_on,51,112
1,138,Note_on,57,112
1,138,Note_off,81,63
1,138,Note_off,51,63
1,138,Note_off,57,63
1,138,Note_on,84,112
1,138,Note_off,84,63
1,138,Note_on,82,112
1,138,Note_on,46,112
1,138,Note_off,82,63
1,138,Note_off,46,63
1,138,Note_on,77,112
1,139,Note_off,77,63
1,139,Note_on,73,112
1,139,Note_on,49,112
1,139,Note_on,53,112
1,139,Note_off,73,63
1,139,Note_off,49,63
1,139,Note_off,53,63
1,139,Note_on,70,112
1,139,Note_off,70,63
1,139,Note_on,78,112
1,139,Note_on,48,112
1,139,Note_off,78,63
1,139,Note_off,48,63
1,139,Note_on,77,112
1,139,Note_off,77,63
1,139,Note_on,75,112
1,139,Note_off,75,63
1,139,Note_on,73,112
1,139,Note_off,73,63
1,139,Note_on,72,112
1,139,Note_on,41,112
1,139,Note_on,53,112
1,139,Note_off,72,63
1,139,Note_on,70,112
1,139,Note_off,70,63
1,139,Note_on,69,112
1,139,Note_off,69,63
1,139,Note_on,72,112
1,140,Note_off,41,63
1,140,Note_off,53,63
1,140,Note_off,72,63
1,140,Note_on,70,112
1,140,Note_on,46,112
1,140,Note_on,58,112
1,140,Note_off,70,63
1,140,Note_off,46,63
1,140,Note_off,58,63
1,140,Note_on,34,112
1,140,Note_on,46,112
1,140,Note_off,34,63
1,140,Note_off,46,63
1,140,Note_on,99,112
1,140,Note_on,51,112
1,140,Note_on,54,112
1,140,Note_off,99,63
1,140,Note_off,51,63
1,140,Note_off,54,63
1,140,Note_on,97,112
1,140,Note_off,97,63
1,140,Note_on,96,112
1,140,Note_off,96,63
1,140,Note_on,99,112
1,140,Note_off,99,63
1,140,Note_on,97,112
1,140,Note_on,49,112
1,140,Note_on,53,112
1,141,Note_off,97,63
1,141,Note_off,49,63
1,141,Note_off,53,63
1,141,Note_on,96,112
1,141,Note_off,96,63
1,141,Note_on,94,112
1,141,Note_off,94,63
1,141,Note_on,97,112
1,141,Note_off,97,63
1,141,Note_on,96,112
1,141,Note_on,48,112
1,141,Note_on,51,112
1,141,Note_off,96,63
1,141,Note_off,48,63
1,141,Note_off,51,63
1,141,Note_on,94,112
1,141,Note_off,94,63
1,141,Note_on,93,112
1,141,Note_off,93,63
1,141,Note_on,96,112
1,141,Note_off,96,63
1,141,Note_on,94,112
1,141,Note_on,46,112
1,141,Note_on,49,112
1,141,Note_off,94,63
1,141,Note_off,46,63
1,141,Note_off,49,63
1,141,Note_on,89,112
1,141,Note_off,89,63
1,141,Note_on,85,112
1,142,Note_off,85,63
1,142,Note_on,82,112
1,142,Note_off,82,63
1,142,Note_on,90,112
1,142,Note_on,45,112
1,142,Note_on,48,112
1,142,Note_off,90,63
1,142,Note_off,45,63
1,142,Note_off,48,63
1,142,Note_on,89,112
1,142,Note_off,89,63
1,142,Note_on,87,112
1,142,Note_off,87,63
1,142,Note_on,85,112
1,142,Note_off,85,63
1,142,Note_on,84,112
1,142,Note_on,41,112
1,142,Note_on,53,112
1,142,Note_off,84,63
1,142,Note_on,82,112
1,142,Note_off,82,63
1,142,Note_on,81,112
1,142,Note_off,81,63
1,142,Note_on,84,112
1,142,Note_off,41,63
1,142,Note_off,53,63
1,142,Note_off,84,63
1,142,Note_on,82,112
1,142,Note_on,46,112
1,142,Note_on,58,112
1,143,Note_off,82,63
1,143,Note_off,46,63
1,143,Note_off,58,63
1,143,Note_on,82,112
1,143,Note_on,85,112
1,143,Note_on,94,112
1,143,Note_on,34,112
1,143,Note_on,46,112
1,143,Note_off,82,63
1,143,Note_off,85,63
1,143,Note_off,94,63
1,143,Note_off,34,63
1,143,Note_off,46,63
