track,time,event,note,velocity
1,0,Note_on,72,112
1,0,Note_off,72,63
1,0,Note_on,77,112
1,0,Note_off,77,63
1,0,Note_on,77,112
1,0,Note_off,77,63
1,0,Note_on,77,112
1,0,Note_off,77,63
1,0,Note_on,72,112
1,0,Note_off,72,63
1,0,Note_on,72,112
1,0,Note_off,72,63
1,0,Note_on,72,112
1,0,Note_off,72,63
1,0,Note_on,75,112
1,0,Note_off,75,63
1,0,Note_on,75,112
1,0,Note_off,75,63
1,0,Note_on,77,112
1,0,Note_off,77,63
1,0,Note_on,80,112
1,0,Note_off,80,63
1,0,Note_on,80,112
1,0,Note_off,80,63
1,0,Note_on,80,112
1,0,Note_off,80,63
1,0,Note_on,80,112
1,0,Note_off,80,63
1,0,Note_on,72,112
1,0,Note_off,72,63
1,0,Note_on,72,112
1,0,Note_off,72,63
1,0,Note_on,75,112
1,0,Note_off,75,63
1,0,Note_on,75,112
1,0,Note_off,75,63
1,0,Note_on,77,112
1,0,Note_off,77,63
1,0,Note_on,65,112
1,0,Note_off,65,63
1,0,Note_on,65,112
1,0,Note_off,65,63
1,0,Note_on,77,112
1,0,Note_off,77,63
1,0,Note_on,77,112
1,0,Note_off,77,63
1,0,Note_on,77,112
1,0,Note_off,77,63
1,0,Note_on,79,112
1,0,Note_off,79,63
1,0,Note_on,75,112
1,0,Note_off,75,63
1,0,Note_on,75,112
1,0,Note_off,75,63
1,0,Note_on,75,112
1,0,Note_off,75,63
1,0,Note_on,75,112
1,0,Note_off,75,63
1,0,Note_on,77,112
1,0,Note_off,77,63
1,0,Note_on,75,112
1,0,Note_off,75,63
1,0,Note_on,75,112
1,0,Note_off,75,63
1,0,Note_on,75,112
1,0,Note_off,75,63
1,0,Note_on,75,112
1,0,Note_off,75,63
1,0,Note_on,75,112
1,0,Note_off,75,63
1,0,Note_on,74,112
1,0,Note_off,74,63
1,0,Note_on,72,112
1,0,Note_off,72,63
1,0,Note_on,70,112
1,0,Note_off,70,63
1,0,Note_on,68,112
1,0,Note_off,68,63
1,0,Note_on,70,112
1,0,Note_off,70,63
1,0,Note_on,68,112
1,0,Note_off,68,63
1,0,Note_on,72,112
1,0,Note_off,72,63
1,0,Note_on,70,112
1,0,Note_off,70,63
1,0,Note_on,68,112
1,1,Note_off,68,63
1,1,Note_on,65,112
1,1,Note_off,65,63
1,1,Note_on,72,112
1,1,Note_off,72,63
1,1,Note_on,72,112
1,1,Note_off,72,63
1,1,Note_on,75,112
1,1,Note_off,75,63
1,1,Note_on,77,112
1,1,Note_off,77,63
1,1,Note_on,77,112
1,1,Note_off,77,63
1,1,Note_on,77,112
1,1,Note_off,77,63
1,1,Note_on,77,112
1,1,Note_off,77,63
1,1,Note_on,77,112
1,1,Note_off,77,63
1,1,Note_on,77,112
1,1,Note_off,77,63
1,1,Note_on,77,112
1,1,Note_off,77,63
1,1,Note_on,77,112
1,1,Note_off,77,63
1,1,Note_on,77,112
1,1,Note_off,77,63
1,1,Note_on,75,112
1,1,Note_off,75,63
1,1,Note_on,77,112
1,1,Note_off,77,63
1,1,Note_on,77,112
1,1,Note_off,77,63
1,1,Note_on,77,112
1,1,Note_off,77,63
1,1,Note_on,75,112
1,1,Note_off,75,63
1,1,Note_on,77,112
1,1,Note_off,77,63
1,1,Note_on,72,112
1,1,Note_off,72,63
1,1,Note_on,72,112
1,1,Note_off,72,63
1,1,Note_on,75,112
1,1,Note_off,75,63
1,1,Note_on,77,112
1,1,Note_off,77,63
1,1,Note_on,77,112
1,1,Note_off,77,63
1,1,Note_on,77,112
1,1,Note_off,77,63
1,1,Note_on,77,112
1,1,Note_off,77,63
1,1,Note_on,77,112
1,1,Note_off,77,63
1,1,Note_on,77,112
1,1,Note_off,77,63
1,1,Note_on,75,112
1,1,Note_off,75,63
1,1,Note_on,75,112
1,1,Note_off,75,63
1,1,Note_on,72,112
1,1,Note_off,72,63
1,1,Note_on,72,112
1,1,Note_off,72,63
1,1,Note_on,77,112
1,1,Note_off,77,63
1,1,Note_on,75,112
1,1,Note_off,75,63
1,1,Note_on,77,112
1,1,Note_off,77,63
1,1,Note_on,77,112
1,1,Note_off,77,63
1,1,Note_on,75,112
1,1,Note_off,75,63
1,1,Note_on,77,112
1,1,Note_off,77,63
1,1,Note_on,72,112
1,1,Note_off,72,63
1,1,Note_on,72,112
1,1,Note_off,72,63
1,1,Note_on,75,112
1,1,Note_off,75,63
1,1,Note_on,77,112
1,1,Note_off,77,63
1,1,Note_on,77,112
1,1,Note_off,77,63
1,1,Note_on,84,112
1,1,Note_off,84,63
1,1,Note_on,82,112
1,1,Note_off,82,63
1,1,Note_on,82,112
1,1,Note_off,82,63
1,1,Note_on,80,112
1,1,Note_off,80,63
1,1,Note_on,77,112
1,1,Note_off,77,63
1,1,Note_on,80,112
1,1,Note_off,80,63
1,1,Note_on,77,112
1,1,Note_off,77,63
1,1,Note_on,77,112
1,1,Note_off,77,63
1,1,Note_on,75,112
1,1,Note_off,75,63
1,1,Note_on,77,112
1,1,Note_off,77,63
1,1,Note_on,77,112
1,1,Note_off,77,63
1,1,Note_on,77,112
1,1,Note_off,77,63
1,1,Note_on,77,112
1,1,Note_off,77,63
1,1,Note_on,75,112
1,1,Note_off,75,63
1,1,Note_on,77,112
1,1,Note_off,77,63
1,1,Note_on,72,112
1,1,Note_off,72,63
1,1,Note_on,72,112
1,1,Note_off,72,63
1,1,Note_on,75,112
1,1,Note_off,75,63
1,1,Note_on,77,112
1,1,Note_off,77,63
1,1,Note_on,77,112
1,1,Note_off,77,63
1,1,Note_on,77,112
1,1,Note_off,77,63
1,1,Note_on,77,112
1,1,Note_off,77,63
1,1,Note_on,77,112
1,1,Note_off,77,63
1,1,Note_on,77,112
1,1,Note_off,77,63
1,1,Note_on,75,112
1,1,Note_off,75,63
1,1,Note_on,75,112
1,1,Note_off,75,63
1,1,Note_on,72,112
1,1,Note_off,72,63
1,1,Note_on,72,112
1,1,Note_off,72,63
1,1,Note_on,77,112
1,1,Note_off,77,63
1,1,Note_on,77,112
1,1,Note_off,77,63
1,1,Note_on,75,112
1,1,Note_off,75,63
1,1,Note_on,77,112
1,1,Note_off,77,63
1,1,Note_on,75,112
1,1,Note_off,75,63
1,1,Note_on,77,112
1,1,Note_off,77,63
1,1,Note_on,80,112
1,1,Note_off,80,63
1,1,Note_on,80,112
1,1,Note_off,80,63
1,1,Note_on,80,112
1,1,Note_off,80,63
1,1,Note_on,80,112
1,1,Note_off,80,63
1,1,Note_on,72,112
1,1,Note_off,72,63
1,1,Note_on,72,112
1,1,Note_off,72,63
1,1,Note_on,75,112
1,1,Note_off,75,63
1,1,Note_on,75,112
1,1,Note_off,75,63
1,1,Note_on,77,112
1,1,Note_off,77,63
1,1,Note_on,65,112
1,1,Note_off,65,63
1,1,Note_on,77,112
1,1,Note_off,77,63
1,1,Note_on,80,112
1,1,Note_off,80,63
1,1,Note_on,80,112
1,1,Note_off,80,63
1,1,Note_on,80,112
1,1,Note_off,80,63
1,1,Note_on,80,112
1,1,Note_off,80,63
1,1,Note_on,72,112
1,1,Note_off,72,63
1,1,Note_on,72,112
1,1,Note_off,72,63
1,1,Note_on,75,112
1,1,Note_off,75,63
1,1,Note_on,75,112
1,1,Note_off,75,63
1,1,Note_on,77,112
1,1,Note_off,77,63
1,1,Note_on,65,112
1,1,Note_off,65,63
1,1,Note_on,72,112
1,1,Note_off,72,63
1,1,Note_on,77,112
1,1,Note_off,77,63
1,1,Note_on,77,112
1,1,Note_off,77,63
1,1,Note_on,77,112
1,1,Note_off,77,63
1,1,Note_on,77,112
1,1,Note_off,77,63
1,1,Note_on,79,112
1,1,Note_off,79,63
1,1,Note_on,75,112
1,1,Note_off,75,63
1,1,Note_on,75,112
1,1,Note_off,75,63
1,1,Note_on,75,112
1,1,Note_off,75,63
1,1,Note_on,75,112
1,1,Note_off,75,63
1,1,Note_on,77,112
1,1,Note_off,77,63
1,1,Note_on,65,112
1,1,Note_off,65,63
1,1,Note_on,65,112
1,1,Note_off,65,63
1,1,Note_on,65,112
1,1,Note_off,65,63
1,1,Note_on,68,112
1,1,Note_off,68,63
1,1,Note_on,72,112
1,1,Note_off,72,63
1,1,Note_on,77,112
1,1,Note_off,77,63
1,1,Note_on,77,112
1,1,Note_off,77,63
1,1,Note_on,77,112
1,1,Note_off,77,63
1,1,Note_on,79,112
1,1,Note_off,79,63
1,1,Note_on,75,112
1,1,Note_off,75,63
1,1,Note_on,72,112
1,1,Note_off,72,63
1,1,Note_on,77,112
1,2,Note_off,77,63
1,2,Note_on,77,112
1,2,Note_off,77,63
1,2,Note_on,72,112
1,2,Note_off,72,63
1,2,Note_on,72,112
1,2,Note_off,72,63
1,2,Note_on,75,112
1,2,Note_off,75,63
1,2,Note_on,77,112
1,2,Note_off,77,63
1,2,Note_on,77,112
1,2,Note_off,77,63
1,2,Note_on,77,112
1,2,Note_off,77,63
1,2,Note_on,77,112
1,2,Note_off,77,63
1,2,Note_on,77,112
1,2,Note_off,77,63
1,2,Note_on,77,112
1,2,Note_off,77,63
1,2,Note_on,77,112
1,2,Note_off,77,63
1,2,Note_on,77,112
1,2,Note_off,77,63
1,2,Note_on,77,112
1,2,Note_off,77,63
1,2,Note_on,75,112
1,2,Note_off,75,63
1,2,Note_on,77,112
1,2,Note_off,77,63
1,2,Note_on,77,112
1,2,Note_off,77,63
1,2,Note_on,77,112
1,2,Note_off,77,63
1,2,Note_on,75,112
1,2,Note_off,75,63
1,2,Note_on,77,112
1,2,Note_off,77,63
1,2,Note_on,72,112
1,2,Note_off,72,63
1,2,Note_on,72,112
1,2,Note_off,72,63
1,2,Note_on,75,112
1,2,Note_off,75,63
1,2,Note_on,77,112
1,2,Note_off,77,63
1,2,Note_on,77,112
1,2,Note_off,77,63
1,2,Note_on,77,112
1,2,Note_off,77,63
1,2,Note_on,77,112
1,2,Note_off,77,63
1,2,Note_on,77,112
1,2,Note_off,77,63
1,2,Note_on,77,112
1,2,Note_off,77,63
1,2,Note_on,75,112
1,2,Note_off,75,63
1,2,Note_on,75,112
1,2,Note_off,75,63
1,2,Note_on,72,112
1,2,Note_off,72,63
1,2,Note_on,72,112
1,2,Note_off,72,63
1,2,Note_on,77,112
1,2,Note_off,77,63
1,2,Note_on,75,112
1,2,Note_off,75,63
1,2,Note_on,77,112
1,2,Note_off,77,63
1,2,Note_on,77,112
1,2,Note_off,77,63
1,2,Note_on,75,112
1,2,Note_off,75,63
1,2,Note_on,77,112
1,2,Note_off,77,63
1,2,Note_on,72,112
1,2,Note_off,72,63
1,2,Note_on,72,112
1,2,Note_off,72,63
1,2,Note_on,75,112
1,2,Note_off,75,63
1,2,Note_on,77,112
1,2,Note_off,77,63
1,2,Note_on,77,112
1,2,Note_off,77,63
1,2,Note_on,84,112
1,2,Note_off,84,63
1,2,Note_on,82,112
1,2,Note_off,82,63
1,2,Note_on,82,112
1,2,Note_off,82,63
1,2,Note_on,80,112
1,2,Note_off,80,63
1,2,Note_on,77,112
1,2,Note_off,77,63
1,2,Note_on,80,112
1,2,Note_off,80,63
1,2,Note_on,77,112
1,2,Note_off,77,63
1,2,Note_on,77,112
1,2,Note_off,77,63
1,2,Note_on,75,112
1,2,Note_off,75,63
1,2,Note_on,77,112
1,2,Note_off,77,63
1,2,Note_on,77,112
1,2,Note_off,77,63
1,2,Note_on,77,112
1,2,Note_off,77,63
1,2,Note_on,77,112
1,2,Note_off,77,63
1,2,Note_on,75,112
1,2,Note_off,75,63
1,2,Note_on,77,112
1,2,Note_off,77,63
1,2,Note_on,72,112
1,2,Note_off,72,63
1,2,Note_on,72,112
1,2,Note_off,72,63
1,2,Note_on,75,112
1,2,Note_off,75,63
1,2,Note_on,77,112
1,2,Note_off,77,63
1,2,Note_on,77,112
1,2,Note_off,77,63
1,2,Note_on,77,112
1,2,Note_off,77,63
1,2,Note_on,77,112
1,2,Note_off,77,63
1,2,Note_on,77,112
1,2,Note_off,77,63
1,2,Note_on,77,112
1,2,Note_off,77,63
1,2,Note_on,75,112
1,2,Note_off,75,63
1,2,Note_on,75,112
1,2,Note_off,75,63
1,2,Note_on,72,112
1,2,Note_off,72,63
1,2,Note_on,72,112
1,2,Note_off,72,63
1,2,Note_on,77,112
1,2,Note_off,77,63
1,2,Note_on,77,112
1,2,Note_off,77,63
1,2,Note_on,75,112
1,2,Note_off,75,63
1,2,Note_on,77,112
1,2,Note_off,77,63
1,2,Note_on,75,112
1,2,Note_off,75,63
1,2,Note_on,77,112
1,2,Note_off,77,63
1,2,Note_on,72,112
1,2,Note_off,72,63
1,2,Note_on,72,112
1,2,Note_off,72,63
1,2,Note_on,63,112
1,2,Note_off,63,63
1,2,Note_on,65,112
1,2,Note_off,65,63
1,2,Note_on,65,112
1,2,Note_off,65,63
1,2,Note_on,63,112
1,2,Note_off,63,63
1,2,Note_on,65,112
1,2,Note_off,65,63
1,2,Note_on,65,112
1,2,Note_off,65,63
1,2,Note_on,72,112
1,2,Note_off,72,63
1,2,Note_on,72,112
1,2,Note_off,72,63
1,2,Note_on,63,112
1,2,Note_off,63,63
1,2,Note_on,65,112
1,2,Note_off,65,63
1,2,Note_on,65,112
1,2,Note_off,65,63
1,2,Note_on,60,112
1,2,Note_off,60,63
1,2,Note_on,63,112
1,2,Note_off,63,63
1,2,Note_on,63,112
1,2,Note_off,63,63
1,2,Note_on,65,112
1,2,Note_off,65,63
1,2,Note_on,68,112
1,2,Note_off,68,63
1,2,Note_on,72,112
1,2,Note_off,72,63
1,2,Note_on,72,112
1,2,Note_off,72,63
1,2,Note_on,63,112
1,2,Note_off,63,63
1,2,Note_on,65,112
1,2,Note_off,65,63
1,2,Note_on,65,112
1,2,Note_off,65,63
1,2,Note_on,63,112
1,2,Note_off,63,63
1,2,Note_on,65,112
1,2,Note_off,65,63
1,2,Note_on,65,112
1,2,Note_off,65,63
1,2,Note_on,72,112
1,2,Note_off,72,63
1,2,Note_on,72,112
1,2,Note_off,72,63
1,2,Note_on,63,112
1,2,Note_off,63,63
1,2,Note_on,65,112
1,2,Note_off,65,63
1,2,Note_on,65,112
1,2,Note_off,65,63
1,2,Note_on,60,112
1,2,Note_off,60,63
1,2,Note_on,60,112
1,3,Note_off,60,63
1,3,Note_on,63,112
1,3,Note_off,63,63
1,3,Note_on,65,112
1,3,Note_off,65,63
1,3,Note_on,65,112
1,3,Note_off,65,63
1,3,Note_on,63,112
1,3,Note_off,63,63
1,3,Note_on,65,112
1,3,Note_off,65,63
1,3,Note_on,65,112
1,3,Note_off,65,63
1,3,Note_on,63,112
1,3,Note_off,63,63
1,3,Note_on,65,112
1,3,Note_off,65,63
1,3,Note_on,65,112
1,3,Note_off,65,63
1,3,Note_on,60,112
1,3,Note_off,60,63
1,3,Note_on,63,112
1,3,Note_off,63,63
1,3,Note_on,63,112
1,3,Note_off,63,63
1,3,Note_on,65,112
1,3,Note_off,65,63
1,3,Note_on,68,112
1,3,Note_off,68,63
1,3,Note_on,63,112
1,3,Note_off,63,63
1,3,Note_on,65,112
1,3,Note_off,65,63
1,3,Note_on,65,112
1,3,Note_off,65,63
1,3,Note_on,63,112
1,3,Note_off,63,63
1,3,Note_on,65,112
1,3,Note_off,65,63
1,3,Note_on,65,112
1,3,Note_off,65,63
1,3,Note_on,63,112
1,3,Note_off,63,63
1,3,Note_on,65,112
1,3,Note_off,65,63
1,3,Note_on,65,112
1,3,Note_off,65,63
1,3,Note_on,60,112
1,3,Note_off,60,63
1,3,Note_on,60,112
1,3,Note_off,60,63
1,3,Note_on,72,112
1,3,Note_off,72,63
1,3,Note_on,72,112
1,3,Note_off,72,63
1,3,Note_on,75,112
1,3,Note_off,75,63
1,3,Note_on,77,112
1,3,Note_off,77,63
1,3,Note_on,77,112
1,3,Note_off,77,63
1,3,Note_on,77,112
1,3,Note_off,77,63
1,3,Note_on,77,112
1,3,Note_off,77,63
1,3,Note_on,77,112
1,3,Note_off,77,63
1,3,Note_on,77,112
1,3,Note_off,77,63
1,3,Note_on,77,112
1,3,Note_off,77,63
1,3,Note_on,77,112
1,3,Note_off,77,63
1,3,Note_on,77,112
1,3,Note_off,77,63
1,3,Note_on,75,112
1,3,Note_off,75,63
1,3,Note_on,77,112
1,3,Note_off,77,63
1,3,Note_on,77,112
1,3,Note_off,77,63
1,3,Note_on,77,112
1,3,Note_off,77,63
1,3,Note_on,75,112
1,3,Note_off,75,63
1,3,Note_on,77,112
1,3,Note_off,77,63
1,3,Note_on,72,112
1,3,Note_off,72,63
1,3,Note_on,72,112
1,3,Note_off,72,63
1,3,Note_on,75,112
1,3,Note_off,75,63
1,3,Note_on,77,112
1,3,Note_off,77,63
1,3,Note_on,77,112
1,3,Note_off,77,63
1,3,Note_on,77,112
1,3,Note_off,77,63
1,3,Note_on,77,112
1,3,Note_off,77,63
1,3,Note_on,77,112
1,3,Note_off,77,63
1,3,Note_on,77,112
1,3,Note_off,77,63
1,3,Note_on,75,112
1,3,Note_off,75,63
1,3,Note_on,75,112
1,3,Note_off,75,63
1,3,Note_on,72,112
1,3,Note_off,72,63
1,3,Note_on,72,112
1,3,Note_off,72,63
1,3,Note_on,77,112
1,3,Note_off,77,63
1,3,Note_on,75,112
1,3,Note_off,75,63
1,3,Note_on,77,112
1,3,Note_off,77,63
1,3,Note_on,77,112
1,3,Note_off,77,63
1,3,Note_on,75,112
1,3,Note_off,75,63
1,3,Note_on,77,112
1,3,Note_off,77,63
1,3,Note_on,72,112
1,3,Note_off,72,63
1,3,Note_on,72,112
1,3,Note_off,72,63
1,3,Note_on,75,112
1,3,Note_off,75,63
1,3,Note_on,77,112
1,3,Note_off,77,63
1,3,Note_on,77,112
1,3,Note_off,77,63
1,3,Note_on,84,112
1,3,Note_off,84,63
1,3,Note_on,82,112
1,3,Note_off,82,63
1,3,Note_on,82,112
1,3,Note_off,82,63
1,3,Note_on,80,112
1,3,Note_off,80,63
1,3,Note_on,77,112
1,3,Note_off,77,63
1,3,Note_on,80,112
1,3,Note_off,80,63
1,3,Note_on,77,112
1,3,Note_off,77,63
1,3,Note_on,77,112
1,3,Note_off,77,63
1,3,Note_on,75,112
1,3,Note_off,75,63
1,3,Note_on,77,112
1,3,Note_off,77,63
1,3,Note_on,77,112
1,3,Note_off,77,63
1,3,Note_on,77,112
1,3,Note_off,77,63
1,3,Note_on,77,112
1,3,Note_off,77,63
1,3,Note_on,75,112
1,3,Note_off,75,63
1,3,Note_on,77,112
1,3,Note_off,77,63
1,3,Note_on,72,112
1,3,Note_off,72,63
1,3,Note_on,72,112
1,3,Note_off,72,63
1,3,Note_on,75,112
1,3,Note_off,75,63
1,3,Note_on,77,112
1,3,Note_off,77,63
1,3,Note_on,77,112
1,3,Note_off,77,63
1,3,Note_on,77,112
1,3,Note_off,77,63
1,3,Note_on,77,112
1,3,Note_off,77,63
1,3,Note_on,77,112
1,3,Note_off,77,63
1,3,Note_on,77,112
1,3,Note_off,77,63
1,3,Note_on,75,112
1,3,Note_off,75,63
1,3,Note_on,75,112
1,3,Note_off,75,63
1,3,Note_on,72,112
1,3,Note_off,72,63
1,3,Note_on,72,112
1,3,Note_off,72,63
1,3,Note_on,77,112
1,3,Note_off,77,63
1,3,Note_on,77,112
1,3,Note_off,77,63
1,3,Note_on,75,112
1,3,Note_off,75,63
1,3,Note_on,77,112
1,3,Note_off,77,63
1,3,Note_on,75,112
1,3,Note_off,75,63
1,3,Note_on,77,112
1,3,Note_off,77,63
1,3,Note_on,72,112
1,3,Note_off,72,63
1,3,Note_on,72,112
1,3,Note_off,72,63
1,3,Note_on,75,112
1,3,Note_off,75,63
1,3,Note_on,77,112
1,3,Note_off,77,63
1,3,Note_on,77,112
1,3,Note_off,77,63
1,3,Note_on,77,112
1,3,Note_off,77,63
1,3,Note_on,77,112
1,3,Note_off,77,63
1,3,Note_on,77,112
1,3,Note_off,77,63
1,3,Note_on,77,112
1,3,Note_off,77,63
1,3,Note_on,77,112
1,3,Note_off,77,63
1,3,Note_on,77,112
1,3,Note_off,77,63
1,3,Note_on,77,112
1,3,Note_off,77,63
1,3,Note_on,75,112
1,3,Note_off,75,63
1,3,Note_on,77,112
1,4,Note_off,77,63
1,4,Note_on,77,112
1,4,Note_off,77,63
1,4,Note_on,77,112
1,4,Note_off,77,63
1,4,Note_on,75,112
1,4,Note_off,75,63
1,4,Note_on,77,112
1,4,Note_off,77,63
1,4,Note_on,72,112
1,4,Note_off,72,63
1,4,Note_on,72,112
1,4,Note_off,72,63
1,4,Note_on,75,112
1,4,Note_off,75,63
1,4,Note_on,77,112
1,4,Note_off,77,63
1,4,Note_on,77,112
1,4,Note_off,77,63
1,4,Note_on,77,112
1,4,Note_off,77,63
1,4,Note_on,77,112
1,4,Note_off,77,63
1,4,Note_on,77,112
1,4,Note_off,77,63
1,4,Note_on,77,112
1,4,Note_off,77,63
1,4,Note_on,75,112
1,4,Note_off,75,63
1,4,Note_on,75,112
1,4,Note_off,75,63
1,4,Note_on,72,112
1,4,Note_off,72,63
1,4,Note_on,72,112
1,4,Note_off,72,63
1,4,Note_on,77,112
1,4,Note_off,77,63
1,4,Note_on,75,112
1,4,Note_off,75,63
1,4,Note_on,77,112
1,4,Note_off,77,63
1,4,Note_on,77,112
1,4,Note_off,77,63
1,4,Note_on,75,112
1,4,Note_off,75,63
1,4,Note_on,77,112
1,4,Note_off,77,63
1,4,Note_on,72,112
1,4,Note_off,72,63
1,4,Note_on,72,112
1,4,Note_off,72,63
1,4,Note_on,75,112
1,4,Note_off,75,63
1,4,Note_on,77,112
1,4,Note_off,77,63
1,4,Note_on,77,112
1,4,Note_off,77,63
1,4,Note_on,84,112
1,4,Note_off,84,63
1,4,Note_on,82,112
1,4,Note_off,82,63
1,4,Note_on,82,112
1,4,Note_off,82,63
1,4,Note_on,80,112
1,4,Note_off,80,63
1,4,Note_on,77,112
1,4,Note_off,77,63
1,4,Note_on,80,112
1,4,Note_off,80,63
1,4,Note_on,77,112
1,4,Note_off,77,63
1,4,Note_on,77,112
1,4,Note_off,77,63
1,4,Note_on,75,112
1,4,Note_off,75,63
1,4,Note_on,77,112
1,4,Note_off,77,63
1,4,Note_on,77,112
1,4,Note_off,77,63
1,4,Note_on,77,112
1,4,Note_off,77,63
1,4,Note_on,77,112
1,4,Note_off,77,63
1,4,Note_on,75,112
1,4,Note_off,75,63
1,4,Note_on,77,112
1,4,Note_off,77,63
1,4,Note_on,72,112
1,4,Note_off,72,63
1,4,Note_on,72,112
1,4,Note_off,72,63
1,4,Note_on,75,112
1,4,Note_off,75,63
1,4,Note_on,77,112
1,4,Note_off,77,63
1,4,Note_on,77,112
1,4,Note_off,77,63
1,4,Note_on,77,112
1,4,Note_off,77,63
1,4,Note_on,77,112
1,4,Note_off,77,63
1,4,Note_on,77,112
1,4,Note_off,77,63
1,4,Note_on,77,112
1,4,Note_off,77,63
1,4,Note_on,75,112
1,4,Note_off,75,63
1,4,Note_on,75,112
1,4,Note_off,75,63
1,4,Note_on,72,112
1,4,Note_off,72,63
1,4,Note_on,72,112
1,4,Note_off,72,63
1,4,Note_on,77,112
1,4,Note_off,77,63
1,4,Note_on,77,112
1,4,Note_off,77,63
1,4,Note_on,75,112
1,4,Note_off,75,63
1,4,Note_on,77,112
1,4,Note_off,77,63
1,4,Note_on,75,112
1,4,Note_off,75,63
1,4,Note_on,77,112
1,4,Note_off,77,63
1,4,Note_on,63,112
1,4,Note_off,63,63
1,4,Note_on,65,112
1,4,Note_off,65,63
1,4,Note_on,65,112
1,4,Note_off,65,63
1,4,Note_on,63,112
1,4,Note_off,63,63
1,4,Note_on,65,112
1,4,Note_off,65,63
1,4,Note_on,65,112
1,4,Note_off,65,63
1,4,Note_on,63,112
1,4,Note_off,63,63
1,4,Note_on,65,112
1,4,Note_off,65,63
1,4,Note_on,65,112
1,4,Note_off,65,63
1,4,Note_on,60,112
1,4,Note_off,60,63
1,4,Note_on,63,112
1,4,Note_off,63,63
1,4,Note_on,63,112
1,4,Note_off,63,63
1,4,Note_on,65,112
1,4,Note_off,65,63
1,4,Note_on,68,112
1,4,Note_off,68,63
1,4,Note_on,63,112
1,4,Note_off,63,63
1,4,Note_on,65,112
1,4,Note_off,65,63
1,4,Note_on,65,112
1,4,Note_off,65,63
1,4,Note_on,63,112
1,4,Note_off,63,63
1,4,Note_on,65,112
1,4,Note_off,65,63
1,4,Note_on,65,112
1,4,Note_off,65,63
1,4,Note_on,63,112
1,4,Note_off,63,63
1,4,Note_on,65,112
1,4,Note_off,65,63
1,4,Note_on,65,112
1,4,Note_off,65,63
1,4,Note_on,60,112
1,4,Note_off,60,63
1,4,Note_on,60,112
1,4,Note_off,60,63
1,4,Note_on,72,112
1,4,Note_off,72,63
1,4,Note_on,72,112
1,4,Note_off,72,63
1,4,Note_on,75,112
1,4,Note_off,75,63
1,4,Note_on,77,112
1,4,Note_off,77,63
1,4,Note_on,77,112
1,4,Note_off,77,63
1,4,Note_on,77,112
1,4,Note_off,77,63
1,4,Note_on,77,112
1,4,Note_off,77,63
1,4,Note_on,77,112
1,4,Note_off,77,63
1,4,Note_on,77,112
1,4,Note_off,77,63
1,4,Note_on,77,112
1,4,Note_off,77,63
1,4,Note_on,77,112
1,4,Note_off,77,63
1,4,Note_on,77,112
1,4,Note_off,77,63
1,4,Note_on,75,112
1,4,Note_off,75,63
1,4,Note_on,77,112
1,4,Note_off,77,63
1,4,Note_on,77,112
1,4,Note_off,77,63
1,4,Note_on,77,112
1,4,Note_off,77,63
1,4,Note_on,75,112
1,4,Note_off,75,63
1,4,Note_on,77,112
1,4,Note_off,77,63
1,4,Note_on,72,112
1,4,Note_off,72,63
1,4,Note_on,72,112
1,4,Note_off,72,63
1,4,Note_on,75,112
1,4,Note_off,75,63
1,4,Note_on,77,112
1,4,Note_off,77,63
1,4,Note_on,77,112
1,4,Note_off,77,63
1,4,Note_on,77,112
1,4,Note_off,77,63
1,4,Note_on,77,112
1,4,Note_off,77,63
1,4,Note_on,77,112
1,4,Note_off,77,63
1,4,Note_on,77,112
1,4,Note_off,77,63
1,4,Note_on,75,112
1,4,Note_off,75,63
1,4,Note_on,75,112
1,4,Note_off,75,63
1,4,Note_on,72,112
1,4,Note_off,72,63
1,4,Note_on,72,112
1,4,Note_off,72,63
1,4,Note_on,77,112
1,5,Note_off,77,63
1,5,Note_on,75,112
1,5,Note_off,75,63
1,5,Note_on,77,112
1,5,Note_off,77,63
1,5,Note_on,77,112
1,5,Note_off,77,63
1,5,Note_on,75,112
1,5,Note_off,75,63
1,5,Note_on,77,112
1,5,Note_off,77,63
1,5,Note_on,72,112
1,5,Note_off,72,63
1,5,Note_on,72,112
1,5,Note_off,72,63
1,5,Note_on,75,112
1,5,Note_off,75,63
1,5,Note_on,77,112
1,5,Note_off,77,63
1,5,Note_on,77,112
1,5,Note_off,77,63
1,5,Note_on,84,112
1,5,Note_off,84,63
1,5,Note_on,82,112
1,5,Note_off,82,63
1,5,Note_on,82,112
1,5,Note_off,82,63
1,5,Note_on,80,112
1,5,Note_off,80,63
1,5,Note_on,77,112
1,5,Note_off,77,63
1,5,Note_on,80,112
1,5,Note_off,80,63
1,5,Note_on,77,112
1,5,Note_off,77,63
1,5,Note_on,77,112
1,5,Note_off,77,63
1,5,Note_on,75,112
1,5,Note_off,75,63
1,5,Note_on,77,112
1,5,Note_off,77,63
1,5,Note_on,77,112
1,5,Note_off,77,63
1,5,Note_on,77,112
1,5,Note_off,77,63
1,5,Note_on,77,112
1,5,Note_off,77,63
1,5,Note_on,75,112
1,5,Note_off,75,63
1,5,Note_on,77,112
1,5,Note_off,77,63
1,5,Note_on,72,112
1,5,Note_off,72,63
1,5,Note_on,72,112
1,5,Note_off,72,63
1,5,Note_on,75,112
1,5,Note_off,75,63
1,5,Note_on,77,112
1,5,Note_off,77,63
1,5,Note_on,77,112
1,5,Note_off,77,63
1,5,Note_on,77,112
1,5,Note_off,77,63
1,5,Note_on,77,112
1,5,Note_off,77,63
1,5,Note_on,77,112
1,5,Note_off,77,63
1,5,Note_on,77,112
1,5,Note_off,77,63
1,5,Note_on,75,112
1,5,Note_off,75,63
1,5,Note_on,75,112
1,5,Note_off,75,63
1,5,Note_on,72,112
1,5,Note_off,72,63
1,5,Note_on,72,112
1,5,Note_off,72,63
1,5,Note_on,77,112
1,5,Note_off,77,63
1,5,Note_on,77,112
1,5,Note_off,77,63
1,5,Note_on,75,112
1,5,Note_off,75,63
1,5,Note_on,77,112
1,5,Note_off,77,63
1,5,Note_on,75,112
1,5,Note_off,75,63
1,5,Note_on,77,112
1,5,Note_off,77,63
1,5,Note_on,72,112
1,5,Note_off,72,63
1,5,Note_on,72,112
1,5,Note_off,72,63
1,5,Note_on,75,112
1,5,Note_off,75,63
1,5,Note_on,77,112
1,5,Note_off,77,63
1,5,Note_on,77,112
1,5,Note_off,77,63
1,5,Note_on,77,112
1,5,Note_off,77,63
1,5,Note_on,77,112
1,5,Note_off,77,63
1,5,Note_on,77,112
1,5,Note_off,77,63
1,5,Note_on,77,112
1,5,Note_off,77,63
1,5,Note_on,77,112
1,5,Note_off,77,63
1,5,Note_on,77,112
1,5,Note_off,77,63
1,5,Note_on,77,112
1,5,Note_off,77,63
1,5,Note_on,75,112
1,5,Note_off,75,63
1,5,Note_on,77,112
1,5,Note_off,77,63
1,5,Note_on,77,112
1,5,Note_off,77,63
1,5,Note_on,77,112
1,5,Note_off,77,63
1,5,Note_on,75,112
1,5,Note_off,75,63
1,5,Note_on,77,112
1,5,Note_off,77,63
1,5,Note_on,72,112
1,5,Note_off,72,63
1,5,Note_on,72,112
1,5,Note_off,72,63
1,5,Note_on,75,112
1,5,Note_off,75,63
1,5,Note_on,77,112
1,5,Note_off,77,63
1,5,Note_on,77,112
1,5,Note_off,77,63
1,5,Note_on,77,112
1,5,Note_off,77,63
1,5,Note_on,77,112
1,5,Note_off,77,63
1,5,Note_on,77,112
1,5,Note_off,77,63
1,5,Note_on,77,112
1,5,Note_off,77,63
1,5,Note_on,75,112
1,5,Note_off,75,63
1,5,Note_on,75,112
1,5,Note_off,75,63
1,5,Note_on,72,112
1,5,Note_off,72,63
1,5,Note_on,72,112
1,5,Note_off,72,63
1,5,Note_on,77,112
1,5,Note_off,77,63
1,5,Note_on,75,112
1,5,Note_off,75,63
1,5,Note_on,77,112
1,5,Note_off,77,63
1,5,Note_on,77,112
1,5,Note_off,77,63
1,5,Note_on,75,112
1,5,Note_off,75,63
1,5,Note_on,77,112
1,5,Note_off,77,63
1,5,Note_on,72,112
1,5,Note_off,72,63
1,5,Note_on,72,112
1,5,Note_off,72,63
1,5,Note_on,75,112
1,5,Note_off,75,63
1,5,Note_on,77,112
1,5,Note_off,77,63
1,5,Note_on,77,112
1,5,Note_off,77,63
1,5,Note_on,84,112
1,5,Note_off,84,63
1,5,Note_on,82,112
1,5,Note_off,82,63
1,5,Note_on,82,112
1,5,Note_off,82,63
1,5,Note_on,80,112
1,5,Note_off,80,63
1,5,Note_on,77,112
1,5,Note_off,77,63
1,5,Note_on,80,112
1,5,Note_off,80,63
1,5,Note_on,77,112
1,5,Note_off,77,63
1,5,Note_on,77,112
1,5,Note_off,77,63
1,5,Note_on,75,112
1,5,Note_off,75,63
1,5,Note_on,77,112
1,5,Note_off,77,63
1,5,Note_on,77,112
1,5,Note_off,77,63
1,5,Note_on,77,112
1,5,Note_off,77,63
1,5,Note_on,77,112
1,5,Note_off,77,63
1,5,Note_on,75,112
1,5,Note_off,75,63
1,5,Note_on,77,112
1,5,Note_off,77,63
1,5,Note_on,72,112
1,5,Note_off,72,63
1,5,Note_on,72,112
1,5,Note_off,72,63
1,5,Note_on,75,112
1,5,Note_off,75,63
1,5,Note_on,77,112
1,5,Note_off,77,63
1,5,Note_on,77,112
1,5,Note_off,77,63
1,5,Note_on,77,112
1,5,Note_off,77,63
1,5,Note_on,77,112
1,5,Note_off,77,63
1,5,Note_on,77,112
1,5,Note_off,77,63
1,5,Note_on,77,112
1,5,Note_off,77,63
1,5,Note_on,75,112
1,5,Note_off,75,63
1,5,Note_on,75,112
1,5,Note_off,75,63
1,5,Note_on,72,112
1,5,Note_off,72,63
1,5,Note_on,72,112
1,5,Note_off,72,63
1,5,Note_on,77,112
1,5,Note_off,77,63
1,5,Note_on,77,112
1,5,Note_off,77,63
1,5,Note_on,75,112
1,5,Note_off,75,63
1,5,Note_on,77,112
1,5,Note_off,77,63
1,5,Note_on,75,112
1,5,Note_off,75,63
1,5,Note_on,77,112
1,6,Note_off,77,63
