track,start,end,event,channel,note,velocity,name
1,0,2,Note_on,1,64,77,E4
1,2,3,Note_on,1,62,64,D4
1,3,5,Note_on,1,60,70,C4
1,5,7,Note_on,1,59,60,B3
1,7,8,Note_on,1,57,63,A3
1,8,10,Note_on,1,55,56,G3
1,10,12,Note_on,1,57,70,A3
1,12,13,Note_on,1,59,60,B3
1,13,15,Note_on,1,76,80,E5
1,15,16,Note_on,1,74,80,D5
1,16,17,Note_on,1,65,80,F4
1,17,18,Note_on,1,72,80,C5
1,18,19,Note_on,1,71,80,B4
1,19,20,Note_on,1,62,80,D4
1,20,22,Note_on,1,69,80,A4
1,22,22,Note_on,1,67,80,G4
1,22,23,Note_on,1,64,80,E4
1,23,25,Note_on,1,69,82,A4
1,25,26,Note_on,1,71,80,B4
1,26,27,Note_on,1,65,80,F4
1,27,28,Note_on,1,72,80,C5
1,28,29,Note_on,1,71,80,B4
1,29,30,Note_on,1,65,80,F4
1,30,31,Note_on,1,72,80,C5
1,31,32,Note_on,1,76,80,E5
1,32,32,Note_on,1,79,80,G5
1,32,33,Note_on,1,81,80,A5
1,33,34,Note_on,1,77,80,F5
1,34,35,Note_on,1,72,80,C5
1,35,36,Note_on,1,76,80,E5
1,36,37,Note_on,1,67,80,G4
1,37,37,Note_on,1,65,80,F4
1,37,38,Note_on,1,72,80,C5
1,38,39,Note_on,1,72,72,C5
1,39,40,Note_on,1,72,69,C5
1,40,40,Note_on,1,71,64,B4
1,40,40,Note_on,1,72,80,C5
1,40,41,Note_on,1,71,80,B4
1,41,41,Note_on,1,72,80,C5
1,41,42,Note_on,1,64,80,E4
1,42,42,Note_on,1,67,80,G4
1,42,43,Note_on,1,71,80,B4
1,43,44,Note_on,1,72,80,C5
1,44,45,Note_on,1,76,80,E5
1,45,45,Note_on,1,79,80,G5
1,45,46,Note_on,1,76,80,E5
1,46,46,Note_on,1,79,80,G5
1,46,47,Note_on,1,81,80,A5
1,47,47,Note_on,1,77,80,F5
1,47,47,Note_on,1,76,80,E5
1,47,48,Note_on,1,74,80,D5
1,48,48,Note_on,1,77,80,F5
1,48,49,Note_on,1,76,80,E5
1,49,49,Note_on,1,74,80,D5
1,49,50,Note_on,1,72,80,C5
1,50,50,Note_on,1,71,80,B4
1,50,50,Note_on,1,69,80,A4
1,50,51,Note_on,1,65,80,F4
1,51,52,Note_on,1,72,80,C5
1,52,52,Note_on,1,72,80,C5
1,52,52,Note_on,1,65,80,F4
1,52,53,Note_on,1,72,80,C5
1,53,53,Note_on,1,71,80,B4
1,53,54,Note_on,1,72,80,C5
1,54,54,Note_on,1,71,79,B4
1,54,55,Note_on,1,72,77,C5
1,55,55,Note_on,1,65,80,F4
1,55,55,Note_on,1,67,80,G4
1,55,56,Note_on,1,59,80,B3
1,56,56,Note_on,1,71,80,B4
1,56,57,Note_on,1,65,80,F4
1,57,57,Note_on,1,72,80,C5
1,57,58,Note_on,1,76,80,E5
1,58,59,Note_on,1,79,80,G5
1,59,59,Note_on,1,76,80,E5
1,59,60,Note_on,1,79,80,G5
1,60,60,Note_on,1,81,95,A5
1,60,60,Note_on,1,77,80,F5
1,60,61,Note_on,1,76,80,E5
1,61,61,Note_on,1,74,80,D5
1,61,62,Note_on,1,77,80,F5
1,62,62,Note_on,1,76,80,E5
1,62,62,Note_on,1,74,80,D5
1,62,63,Note_on,1,72,80,C5
1,63,63,Note_on,1,71,80,B4
1,63,64,Note_on,1,69,80,A4
1,64,64,Note_on,1,67,80,G4
1,64,65,Note_on,1,65,74,F4
1,65,65,Note_on,1,72,73,C5
1,65,66,Note_on,1,72,80,C5
1,66,66,Note_on,1,62,62,D4
1,66,66,Note_on,1,71,80,B4
1,66,66,Note_on,1,74,68,D5
1,66,67,Note_on,1,67,80,G4
1,67,67,Note_on,1,76,80,E5
1,67,67,Note_on,1,67,70,G4
1,67,68,Note_on,1,76,80,E5
1,68,68,Note_on,1,72,85,C5
1,68,69,Note_on,1,74,82,D5
1,69,69,Note_on,1,76,80,E5
1,69,69,Note_on,1,77,93,F5
1,69,70,Note_on,1,76,89,E5
1,70,70,Note_on,1,74,86,D5
1,70,70,Note_on,1,64,83,E4
1,70,71,Note_on,1,74,90,D5
1,71,71,Note_on,1,72,89,C5
1,71,71,Note_on,1,71,89,B4
1,71,72,Note_on,1,72,85,C5
1,72,72,Note_on,1,71,95,B4
1,72,72,Note_on,1,67,87,G4
1,72,72,Note_on,1,64,86,E4
1,73,73,Note_on,1,67,80,G4
1,73,73,Note_on,1,60,83,C4
1,73,74,Note_on,1,69,91,A4
1,74,74,Note_on,1,72,92,C5
1,74,75,Note_on,1,69,82,A4
1,75,75,Note_on,1,77,97,F5
1,75,75,Note_on,1,76,94,E5
1,75,76,Note_on,1,74,90,D5
1,76,76,Note_on,1,72,80,C5
1,77,77,Note_on,1,69,80,A4
1,77,78,Note_on,1,65,80,F4
1,78,78,Note_on,1,69,85,A4
1,78,78,Note_on,1,72,90,C5
1,78,78,Note_on,1,62,80,D4
1,78,79,Note_on,1,71,100,B4
1,79,80,Note_on,1,72,85,C5
1,80,80,Note_on,1,74,80,D5
1,80,80,Note_on,1,72,80,C5
1,80,80,Note_on,1,79,86,G5
1,80,81,Note_on,1,76,83,E5
1,81,81,Note_on,1,77,89,F5
1,81,81,Note_on,1,79,79,G5
1,81,81,Note_on,1,76,82,E5
1,81,82,Note_on,1,77,87,F5
1,82,82,Note_on,1,79,68,G5
1,82,82,Note_on,1,71,71,B4
1,82,82,Note_on,1,69,75,A4
1,82,82,Note_on,1,71,78,B4
1,82,83,Note_on,1,72,81,C5
1,83,83,Note_on,1,74,84,D5
1,83,83,Note_on,1,76,87,E5
1,83,83,Note_on,1,77,91,F5
1,83,84,Note_on,1,76,78,E5
1,84,84,Note_on,1,72,74,C5
1,84,84,Note_on,1,74,79,D5
1,84,84,Note_on,1,76,77,E5
1,85,85,Note_on,1,64,80,E4
1,85,85,Note_on,1,65,90,F4
1,85,85,Note_on,1,67,100,G4
1,85,85,Note_on,1,69,81,A4
1,85,86,Note_on,1,67,95,G4
1,86,86,Note_on,1,65,82,F4
1,86,86,Note_on,1,67,100,G4
1,86,86,Note_on,1,72,82,C5
1,86,86,Note_on,1,71,94,B4
1,86,87,Note_on,1,72,84,C5
1,87,87,Note_on,1,69,87,A4
1,87,87,Note_on,1,72,81,C5
1,87,87,Note_on,1,71,77,B4
1,87,88,Note_on,1,69,86,A4
1,88,88,Note_on,1,67,76,G4
1,88,88,Note_on,1,65,71,F4
1,88,89,Note_on,1,67,69,G4
1,89,89,Note_on,1,65,73,F4
1,89,89,Note_on,1,64,77,E4
1,89,89,Note_on,1,65,81,F4
1,89,89,Note_on,1,67,93,G4
1,89,90,Note_on,1,69,86,A4
1,90,90,Note_on,1,71,89,B4
1,90,90,Note_on,1,72,93,C5
1,90,90,Note_on,1,69,86,A4
1,90,91,Note_on,1,72,84,C5
1,91,91,Note_on,1,71,72,B4
1,91,91,Note_on,1,72,91,C5
1,91,91,Note_on,1,71,79,B4
1,91,92,Note_on,1,72,74,C5
1,92,92,Note_on,1,71,69,B4
1,92,92,Note_on,1,69,74,A4
1,92,92,Note_on,1,71,79,B4
1,92,92,Note_on,1,72,84,C5
1,92,93,Note_on,1,74,93,D5
1,93,93,Note_on,1,76,88,E5
1,93,93,Note_on,1,77,93,F5
1,93,93,Note_on,1,79,99,G5
1,93,94,Note_on,1,79,120,G5
1,94,94,Note_on,1,76,91,E5
1,94,94,Note_on,1,77,83,F5
1,94,95,Note_on,1,79,100,G5
1,95,95,Note_on,1,76,91,E5
1,95,95,Note_on,1,77,82,F5
1,95,95,Note_on,1,79,111,G5
1,95,95,Note_on,1,67,80,G4
1,95,96,Note_on,1,69,84,A4
1,96,96,Note_on,1,71,88,B4
1,96,96,Note_on,1,72,110,C5
1,96,96,Note_on,1,74,97,D5
1,96,96,Note_on,1,76,101,E5
1,96,97,Note_on,1,77,105,F5
1,97,97,Note_on,1,76,123,E5
1,97,97,Note_on,1,72,94,C5
1,97,97,Note_on,1,74,86,D5
1,97,98,Note_on,1,76,110,E5
1,98,98,Note_on,1,60,93,C4
1,98,98,Note_on,1,65,88,F4
1,98,99,Note_on,1,67,100,G4
1,99,99,Note_on,1,69,100,A4
1,99,99,Note_on,1,67,110,G4
1,99,99,Note_on,1,65,95,F4
1,99,99,Note_on,1,67,91,G4
1,99,100,Note_on,1,72,115,C5
1,100,100,Note_on,1,71,91,B4
1,100,100,Note_on,1,72,110,C5
1,100,100,Note_on,1,69,110,A4
1,100,101,Note_on,1,72,97,C5
1,101,101,Note_on,1,71,80,B4
1,101,101,Note_on,1,69,89,A4
1,101,101,Note_on,1,67,78,G4
1,101,102,Note_on,1,65,72,F4
1,102,102,Note_on,1,67,90,G4
1,102,102,Note_on,1,65,75,F4
1,102,102,Note_on,1,64,79,E4
1,102,102,Note_on,1,65,83,F4
1,102,103,Note_on,1,67,101,G4
1,103,103,Note_on,1,69,91,A4
1,103,103,Note_on,1,71,95,B4
1,103,103,Note_on,1,72,99,C5
1,103,104,Note_on,1,69,114,A4
1,104,104,Note_on,1,72,100,C5
1,104,104,Note_on,1,71,90,B4
1,104,105,Note_on,1,72,105,C5
1,105,105,Note_on,1,71,88,B4
1,105,105,Note_on,1,72,80,C5
1,105,105,Note_on,1,71,96,B4
1,105,105,Note_on,1,69,76,A4
1,105,106,Note_on,1,71,73,B4
1,106,106,Note_on,1,72,70,C5
1,106,106,Note_on,1,74,74,D5
1,106,106,Note_on,1,76,64,E5
1,106,106,Note_on,1,77,60,F5
1,106,107,Note_on,1,79,57,G5
1,107,107,Note_on,1,76,68,E5
1,107,107,Note_on,1,72,72,C5
1,107,107,Note_on,1,74,64,D5
1,107,108,Note_on,1,76,90,E5
1,108,108,Note_on,1,74,80,D5
1,108,108,Note_on,1,72,63,C5
1,108,109,Note_on,1,74,88,D5
1,109,109,Note_on,1,71,66,B4
1,109,109,Note_on,1,72,72,C5
1,109,109,Note_on,1,74,78,D5
1,109,109,Note_on,1,76,88,E5
1,109,110,Note_on,1,74,76,D5
1,110,110,Note_on,1,72,72,C5
1,110,110,Note_on,1,71,68,B4
1,110,110,Note_on,1,72,100,C5
1,110,111,Note_on,1,69,80,A4
1,111,111,Note_on,1,71,66,B4
1,111,111,Note_on,1,72,95,C5
1,111,111,Note_on,1,60,65,C4
1,111,112,Note_on,1,62,72,D4
1,112,112,Note_on,1,64,85,E4
1,112,112,Note_on,1,65,73,F4
1,112,112,Note_on,1,64,78,E4
1,112,112,Note_on,1,62,82,D4
1,112,113,Note_on,1,64,87,E4
1,113,113,Note_on,1,72,100,C5
1,113,113,Note_on,1,71,80,B4
1,113,113,Note_on,1,72,95,C5
1,113,114,Note_on,1,69,95,A4
1,114,114,Note_on,1,72,80,C5
1,114,114,Note_on,1,71,70,B4
1,114,115,Note_on,1,69,95,A4
1,115,115,Note_on,1,67,83,G4
1,115,115,Note_on,1,65,70,F4
1,115,115,Note_on,1,67,90,G4
1,115,115,Note_on,1,65,80,F4
1,115,116,Note_on,1,64,70,E4
1,116,116,Note_on,1,65,75,F4
1,116,116,Note_on,1,67,90,G4
1,116,116,Note_on,1,69,81,A4
1,116,116,Note_on,1,71,77,B4
1,116,117,Note_on,1,72,74,C5
1,117,117,Note_on,1,69,95,A4
1,117,117,Note_on,1,72,80,C5
1,117,117,Note_on,1,71,71,B4
1,117,118,Note_on,1,72,95,C5
1,118,118,Note_on,1,71,80,B4
1,118,118,Note_on,1,69,67,A4
1,118,119,Note_on,1,71,74,B4
1,119,119,Note_on,1,72,71,C5
1,119,119,Note_on,1,74,76,D5
1,119,119,Note_on,1,72,82,C5
1,119,119,Note_on,1,71,85,B4
1,119,120,Note_on,1,72,81,C5
1,120,120,Note_on,1,69,76,A4
1,120,120,Note_on,1,71,72,B4
1,120,120,Note_on,1,72,80,C5
1,120,121,Note_on,1,76,59,E5
1,121,121,Note_on,1,77,66,F5
1,121,121,Note_on,1,79,72,G5
1,121,122,Note_on,1,76,55,E5
1,122,122,Note_on,1,71,60,B4
1,122,122,Note_on,1,72,69,C5
1,122,123,Note_on,1,74,78,D5
1,123,123,Note_on,1,71,58,B4
1,124,124,Note_on,1,69,64,A4
1,124,124,Note_on,1,72,70,C5
1,124,124,Note_on,1,74,76,D5
1,124,125,Note_on,1,76,82,E5
1,125,125,Note_on,1,72,58,C5
1,125,125,Note_on,1,69,80,A4
1,125,126,Note_on,1,76,85,E5
1,126,126,Note_on,1,74,65,D5
1,126,126,Note_on,1,72,70,C5
1,126,126,Note_on,1,71,53,B4
1,127,127,Note_on,1,65,80,F4
1,127,127,Note_on,1,69,85,A4
1,127,127,Note_on,1,71,65,B4
1,127,128,Note_on,1,72,74,C5
1,128,128,Note_on,1,69,60,A4
1,129,129,Note_on,1,64,80,E4
1,129,129,Note_on,1,67,85,G4
1,129,129,Note_on,1,69,75,A4
1,129,130,Note_on,1,72,76,C5
1,130,130,Note_on,1,67,60,G4
1,130,130,Note_on,1,69,63,A4
1,130,131,Note_on,1,71,69,B4
1,131,131,Note_on,1,71,75,B4
1,131,131,Note_on,1,72,81,C5
1,131,131,Note_on,1,69,59,A4
1,131,132,Note_on,1,67,60,G4
1,132,132,Note_on,1,67,66,G4
1,132,132,Note_on,1,71,71,B4
1,132,132,Note_on,1,72,75,C5
1,132,133,Note_on,1,74,80,D5
1,133,133,Note_on,1,71,61,B4
1,134,134,Note_on,1,67,76,G4
1,134,134,Note_on,1,76,79,E5
1,134,134,Note_on,1,77,83,F5
1,134,135,Note_on,1,79,76,G5
1,135,135,Note_on,1,76,66,E5
1,135,136,Note_on,1,74,71,D5
1,136,136,Note_on,1,76,77,E5
1,136,136,Note_on,1,77,83,F5
1,136,136,Note_on,1,71,80,B4
1,136,136,Note_on,1,74,77,D5
1,136,137,Note_on,1,69,74,A4
1,137,137,Note_on,1,69,77,A4
1,137,137,Note_on,1,72,80,C5
1,137,137,Note_on,1,74,83,D5
1,137,138,Note_on,1,76,85,E5
1,138,138,Note_on,1,72,77,C5
1,138,139,Note_on,1,71,77,B4
1,139,139,Note_on,1,71,74,B4
1,139,139,Note_on,1,79,76,G5
1,139,139,Note_on,1,77,77,F5
1,139,140,Note_on,1,76,78,E5
1,139,140,Note_on,1,71,80,B4
1,140,140,Note_on,1,79,81,G5
1,140,140,Note_on,1,72,83,C5
1,140,140,Note_on,1,81,83,A5
1,140,140,Note_on,1,72,84,C5
1,140,141,Note_on,1,81,85,A5
1,141,141,Note_on,1,79,86,G5
1,141,141,Note_on,1,77,87,F5
1,141,141,Note_on,1,72,90,C5
1,141,141,Note_on,1,81,89,A5
1,141,142,Note_on,1,72,90,C5
1,142,142,Note_on,1,79,91,G5
1,142,142,Note_on,1,72,93,C5
1,142,142,Note_on,1,79,94,G5
1,142,142,Note_on,1,77,95,F5
1,142,143,Note_on,1,76,96,E5
1,143,143,Note_on,1,72,97,C5
1,143,143,Note_on,1,79,98,G5
1,143,143,Note_on,1,72,99,C5
1,143,144,Note_on,1,81,100,A5
1,144,144,Note_on,1,79,101,G5
1,144,144,Note_on,1,77,103,F5
1,144,144,Note_on,1,81,104,A5
1,144,144,Note_on,1,79,105,G5
1,144,145,Note_on,1,77,106,F5
1,145,145,Note_on,1,81,107,A5
1,145,145,Note_on,1,74,108,D5
1,145,145,Note_on,1,83,109,B5
1,145,145,Note_on,1,81,110,A5
1,145,146,Note_on,1,74,111,D5
1,146,146,Note_on,1,67,113,G4
1,146,146,Note_on,1,71,114,B4
1,146,146,Note_on,1,72,115,C5
1,146,146,Note_on,1,74,116,D5
1,146,147,Note_on,1,67,117,G4
1,147,147,Note_on,1,76,112,E5
1,147,147,Note_on,1,67,111,G4
1,147,147,Note_on,1,67,90,G4
1,147,148,Note_on,1,76,113,E5
1,148,148,Note_on,1,74,106,D5
1,148,148,Note_on,1,72,98,C5
1,148,149,Note_on,1,74,115,D5
1,149,149,Note_on,1,76,96,E5
1,149,149,Note_on,1,77,113,F5
1,149,150,Note_on,1,76,109,E5
1,150,150,Note_on,1,74,104,D5
1,150,150,Note_on,1,64,100,E4
1,150,151,Note_on,1,74,119,D5
1,151,151,Note_on,1,72,115,C5
1,151,151,Note_on,1,64,97,E4
1,151,151,Note_on,1,71,103,B4
1,151,152,Note_on,1,72,108,C5
1,152,152,Note_on,1,64,86,E4
1,152,152,Note_on,1,67,89,G4
1,152,152,Note_on,1,71,92,B4
1,152,152,Note_on,1,72,95,C5
1,152,153,Note_on,1,76,106,E5
1,153,153,Note_on,1,79,101,G5
1,153,153,Note_on,1,83,105,B5
1,153,153,Note_on,1,84,110,C6
1,153,154,Note_on,1,83,118,B5
1,154,154,Note_on,1,81,110,A5
1,154,154,Note_on,1,79,107,G5
1,154,154,Note_on,1,77,104,F5
1,154,154,Note_on,1,79,111,G5
1,154,155,Note_on,1,77,98,F5
1,155,155,Note_on,1,76,94,E5
1,155,155,Note_on,1,74,91,D5
1,155,155,Note_on,1,76,99,E5
1,155,155,Note_on,1,74,85,D5
1,155,156,Note_on,1,72,81,C5
1,156,156,Note_on,1,71,78,B4
1,156,156,Note_on,1,72,89,C5
1,156,156,Note_on,1,71,72,B4
1,156,156,Note_on,1,69,68,A4
1,156,157,Note_on,1,67,65,G4
1,157,157,Note_on,1,69,76,A4
1,157,157,Note_on,1,67,63,G4
1,157,157,Note_on,1,65,66,F4
1,157,157,Note_on,1,67,69,G4
1,157,158,Note_on,1,69,78,A4
1,158,158,Note_on,1,65,75,F4
1,158,158,Note_on,1,72,78,C5
1,158,158,Note_on,1,67,80,G4
1,158,159,Note_on,1,71,94,B4
1,159,159,Note_on,1,69,87,A4
1,159,159,Note_on,1,67,90,G4
1,159,159,Note_on,1,72,92,C5
1,159,160,Note_on,1,67,99,G4
1,160,160,Note_on,1,74,102,D5
1,160,160,Note_on,1,67,104,G4
1,160,161,Note_on,1,76,116,E5
1,160,160,Note_on,1,67,100,G4
1,161,161,Note_on,1,67,90,G4
1,161,161,Note_on,1,76,103,E5
1,161,161,Note_on,1,67,90,G4
1,161,162,Note_on,1,77,113,F5
1,161,162,Note_on,1,67,96,G4
1,162,162,Note_on,1,79,114,G5
1,162,162,Note_on,1,69,100,A4
1,162,162,Note_on,1,81,118,A5
1,162,162,Note_on,1,67,96,G4
1,162,163,Note_on,1,79,105,G5
1,163,163,Note_on,1,67,96,G4
1,163,163,Note_on,1,77,93,F5
1,163,163,Note_on,1,64,78,E4
1,163,164,Note_on,1,76,100,E5
1,164,164,Note_on,1,64,78,E4
1,164,164,Note_on,1,64,76,E4
1,164,164,Note_on,1,72,94,C5
1,164,165,Note_on,1,64,81,E4
1,165,165,Note_on,1,74,100,D5
1,165,165,Note_on,1,64,90,E4
1,165,165,Note_on,1,76,110,E5
1,165,165,Note_on,1,65,90,F4
1,165,166,Note_on,1,77,115,F5
1,166,166,Note_on,1,64,90,E4
1,166,166,Note_on,1,76,107,E5
1,166,166,Note_on,1,62,86,D4
1,166,167,Note_on,1,74,97,D5
1,166,167,Note_on,1,60,84,C4
1,167,167,Note_on,1,69,80,A4
1,167,167,Note_on,1,60,95,C4
1,167,167,Note_on,1,60,86,C4
1,167,168,Note_on,1,69,93,A4
1,168,168,Note_on,1,71,97,B4
1,168,168,Note_on,1,72,101,C5
1,168,169,Note_on,1,67,104,G4
1,169,169,Note_on,1,72,116,C5
1,169,169,Note_on,1,72,95,C5
1,169,169,Note_on,1,72,88,C5
1,169,170,Note_on,1,72,114,C5
1,170,170,Note_on,1,72,90,C5
1,170,170,Note_on,1,69,80,A4
1,170,171,Note_on,1,60,88,C4
1,171,171,Note_on,1,60,79,C4
1,171,171,Note_on,1,65,84,F4
1,171,171,Note_on,1,69,90,A4
1,171,171,Note_on,1,72,95,C5
1,171,172,Note_on,1,62,101,D4
1,172,172,Note_on,1,72,106,C5
1,172,173,Note_on,1,71,96,B4
1,173,173,Note_on,1,72,83,C5
1,173,173,Note_on,1,74,97,D5
1,173,173,Note_on,1,67,85,G4
1,173,174,Note_on,1,76,80,E5
1,174,174,Note_on,1,67,90,G4
1,174,174,Note_on,1,67,90,G4
1,174,175,Note_on,1,76,100,E5
1,174,175,Note_on,1,67,89,G4
1,175,175,Note_on,1,77,103,F5
1,175,175,Note_on,1,67,89,G4
1,175,175,Note_on,1,79,110,G5
1,175,175,Note_on,1,69,96,A4
1,175,176,Note_on,1,81,113,A5
1,176,176,Note_on,1,67,96,G4
1,176,176,Note_on,1,79,105,G5
1,176,176,Note_on,1,67,96,G4
1,176,177,Note_on,1,77,93,F5
1,176,177,Note_on,1,64,78,E4
1,177,177,Note_on,1,76,95,E5
1,177,177,Note_on,1,64,79,E4
1,177,177,Note_on,1,64,80,E4
1,177,178,Note_on,1,72,96,C5
1,178,178,Note_on,1,64,85,E4
1,178,178,Note_on,1,74,102,D5
1,178,178,Note_on,1,64,85,E4
1,178,179,Note_on,1,76,105,E5
1,179,179,Note_on,1,65,90,F4
1,179,179,Note_on,1,77,110,F5
1,179,179,Note_on,1,64,89,E4
1,179,180,Note_on,1,76,112,E5
1,179,180,Note_on,1,64,90,E4
1,180,180,Note_on,1,74,97,D5
1,180,180,Note_on,1,60,91,C4
1,180,180,Note_on,1,69,80,A4
1,180,181,Note_on,1,60,78,C4
1,181,181,Note_on,1,60,81,C4
1,181,181,Note_on,1,69,82,A4
1,181,181,Note_on,1,71,83,B4
1,181,181,Note_on,1,72,84,C5
1,181,182,Note_on,1,67,85,G4
1,182,182,Note_on,1,72,88,C5
1,182,182,Note_on,1,71,89,B4
1,182,182,Note_on,1,72,90,C5
1,182,183,Note_on,1,67,91,G4
1,183,183,Note_on,1,72,92,C5
1,183,183,Note_on,1,71,93,B4
1,183,183,Note_on,1,72,94,C5
1,183,184,Note_on,1,69,95,A4
1,184,184,Note_on,1,72,97,C5
1,184,184,Note_on,1,71,98,B4
1,184,184,Note_on,1,72,99,C5
1,184,184,Note_on,1,69,100,A4
1,184,185,Note_on,1,72,101,C5
1,185,185,Note_on,1,71,102,B4
1,185,185,Note_on,1,72,103,C5
1,185,185,Note_on,1,71,104,B4
1,185,185,Note_on,1,67,106,G4
1,185,186,Note_on,1,62,107,D4
1,186,186,Note_on,1,72,108,C5
1,186,186,Note_on,1,62,110,D4
1,186,186,Note_on,1,74,111,D5
1,186,187,Note_on,1,67,112,G4
1,187,187,Note_on,1,76,113,E5
1,187,187,Note_on,1,67,92,G4
1,187,187,Note_on,1,67,92,G4
1,187,188,Note_on,1,76,115,E5
1,188,188,Note_on,1,76,104,E5
1,188,188,Note_on,1,77,124,F5
1,188,188,Note_on,1,67,110,G4
1,188,189,Note_on,1,79,127,G5
1,189,189,Note_on,1,69,110,A4
1,189,189,Note_on,1,81,127,A5
1,189,189,Note_on,1,67,90,G4
1,189,190,Note_on,1,79,122,G5
1,189,190,Note_on,1,65,80,F4
1,190,190,Note_on,1,77,114,F5
1,190,190,Note_on,1,64,92,E4
1,190,190,Note_on,1,76,108,E5
1,190,191,Note_on,1,64,93,E4
1,191,191,Note_on,1,64,92,E4
1,191,191,Note_on,1,72,80,C5
1,191,191,Note_on,1,72,91,C5
1,191,191,Note_on,1,74,110,D5
1,191,192,Note_on,1,64,88,E4
1,192,192,Note_on,1,76,118,E5
1,192,192,Note_on,1,65,90,F4
1,192,192,Note_on,1,77,126,F5
1,192,192,Note_on,1,64,90,E4
1,192,193,Note_on,1,76,121,E5
1,193,193,Note_on,1,64,110,E4
1,193,193,Note_on,1,74,109,D5
1,193,193,Note_on,1,65,93,F4
1,193,194,Note_on,1,72,80,C5
1,194,194,Note_on,1,65,80,F4
1,194,194,Note_on,1,65,86,F4
1,194,194,Note_on,1,69,115,A4
1,194,195,Note_on,1,71,91,B4
1,195,195,Note_on,1,72,105,C5
1,195,195,Note_on,1,72,119,C5
1,195,195,Note_on,1,72,105,C5
1,195,196,Note_on,1,71,116,B4
1,196,196,Note_on,1,72,101,C5
1,196,196,Note_on,1,67,115,G4
1,196,196,Note_on,1,72,100,C5
1,196,196,Note_on,1,71,114,B4
1,196,197,Note_on,1,72,101,C5
1,197,197,Note_on,1,69,127,A4
1,197,197,Note_on,1,72,104,C5
1,197,197,Note_on,1,71,111,B4
1,197,197,Note_on,1,72,117,C5
1,197,198,Note_on,1,69,127,A4
1,198,198,Note_on,1,72,100,C5
1,198,198,Note_on,1,71,106,B4
1,198,198,Note_on,1,72,113,C5
1,198,199,Note_on,1,71,127,B4
1,199,199,Note_on,1,67,120,G4
1,199,199,Note_on,1,62,110,D4
1,199,199,Note_on,1,72,127,C5
1,199,200,Note_on,1,62,120,D4
1,200,200,Note_on,1,74,109,D5
1,200,200,Note_on,1,67,98,G4
1,200,200,Note_on,1,76,127,E5
1,200,200,Note_on,1,72,106,C5
1,200,201,Note_on,1,67,99,G4
1,201,201,Note_on,1,67,92,G4
1,201,201,Note_on,1,76,102,E5
1,201,201,Note_on,1,67,86,G4
1,201,202,Note_on,1,77,110,F5
1,201,202,Note_on,1,67,89,G4
1,202,202,Note_on,1,79,117,G5
1,202,202,Note_on,1,69,92,A4
1,202,202,Note_on,1,81,127,A5
1,202,202,Note_on,1,67,88,G4
1,202,203,Note_on,1,79,120,G5
1,203,203,Note_on,1,67,110,G4
1,203,203,Note_on,1,77,113,F5
1,203,203,Note_on,1,64,88,E4
1,203,204,Note_on,1,76,101,E5
1,204,204,Note_on,1,64,86,E4
1,204,204,Note_on,1,64,86,E4
1,204,204,Note_on,1,72,102,C5
1,204,205,Note_on,1,72,91,C5
1,205,205,Note_on,1,74,110,D5
1,205,205,Note_on,1,64,89,E4
1,205,205,Note_on,1,76,117,E5
1,205,205,Note_on,1,64,90,E4
1,205,206,Note_on,1,77,125,F5
1,206,206,Note_on,1,64,92,E4
1,206,206,Note_on,1,76,113,E5
1,206,206,Note_on,1,64,100,E4
1,206,207,Note_on,1,74,101,D5
1,206,207,Note_on,1,65,84,F4
1,207,207,Note_on,1,72,97,C5
1,207,207,Note_on,1,65,97,F4
1,207,207,Note_on,1,65,95,F4
1,207,208,Note_on,1,69,94,A4
1,208,208,Note_on,1,71,94,B4
1,208,208,Note_on,1,72,93,C5
1,208,209,Note_on,1,72,92,C5
1,209,209,Note_on,1,72,90,C5
1,209,209,Note_on,1,71,90,B4
1,209,209,Note_on,1,72,89,C5
1,209,210,Note_on,1,67,88,G4
1,209,210,Note_on,1,72,87,C5
1,210,210,Note_on,1,71,86,B4
1,210,210,Note_on,1,72,86,C5
1,210,210,Note_on,1,69,85,A4
1,210,210,Note_on,1,72,84,C5
1,210,211,Note_on,1,71,83,B4
1,211,211,Note_on,1,72,82,C5
1,211,211,Note_on,1,69,82,A4
1,211,211,Note_on,1,72,81,C5
1,211,211,Note_on,1,71,80,B4
1,211,212,Note_on,1,72,79,C5
1,212,212,Note_on,1,71,78,B4
1,212,212,Note_on,1,67,78,G4
1,212,212,Note_on,1,62,77,D4
1,212,213,Note_on,1,72,76,C5
1,213,213,Note_on,1,62,74,D4
1,213,213,Note_on,1,74,74,D5
1,213,213,Note_on,1,76,80,E5
1,213,214,Note_on,1,76,82,E5
1,214,214,Note_on,1,76,84,E5
1,214,214,Note_on,1,76,86,E5
1,214,214,Note_on,1,76,88,E5
1,214,214,Note_on,1,76,90,E5
1,214,214,Note_on,1,76,92,E5
1,214,214,Note_on,1,76,92,E5
1,214,214,Note_on,1,76,92,E5
1,214,214,Note_on,1,76,94,E5
1,214,214,Note_on,1,76,94,E5
1,214,215,Note_on,1,76,93,E5
1,215,215,Note_on,1,76,93,E5
1,215,215,Note_on,1,76,92,E5
1,215,215,Note_on,1,76,92,E5
1,215,215,Note_on,1,76,91,E5
1,215,215,Note_on,1,74,91,D5
1,215,215,Note_on,1,74,90,D5
1,215,215,Note_on,1,74,90,D5
1,215,215,Note_on,1,74,89,D5
1,215,216,Note_on,1,74,89,D5
1,216,216,Note_on,1,74,88,D5
1,216,216,Note_on,1,74,88,D5
1,216,216,Note_on,1,74,87,D5
1,216,216,Note_on,1,74,87,D5
1,216,216,Note_on,1,74,86,D5
1,216,216,Note_on,1,74,86,D5
1,216,216,Note_on,1,74,85,D5
1,216,216,Note_on,1,74,85,D5
1,216,216,Note_on,1,74,85,D5
1,216,217,Note_on,1,74,84,D5
1,217,217,Note_on,1,74,84,D5
1,217,217,Note_on,1,72,83,C5
1,217,217,Note_on,1,72,83,C5
1,217,217,Note_on,1,72,83,C5
1,217,217,Note_on,1,72,83,C5
1,217,217,Note_on,1,72,83,C5
1,217,217,Note_on,1,72,83,C5
1,217,217,Note_on,1,72,83,C5
1,217,217,Note_on,1,72,83,C5
1,217,218,Note_on,1,72,50,C5
1,218,218,Note_on,1,72,50,C5
1,218,218,Note_on,1,72,50,C5
1,218,218,Note_on,1,72,50,C5
1,218,218,Note_on,1,72,50,C5
1,218,218,Note_on,1,72,50,C5
1,218,218,Note_on,1,72,50,C5
1,218,218,Note_on,1,72,50,C5
1,218,218,Note_on,1,71,50,B4
1,218,219,Note_on,1,71,50,B4
1,219,219,Note_on,1,71,50,B4
1,219,219,Note_on,1,71,50,B4
1,219,219,Note_on,1,71,50,B4
1,219,219,Note_on,1,71,50,B4
1,219,219,Note_on,1,71,50,B4
1,219,219,Note_on,1,71,50,B4
1,219,219,Note_on,1,71,50,B4
1,219,219,Note_on,1,71,50,B4
1,219,219,Note_on,1,71,50,B4
1,219,220,Note_on,1,71,50,B4
1,220,220,Note_on,1,71,50,B4
1,220,220,Note_on,1,71,50,B4
1,220,220,Note_on,1,71,50,B4
1,220,220,Note_on,1,71,50,B4
1,220,220,Note_on,1,69,50,A4
1,220,220,Note_on,1,69,50,A4
1,220,220,Note_on,1,69,50,A4
1,220,220,Note_on,1,69,50,A4
1,220,221,Note_on,1,69,50,A4
1,221,221,Note_on,1,69,50,A4
1,221,221,Note_on,1,69,50,A4
1,221,221,Note_on,1,69,50,A4
1,221,221,Note_on,1,69,50,A4
1,221,221,Note_on,1,69,50,A4
1,221,221,Note_on,1,69,50,A4
1,221,221,Note_on,1,69,50,A4
1,221,221,Note_on,1,69,50,A4
1,221,221,Note_on,1,69,50,A4
1,221,222,Note_on,1,69,50,A4
1,222,222,Note_on,1,69,50,A4
1,222,222,Note_on,1,67,50,G4
1,222,222,Note_on,1,67,50,G4
1,222,222,Note_on,1,67,50,G4
1,222,222,Note_on,1,67,50,G4
1,222,222,Note_on,1,67,50,G4
1,222,222,Note_on,1,67,50,G4
1,222,222,Note_on,1,67,50,G4
1,222,222,Note_on,1,67,50,G4
1,222,223,Note_on,1,67,50,G4
1,223,223,Note_on,1,67,50,G4
1,223,223,Note_on,1,67,50,G4
1,223,223,Note_on,1,67,50,G4
1,223,223,Note_on,1,67,50,G4
1,223,223,Note_on,1,67,50,G4
1,223,223,Note_on,1,67,50,G4
1,223,223,Note_on,1,67,50,G4
1,223,223,Note_on,1,69,50,A4
1,223,224,Note_on,1,69,50,A4
1,224,224,Note_on,1,69,50,A4
1,224,224,Note_on,1,69,50,A4
1,224,224,Note_on,1,69,50,A4
1,224,224,Note_on,1,69,50,A4
1,224,224,Note_on,1,69,50,A4
1,224,224,Note_on,1,69,50,A4
1,224,224,Note_on,1,69,50,A4
1,224,224,Note_on,1,69,50,A4
1,224,224,Note_on,1,69,50,A4
1,224,225,Note_on,1,69,50,A4
1,225,225,Note_on,1,69,50,A4
1,225,225,Note_on,1,69,50,A4
1,225,225,Note_on,1,69,50,A4
1,225,225,Note_on,1,69,50,A4
1,225,225,Note_on,1,71,50,B4
1,225,225,Note_on,1,71,50,B4
1,225,225,Note_on,1,71,50,B4
1,225,225,Note_on,1,71,50,B4
1,225,226,Note_on,1,71,50,B4
1,226,226,Note_on,1,71,50,B4
1,226,226,Note_on,1,71,50,B4
1,226,226,Note_on,1,71,50,B4
1,226,226,Note_on,1,71,50,B4
1,226,226,Note_on,1,71,50,B4
1,226,226,Note_on,1,71,50,B4
1,226,226,Note_on,1,71,50,B4
1,226,226,Note_on,1,71,50,B4
1,226,226,Note_on,1,71,50,B4
1,226,227,Note_on,1,71,50,B4
1,227,227,Note_on,1,71,50,B4
1,227,227,Note_on,1,76,50,E5
1,227,227,Note_on,1,76,50,E5
1,227,227,Note_on,1,76,50,E5
1,227,227,Note_on,1,76,50,E5
1,227,227,Note_on,1,76,50,E5
1,227,227,Note_on,1,76,50,E5
1,227,227,Note_on,1,76,50,E5
1,227,227,Note_on,1,76,50,E5
1,227,228,Note_on,1,76,50,E5
1,228,228,Note_on,1,76,50,E5
1,228,228,Note_on,1,76,50,E5
1,228,228,Note_on,1,76,50,E5
1,228,228,Note_on,1,76,50,E5
1,228,228,Note_on,1,76,50,E5
1,228,228,Note_on,1,76,50,E5
1,228,228,Note_on,1,76,50,E5
1,228,228,Note_on,1,74,50,D5
1,228,229,Note_on,1,74,50,D5
1,229,229,Note_on,1,74,50,D5
1,229,229,Note_on,1,74,50,D5
1,229,229,Note_on,1,74,50,D5
1,229,229,Note_on,1,74,50,D5
1,229,229,Note_on,1,74,50,D5
1,229,229,Note_on,1,74,50,D5
1,229,229,Note_on,1,74,50,D5
1,229,229,Note_on,1,74,50,D5
1,229,229,Note_on,1,74,50,D5
1,229,230,Note_on,1,74,50,D5
1,230,230,Note_on,1,74,50,D5
1,230,230,Note_on,1,74,50,D5
1,230,230,Note_on,1,74,50,D5
1,230,230,Note_on,1,74,50,D5
1,230,230,Note_on,1,72,50,C5
1,230,230,Note_on,1,72,50,C5
1,230,230,Note_on,1,72,50,C5
1,230,230,Note_on,1,72,50,C5
1,230,231,Note_on,1,72,50,C5
1,231,231,Note_on,1,72,50,C5
1,231,231,Note_on,1,72,50,C5
1,231,231,Note_on,1,72,50,C5
1,231,231,Note_on,1,72,50,C5
1,231,231,Note_on,1,72,50,C5
1,231,231,Note_on,1,72,50,C5
1,231,231,Note_on,1,72,50,C5
1,231,231,Note_on,1,72,50,C5
1,231,231,Note_on,1,72,50,C5
1,231,232,Note_on,1,72,50,C5
1,232,232,Note_on,1,72,50,C5
1,232,232,Note_on,1,71,50,B4
1,232,232,Note_on,1,71,50,B4
1,232,232,Note_on,1,71,50,B4
1,232,232,Note_on,1,71,50,B4
1,232,232,Note_on,1,71,50,B4
1,232,232,Note_on,1,71,50,B4
1,232,232,Note_on,1,71,50,B4
1,232,232,Note_on,1,71,50,B4
1,232,233,Note_on,1,71,50,B4
1,233,233,Note_on,1,71,50,B4
1,233,233,Note_on,1,71,50,B4
1,233,233,Note_on,1,71,50,B4
1,233,233,Note_on,1,71,50,B4
1,233,233,Note_on,1,71,50,B4
1,233,233,Note_on,1,71,50,B4
1,233,233,Note_on,1,71,50,B4
1,233,233,Note_on,1,69,50,A4
1,233,234,Note_on,1,69,50,A4
1,234,234,Note_on,1,69,50,A4
1,234,234,Note_on,1,69,50,A4
1,234,234,Note_on,1,69,50,A4
1,234,234,Note_on,1,69,50,A4
1,234,234,Note_on,1,69,50,A4
1,234,234,Note_on,1,69,50,A4
1,234,234,Note_on,1,69,50,A4
1,234,234,Note_on,1,69,50,A4
1,234,234,Note_on,1,69,50,A4
1,234,235,Note_on,1,69,50,A4
1,235,235,Note_on,1,69,50,A4
1,235,235,Note_on,1,69,50,A4
1,235,235,Note_on,1,69,50,A4
1,235,235,Note_on,1,69,50,A4
1,235,235,Note_on,1,67,50,G4
1,235,235,Note_on,1,67,50,G4
1,235,235,Note_on,1,67,50,G4
1,235,235,Note_on,1,67,50,G4
1,235,236,Note_on,1,67,50,G4
1,236,236,Note_on,1,67,50,G4
1,236,236,Note_on,1,67,50,G4
1,236,236,Note_on,1,67,50,G4
1,236,236,Note_on,1,67,50,G4
1,236,236,Note_on,1,67,50,G4
1,236,236,Note_on,1,67,50,G4
1,236,236,Note_on,1,67,50,G4
1,236,236,Note_on,1,67,50,G4
1,236,236,Note_on,1,67,50,G4
1,236,237,Note_on,1,67,50,G4
1,237,237,Note_on,1,67,50,G4
1,237,237,Note_on,1,69,50,A4
1,237,237,Note_on,1,69,50,A4
1,237,237,Note_on,1,69,50,A4
1,237,237,Note_on,1,69,50,A4
1,237,237,Note_on,1,69,50,A4
1,237,237,Note_on,1,69,50,A4
1,237,237,Note_on,1,69,50,A4
1,237,237,Note_on,1,69,50,A4
1,237,238,Note_on,1,69,50,A4
1,238,238,Note_on,1,69,50,A4
1,238,238,Note_on,1,69,50,A4
1,238,238,Note_on,1,69,50,A4
1,238,238,Note_on,1,69,50,A4
1,238,238,Note_on,1,69,50,A4
1,238,238,Note_on,1,69,50,A4
1,238,238,Note_on,1,69,50,A4
1,238,238,Note_on,1,71,50,B4
1,238,239,Note_on,1,71,50,B4
1,239,239,Note_on,1,71,50,B4
1,239,239,Note_on,1,71,50,B4
1,239,239,Note_on,1,71,50,B4
1,239,239,Note_on,1,71,50,B4
1,239,239,Note_on,1,71,50,B4
1,239,239,Note_on,1,71,50,B4
1,239,239,Note_on,1,71,50,B4
1,239,239,Note_on,1,71,50,B4
1,239,239,Note_on,1,71,50,B4
1,239,239,Note_on,1,71,50,B4
1,239,239,Note_on,1,71,50,B4
1,239,240,Note_on,1,71,50,B4
1,240,240,Note_on,1,71,50,B4
1,240,240,Note_on,1,71,50,B4
1,240,240,Note_on,1,71,50,B4
1,240,243,Note_on,1,64,50,E4
1,240,243,Note_on,1,72,50,C5
