track,start,end,event,channel,note,velocity,name
1,0,0,Note_on,1,64,63,E4
1,4,4,Note_on,1,64,63,E4
1,6,6,Note_on,1,64,63,E4
1,6,6,Note_on,1,64,63,E4
1,6,6,Note_on,1,64,63,E4
1,6,6,Note_on,1,64,63,E4
1,6,6,Note_on,1,64,63,E4
1,6,6,Note_on,1,64,63,E4
1,6,6,Note_on,1,64,63,E4
1,6,6,Note_on,1,64,63,E4
1,6,6,Note_on,1,64,63,E4
1,6,6,Note_on,1,64,63,E4
1,6,6,Note_on,1,64,63,E4
1,6,6,Note_on,1,64,63,E4
1,6,6,Note_on,1,64,63,E4
1,6,7,Note_on,1,64,63,E4
1,7,7,Note_on,1,64,63,E4
1,7,7,Note_on,1,64,63,E4
1,7,7,Note_on,1,64,63,E4
1,7,7,Note_on,1,64,63,E4
1,7,7,Note_on,1,64,63,E4
1,7,7,Note_on,1,64,63,E4
1,7,7,Note_on,1,64,63,E4
1,7,7,Note_on,1,64,63,E4
1,7,7,Note_on,1,64,63,E4
1,7,7,Note_on,1,64,63,E4
1,7,7,Note_on,1,64,63,E4
1,7,7,Note_on,1,64,63,E4
1,7,7,Note_on,1,64,63,E4
1,7,7,Note_on,1,64,63,E4
1,7,7,Note_on,1,64,63,E4
1,7,7,Note_on,1,64,63,E4
1,7,7,Note_on,1,64,63,E4
1,7,7,Note_on,1,64,63,E4
1,7,7,Note_on,1,64,63,E4
1,7,7,Note_on,1,64,63,E4
1,7,7,Note_on,1,64,63,E4
1,7,7,Note_on,1,64,63,E4
1,7,7,Note_on,1,64,63,E4
1,7,7,Note_on,1,64,63,E4
1,7,7,Note_on,1,64,63,E4
1,7,8,Note_on,1,45,63,A2
1,8,8,Note_on,1,48,63,C3
1,8,8,Note_on,1,52,63,E3
1,9,9,Note_on,1,40,63,E2
1,9,10,Note_on,1,48,63,C3
1,9,10,Note_on,1,52,63,E3
1,10,10,Note_on,1,40,63,E2
1,10,10,Note_on,1,42,63,F#2
1,10,10,Note_on,1,44,63,G#2
1,10,10,Note_on,1,33,63,A1
1,10,10,Note_on,1,45,63,A2
1,10,11,Note_on,1,48,63,C3
1,10,11,Note_on,1,52,63,E3
1,11,11,Note_on,1,40,63,E2
1,12,12,Note_on,1,48,63,C3
1,12,12,Note_on,1,52,63,E3
1,12,12,Note_on,1,64,63,E4
1,12,12,Note_on,1,45,63,A2
1,12,12,Note_on,1,64,63,E4
1,12,13,Note_on,1,64,63,E4
1,12,13,Note_on,1,48,63,C3
1,12,13,Note_on,1,52,63,E3
1,13,13,Note_on,1,64,63,E4
1,13,13,Note_on,1,64,63,E4
1,13,13,Note_on,1,40,63,E2
1,13,14,Note_on,1,64,63,E4
1,14,14,Note_on,1,64,63,E4
1,14,14,Note_on,1,48,63,C3
1,14,14,Note_on,1,52,63,E3
1,14,14,Note_on,1,64,63,E4
1,14,14,Note_on,1,64,63,E4
1,14,14,Note_on,1,45,63,A2
1,14,15,Note_on,1,64,63,E4
1,15,15,Note_on,1,64,63,E4
1,15,15,Note_on,1,48,63,C3
1,15,15,Note_on,1,52,63,E3
1,15,15,Note_on,1,64,63,E4
1,15,15,Note_on,1,64,63,E4
1,15,15,Note_on,1,40,63,E2
1,15,16,Note_on,1,64,63,E4
1,16,16,Note_on,1,64,63,E4
1,16,16,Note_on,1,48,63,C3
1,16,16,Note_on,1,52,63,E3
1,16,16,Note_on,1,64,63,E4
1,16,17,Note_on,1,64,63,E4
1,16,17,Note_on,1,45,63,A2
1,17,17,Note_on,1,64,63,E4
1,17,17,Note_on,1,64,63,E4
1,17,17,Note_on,1,48,63,C3
1,17,17,Note_on,1,52,63,E3
1,17,17,Note_on,1,64,63,E4
1,17,17,Note_on,1,64,63,E4
1,17,17,Note_on,1,40,63,E2
1,17,18,Note_on,1,65,63,F4
1,18,18,Note_on,1,64,63,E4
1,18,18,Note_on,1,48,63,C3
1,18,18,Note_on,1,52,63,E3
1,18,18,Note_on,1,63,63,E-4
1,18,18,Note_on,1,64,63,E4
1,18,18,Note_on,1,45,63,A2
1,18,18,Note_on,1,69,63,A4
1,18,18,Note_on,1,48,63,C3
1,18,18,Note_on,1,52,63,E3
1,18,19,Note_on,1,40,63,E2
1,18,19,Note_on,1,72,63,C5
1,19,19,Note_on,1,48,63,C3
1,19,19,Note_on,1,52,63,E3
1,19,19,Note_on,1,74,63,D5
1,19,19,Note_on,1,44,63,G#2
1,19,19,Note_on,1,74,63,D5
1,19,20,Note_on,1,74,63,D5
1,19,20,Note_on,1,50,63,D3
1,19,20,Note_on,1,52,63,E3
1,20,20,Note_on,1,74,63,D5
1,20,20,Note_on,1,74,63,D5
1,20,20,Note_on,1,40,63,E2
1,20,20,Note_on,1,72,63,C5
1,20,20,Note_on,1,71,63,B4
1,20,20,Note_on,1,50,63,D3
1,20,20,Note_on,1,52,63,E3
1,20,21,Note_on,1,74,63,D5
1,21,21,Note_on,1,72,63,C5
1,21,21,Note_on,1,45,63,A2
1,21,21,Note_on,1,72,63,C5
1,21,21,Note_on,1,72,63,C5
1,21,21,Note_on,1,48,63,C3
1,21,21,Note_on,1,52,63,E3
1,21,21,Note_on,1,72,63,C5
1,21,22,Note_on,1,72,63,C5
1,21,22,Note_on,1,40,63,E2
1,22,22,Note_on,1,71,63,B4
1,22,22,Note_on,1,69,63,A4
1,22,22,Note_on,1,48,63,C3
1,22,22,Note_on,1,52,63,E3
1,22,22,Note_on,1,72,63,C5
1,22,22,Note_on,1,71,63,B4
1,22,22,Note_on,1,47,63,B2
1,22,22,Note_on,1,71,63,B4
1,22,23,Note_on,1,71,63,B4
1,22,23,Note_on,1,51,63,E-3
1,22,23,Note_on,1,57,63,A3
1,23,23,Note_on,1,71,63,B4
1,23,23,Note_on,1,66,63,F#4
1,23,23,Note_on,1,42,63,F#2
1,23,23,Note_on,1,71,63,B4
1,23,23,Note_on,1,51,63,E-3
1,23,23,Note_on,1,57,63,A3
1,23,23,Note_on,1,68,63,G#4
1,23,23,Note_on,1,52,63,E3
1,23,23,Note_on,1,56,63,G#3
1,23,24,Note_on,1,28,63,E1
1,23,24,Note_on,1,40,63,E2
1,24,24,Note_on,1,42,63,F#2
1,24,24,Note_on,1,44,63,G#2
1,24,24,Note_on,1,64,63,E4
1,24,24,Note_on,1,45,63,A2
1,24,24,Note_on,1,64,63,E4
1,24,24,Note_on,1,64,63,E4
1,24,24,Note_on,1,48,63,C3
1,24,24,Note_on,1,52,63,E3
1,24,25,Note_on,1,64,63,E4
1,25,25,Note_on,1,64,63,E4
1,25,25,Note_on,1,40,63,E2
1,25,25,Note_on,1,64,63,E4
1,25,25,Note_on,1,64,63,E4
1,25,25,Note_on,1,48,63,C3
1,25,25,Note_on,1,52,63,E3
1,25,25,Note_on,1,64,63,E4
1,25,25,Note_on,1,64,63,E4
1,25,25,Note_on,1,45,63,A2
1,25,25,Note_on,1,64,63,E4
1,25,26,Note_on,1,64,63,E4
1,25,26,Note_on,1,48,63,C3
1,25,26,Note_on,1,52,63,E3
1,26,26,Note_on,1,64,63,E4
1,26,26,Note_on,1,64,63,E4
1,26,26,Note_on,1,40,63,E2
1,26,26,Note_on,1,64,63,E4
1,26,26,Note_on,1,64,63,E4
1,26,26,Note_on,1,48,63,C3
1,26,26,Note_on,1,52,63,E3
1,26,26,Note_on,1,64,63,E4
1,26,26,Note_on,1,64,63,E4
1,26,26,Note_on,1,45,63,A2
1,26,27,Note_on,1,65,63,F4
1,27,27,Note_on,1,64,63,E4
1,27,27,Note_on,1,48,63,C3
1,27,27,Note_on,1,52,63,E3
1,27,27,Note_on,1,63,63,E-4
1,27,27,Note_on,1,64,63,E4
1,27,27,Note_on,1,40,63,E2
1,27,27,Note_on,1,69,63,A4
1,27,27,Note_on,1,48,63,C3
1,27,27,Note_on,1,52,63,E3
1,27,27,Note_on,1,72,63,C5
1,27,27,Note_on,1,76,63,E5
1,27,27,Note_on,1,45,63,A2
1,28,28,Note_on,1,81,63,A5
1,28,28,Note_on,1,48,63,C3
1,28,28,Note_on,1,52,63,E3
1,28,28,Note_on,1,40,63,E2
1,28,28,Note_on,1,84,63,C6
1,28,28,Note_on,1,48,63,C3
1,28,28,Note_on,1,52,63,E3
1,28,28,Note_on,1,86,63,D6
1,28,28,Note_on,1,50,63,D3
1,28,28,Note_on,1,84,63,C6
1,28,29,Note_on,1,83,63,B5
1,28,29,Note_on,1,53,63,F3
1,28,29,Note_on,1,57,63,A3
1,29,29,Note_on,1,86,63,D6
1,29,29,Note_on,1,84,63,C6
1,29,29,Note_on,1,48,63,C3
1,29,29,Note_on,1,83,63,B5
1,29,29,Note_on,1,81,63,A5
1,29,29,Note_on,1,52,63,E3
1,29,29,Note_on,1,57,63,A3
1,29,29,Note_on,1,84,63,C6
1,29,29,Note_on,1,83,63,B5
1,29,29,Note_on,1,47,63,B2
1,29,29,Note_on,1,81,63,A5
1,29,29,Note_on,1,80,63,G#5
1,29,29,Note_on,1,50,63,D3
1,29,29,Note_on,1,53,63,F3
1,29,29,Note_on,1,83,63,B5
1,29,30,Note_on,1,81,63,A5
1,29,30,Note_on,1,45,63,A2
1,30,30,Note_on,1,76,63,E5
1,30,30,Note_on,1,72,63,C5
1,30,30,Note_on,1,48,63,C3
1,30,30,Note_on,1,52,63,E3
1,30,30,Note_on,1,69,63,A4
1,30,30,Note_on,1,77,63,F5
1,30,30,Note_on,1,40,63,E2
1,30,30,Note_on,1,52,63,E3
1,30,30,Note_on,1,76,63,E5
1,30,30,Note_on,1,74,63,D5
1,30,30,Note_on,1,42,63,F#2
1,30,30,Note_on,1,54,63,F#3
1,30,30,Note_on,1,72,63,C5
1,30,30,Note_on,1,71,63,B4
1,30,30,Note_on,1,44,63,G#2
1,30,30,Note_on,1,56,63,G#3
1,30,31,Note_on,1,69,63,A4
1,31,31,Note_on,1,68,63,G#4
1,31,31,Note_on,1,40,63,E2
1,31,31,Note_on,1,52,63,E3
1,31,31,Note_on,1,71,63,B4
1,31,31,Note_on,1,69,63,A4
1,31,31,Note_on,1,45,63,A2
1,31,31,Note_on,1,57,63,A3
1,31,32,Note_on,1,28,63,E1
1,31,32,Note_on,1,40,63,E2
1,32,32,Note_on,1,42,63,F#2
1,32,32,Note_on,1,44,63,G#2
1,32,32,Note_on,1,64,63,E4
1,32,32,Note_on,1,45,63,A2
1,32,32,Note_on,1,64,63,E4
1,32,32,Note_on,1,64,63,E4
1,32,32,Note_on,1,48,63,C3
1,32,32,Note_on,1,52,63,E3
1,32,32,Note_on,1,64,63,E4
1,32,32,Note_on,1,64,63,E4
1,32,32,Note_on,1,40,63,E2
1,32,32,Note_on,1,64,63,E4
1,32,32,Note_on,1,64,63,E4
1,32,32,Note_on,1,48,63,C3
1,32,32,Note_on,1,52,63,E3
1,32,32,Note_on,1,64,63,E4
1,32,33,Note_on,1,64,63,E4
1,32,33,Note_on,1,45,63,A2
1,33,33,Note_on,1,64,63,E4
1,33,33,Note_on,1,64,63,E4
1,33,33,Note_on,1,48,63,C3
1,33,33,Note_on,1,52,63,E3
1,33,33,Note_on,1,64,63,E4
1,33,33,Note_on,1,64,63,E4
1,33,33,Note_on,1,40,63,E2
1,33,33,Note_on,1,64,63,E4
1,33,33,Note_on,1,64,63,E4
1,33,33,Note_on,1,48,63,C3
1,33,33,Note_on,1,52,63,E3
1,33,33,Note_on,1,64,63,E4
1,33,33,Note_on,1,64,63,E4
1,33,33,Note_on,1,45,63,A2
1,33,33,Note_on,1,64,63,E4
1,33,34,Note_on,1,64,63,E4
1,33,34,Note_on,1,48,63,C3
1,33,34,Note_on,1,52,63,E3
1,34,34,Note_on,1,64,63,E4
1,34,34,Note_on,1,64,63,E4
1,34,34,Note_on,1,40,63,E2
1,34,34,Note_on,1,65,63,F4
1,34,34,Note_on,1,64,63,E4
1,34,34,Note_on,1,48,63,C3
1,34,34,Note_on,1,52,63,E3
1,34,34,Note_on,1,63,63,E-4
1,34,34,Note_on,1,64,63,E4
1,34,34,Note_on,1,45,63,A2
1,34,34,Note_on,1,69,63,A4
1,34,34,Note_on,1,48,63,C3
1,34,34,Note_on,1,52,63,E3
1,34,34,Note_on,1,40,63,E2
1,34,35,Note_on,1,72,63,C5
1,35,35,Note_on,1,48,63,C3
1,35,35,Note_on,1,52,63,E3
1,35,35,Note_on,1,74,63,D5
1,35,35,Note_on,1,47,63,B2
1,35,35,Note_on,1,74,63,D5
1,35,35,Note_on,1,74,63,D5
1,35,35,Note_on,1,50,63,D3
1,35,35,Note_on,1,52,63,E3
1,35,35,Note_on,1,74,63,D5
1,35,35,Note_on,1,74,63,D5
1,35,35,Note_on,1,40,63,E2
1,35,35,Note_on,1,72,63,C5
1,35,35,Note_on,1,71,63,B4
1,35,35,Note_on,1,50,63,D3
1,35,35,Note_on,1,52,63,E3
1,35,36,Note_on,1,74,63,D5
1,36,36,Note_on,1,72,63,C5
1,36,36,Note_on,1,45,63,A2
1,36,36,Note_on,1,72,63,C5
1,36,36,Note_on,1,72,63,C5
1,36,36,Note_on,1,48,63,C3
1,36,36,Note_on,1,52,63,E3
1,36,36,Note_on,1,72,63,C5
1,36,36,Note_on,1,72,63,C5
1,36,36,Note_on,1,40,63,E2
1,36,36,Note_on,1,71,63,B4
1,36,36,Note_on,1,69,63,A4
1,36,36,Note_on,1,48,63,C3
1,36,36,Note_on,1,52,63,E3
1,36,36,Note_on,1,72,63,C5
1,36,36,Note_on,1,71,63,B4
1,36,36,Note_on,1,47,63,B2
1,36,37,Note_on,1,71,63,B4
1,37,37,Note_on,1,71,63,B4
1,37,37,Note_on,1,51,63,E-3
1,37,37,Note_on,1,54,63,F#3
1,37,37,Note_on,1,71,63,B4
1,37,37,Note_on,1,66,63,F#4
1,37,37,Note_on,1,42,63,F#2
1,37,37,Note_on,1,71,63,B4
1,37,37,Note_on,1,51,63,E-3
1,37,37,Note_on,1,54,63,F#3
1,37,37,Note_on,1,68,63,G#4
1,37,37,Note_on,1,52,63,E3
1,37,37,Note_on,1,56,63,G#3
1,38,38,Note_on,1,28,63,E1
1,38,38,Note_on,1,40,63,E2
1,38,38,Note_on,1,42,63,F#2
1,38,38,Note_on,1,44,63,G#2
1,38,38,Note_on,1,64,63,E4
1,38,38,Note_on,1,45,63,A2
1,38,38,Note_on,1,64,63,E4
1,38,38,Note_on,1,64,63,E4
1,38,38,Note_on,1,48,63,C3
1,38,38,Note_on,1,52,63,E3
1,38,38,Note_on,1,64,63,E4
1,38,38,Note_on,1,64,63,E4
1,38,38,Note_on,1,40,63,E2
1,38,38,Note_on,1,64,63,E4
1,38,39,Note_on,1,64,63,E4
1,38,39,Note_on,1,48,63,C3
1,38,39,Note_on,1,52,63,E3
1,39,39,Note_on,1,64,63,E4
1,39,39,Note_on,1,64,63,E4
1,39,39,Note_on,1,45,63,A2
1,39,39,Note_on,1,64,63,E4
1,39,39,Note_on,1,64,63,E4
1,39,39,Note_on,1,48,63,C3
1,39,39,Note_on,1,52,63,E3
1,39,39,Note_on,1,64,63,E4
1,39,39,Note_on,1,64,63,E4
1,39,39,Note_on,1,40,63,E2
1,39,39,Note_on,1,64,63,E4
1,39,39,Note_on,1,64,63,E4
1,39,39,Note_on,1,48,63,C3
1,39,39,Note_on,1,52,63,E3
1,39,39,Note_on,1,64,63,E4
1,39,40,Note_on,1,64,63,E4
1,39,40,Note_on,1,45,63,A2
1,40,40,Note_on,1,65,63,F4
1,40,40,Note_on,1,64,63,E4
1,40,40,Note_on,1,48,63,C3
1,40,40,Note_on,1,52,63,E3
1,40,40,Note_on,1,63,63,E-4
1,40,40,Note_on,1,64,63,E4
1,40,40,Note_on,1,40,63,E2
1,40,40,Note_on,1,69,63,A4
1,40,40,Note_on,1,48,63,C3
1,40,40,Note_on,1,52,63,E3
1,40,40,Note_on,1,72,63,C5
1,40,40,Note_on,1,76,63,E5
1,40,40,Note_on,1,45,63,A2
1,40,41,Note_on,1,81,63,A5
1,40,41,Note_on,1,48,63,C3
1,40,41,Note_on,1,52,63,E3
1,41,41,Note_on,1,40,63,E2
1,41,41,Note_on,1,84,63,C6
1,41,41,Note_on,1,48,63,C3
1,41,41,Note_on,1,52,63,E3
1,41,41,Note_on,1,86,63,D6
1,41,41,Note_on,1,50,63,D3
1,41,41,Note_on,1,84,63,C6
1,41,41,Note_on,1,83,63,B5
1,41,41,Note_on,1,53,63,F3
1,41,41,Note_on,1,57,63,A3
1,41,41,Note_on,1,86,63,D6
1,41,42,Note_on,1,84,63,C6
1,41,42,Note_on,1,48,63,C3
1,42,42,Note_on,1,83,63,B5
1,42,42,Note_on,1,81,63,A5
1,42,42,Note_on,1,52,63,E3
1,42,42,Note_on,1,57,63,A3
1,42,42,Note_on,1,84,63,C6
1,42,42,Note_on,1,83,63,B5
1,42,42,Note_on,1,47,63,B2
1,42,42,Note_on,1,81,63,A5
1,42,42,Note_on,1,80,63,G#5
1,42,42,Note_on,1,50,63,D3
1,42,42,Note_on,1,53,63,F3
1,42,42,Note_on,1,83,63,B5
1,42,42,Note_on,1,81,63,A5
1,42,42,Note_on,1,45,63,A2
1,42,42,Note_on,1,76,63,E5
1,42,43,Note_on,1,72,63,C5
1,42,43,Note_on,1,48,63,C3
1,42,43,Note_on,1,52,63,E3
1,43,43,Note_on,1,69,63,A4
1,43,43,Note_on,1,77,63,F5
1,43,43,Note_on,1,40,63,E2
1,43,43,Note_on,1,52,63,E3
1,43,43,Note_on,1,76,63,E5
1,43,43,Note_on,1,74,63,D5
1,43,43,Note_on,1,42,63,F#2
1,43,43,Note_on,1,54,63,F#3
1,43,43,Note_on,1,72,63,C5
1,43,43,Note_on,1,71,63,B4
1,43,43,Note_on,1,44,63,G#2
1,43,43,Note_on,1,56,63,G#3
1,43,43,Note_on,1,69,63,A4
1,43,44,Note_on,1,68,63,G#4
1,43,44,Note_on,1,40,63,E2
1,43,44,Note_on,1,52,63,E3
1,44,44,Note_on,1,71,63,B4
1,44,44,Note_on,1,69,63,A4
1,44,44,Note_on,1,45,63,A2
1,44,44,Note_on,1,57,63,A3
1,44,44,Note_on,1,33,63,A1
1,44,44,Note_on,1,45,63,A2
1,44,44,Note_on,1,47,63,B2
1,44,45,Note_on,1,49,63,C#3
1,45,45,Note_on,1,38,63,D2
1,45,45,Note_on,1,50,63,D3
1,45,45,Note_on,1,74,63,D5
1,45,45,Note_on,1,53,63,F3
1,45,45,Note_on,1,57,63,A3
1,45,45,Note_on,1,73,63,C#5
1,45,45,Note_on,1,74,63,D5
1,45,45,Note_on,1,45,63,A2
1,45,45,Note_on,1,76,63,E5
1,45,45,Note_on,1,53,63,F3
1,45,45,Note_on,1,57,63,A3
1,46,46,Note_on,1,77,63,F5
1,46,46,Note_on,1,50,63,D3
1,46,46,Note_on,1,76,63,E5
1,46,46,Note_on,1,53,63,F3
1,46,46,Note_on,1,57,63,A3
1,46,46,Note_on,1,74,63,D5
1,46,46,Note_on,1,45,63,A2
1,46,46,Note_on,1,77,63,F5
1,46,46,Note_on,1,53,63,F3
1,46,46,Note_on,1,57,63,A3
1,46,46,Note_on,1,48,63,C3
1,46,47,Note_on,1,76,63,E5
1,46,47,Note_on,1,52,63,E3
1,46,47,Note_on,1,57,63,A3
1,47,47,Note_on,1,74,63,D5
1,47,47,Note_on,1,72,63,C5
1,47,47,Note_on,1,45,63,A2
1,47,47,Note_on,1,74,63,D5
1,47,47,Note_on,1,52,63,E3
1,47,47,Note_on,1,57,63,A3
1,47,47,Note_on,1,48,63,C3
1,47,47,Note_on,1,52,63,E3
1,47,47,Note_on,1,57,63,A3
1,47,48,Note_on,1,45,63,A2
1,47,48,Note_on,1,76,63,E5
1,48,48,Note_on,1,52,63,E3
1,48,48,Note_on,1,57,63,A3
1,48,48,Note_on,1,72,63,C5
1,48,48,Note_on,1,52,63,E3
1,48,48,Note_on,1,71,63,B4
1,48,48,Note_on,1,56,63,G#3
1,48,48,Note_on,1,59,63,B3
1,48,48,Note_on,1,70,63,B-4
1,48,48,Note_on,1,71,63,B4
1,48,48,Note_on,1,47,63,B2
1,48,48,Note_on,1,72,63,C5
1,48,48,Note_on,1,56,63,G#3
1,48,48,Note_on,1,59,63,B3
1,49,49,Note_on,1,74,63,D5
1,49,49,Note_on,1,52,63,E3
1,49,49,Note_on,1,72,63,C5
1,49,49,Note_on,1,56,63,G#3
1,49,49,Note_on,1,59,63,B3
1,49,49,Note_on,1,71,63,B4
1,49,49,Note_on,1,47,63,B2
1,49,49,Note_on,1,74,63,D5
1,49,49,Note_on,1,56,63,G#3
1,49,49,Note_on,1,59,63,B3
1,49,49,Note_on,1,72,63,C5
1,49,49,Note_on,1,45,63,A2
1,50,50,Note_on,1,69,63,A4
1,50,50,Note_on,1,45,63,A2
1,50,50,Note_on,1,72,63,C5
1,50,50,Note_on,1,48,63,C3
1,50,50,Note_on,1,76,63,E5
1,50,50,Note_on,1,52,63,E3
1,50,50,Note_on,1,81,63,A5
1,50,50,Note_on,1,57,63,A3
1,50,50,Note_on,1,76,63,E5
1,50,50,Note_on,1,52,63,E3
1,50,51,Note_on,1,72,63,C5
1,50,51,Note_on,1,48,63,C3
1,51,51,Note_on,1,69,63,A4
1,51,51,Note_on,1,45,63,A2
1,51,51,Note_on,1,38,63,D2
1,51,51,Note_on,1,50,63,D3
1,51,51,Note_on,1,74,63,D5
1,51,51,Note_on,1,53,63,F3
1,51,51,Note_on,1,57,63,A3
1,51,51,Note_on,1,73,63,C#5
1,51,51,Note_on,1,74,63,D5
1,51,51,Note_on,1,45,63,A2
1,51,52,Note_on,1,76,63,E5
1,51,52,Note_on,1,53,63,F3
1,51,52,Note_on,1,57,63,A3
1,52,52,Note_on,1,77,63,F5
1,52,52,Note_on,1,50,63,D3
1,52,52,Note_on,1,76,63,E5
1,52,52,Note_on,1,53,63,F3
1,52,52,Note_on,1,57,63,A3
1,52,52,Note_on,1,74,63,D5
1,52,52,Note_on,1,45,63,A2
1,52,52,Note_on,1,77,63,F5
1,52,52,Note_on,1,53,63,F3
1,52,52,Note_on,1,57,63,A3
1,52,53,Note_on,1,48,63,C3
1,52,53,Note_on,1,76,63,E5
1,53,53,Note_on,1,52,63,E3
1,53,53,Note_on,1,57,63,A3
1,53,53,Note_on,1,74,63,D5
1,53,53,Note_on,1,72,63,C5
1,53,53,Note_on,1,45,63,A2
1,53,53,Note_on,1,74,63,D5
1,53,53,Note_on,1,52,63,E3
1,53,53,Note_on,1,57,63,A3
1,53,53,Note_on,1,76,63,E5
1,53,53,Note_on,1,48,63,C3
1,53,53,Note_on,1,52,63,E3
1,53,53,Note_on,1,57,63,A3
1,54,54,Note_on,1,45,63,A2
1,54,54,Note_on,1,81,63,A5
1,54,54,Note_on,1,52,63,E3
1,54,54,Note_on,1,57,63,A3
1,54,54,Note_on,1,50,63,D3
1,54,54,Note_on,1,53,63,F3
1,54,54,Note_on,1,57,63,A3
1,54,54,Note_on,1,74,63,D5
1,54,54,Note_on,1,47,63,B2
1,54,55,Note_on,1,77,63,F5
1,54,55,Note_on,1,53,63,F3
1,54,55,Note_on,1,57,63,A3
1,55,55,Note_on,1,76,63,E5
1,55,55,Note_on,1,40,63,E2
1,55,55,Note_on,1,52,63,E3
1,55,55,Note_on,1,72,63,C5
1,55,55,Note_on,1,36,63,C2
1,55,55,Note_on,1,48,63,C3
1,55,55,Note_on,1,74,63,D5
1,55,55,Note_on,1,38,63,D2
1,55,55,Note_on,1,50,63,D3
1,55,55,Note_on,1,71,63,B4
1,55,55,Note_on,1,35,63,B1
1,55,55,Note_on,1,47,63,B2
1,55,56,Note_on,1,69,63,A4
1,55,56,Note_on,1,33,63,A1
1,55,56,Note_on,1,45,63,A2
1,56,56,Note_on,1,64,63,E4
1,56,56,Note_on,1,68,63,G#4
1,56,56,Note_on,1,76,63,E5
1,56,56,Note_on,1,28,63,E1
1,56,56,Note_on,1,40,63,E2
1,56,56,Note_on,1,69,63,A4
1,56,56,Note_on,1,72,63,C5
1,56,56,Note_on,1,81,63,A5
1,56,56,Note_on,1,33,63,A1
1,56,56,Note_on,1,45,63,A2
1,57,57,Note_on,1,28,63,E1
1,57,57,Note_on,1,40,63,E2
1,57,57,Note_on,1,42,63,F#2
1,57,57,Note_on,1,44,63,G#2
1,57,57,Note_on,1,64,63,E4
1,57,57,Note_on,1,45,63,A2
1,57,57,Note_on,1,64,63,E4
1,57,57,Note_on,1,64,63,E4
1,57,57,Note_on,1,48,63,C3
1,57,57,Note_on,1,52,63,E3
1,57,57,Note_on,1,64,63,E4
1,57,58,Note_on,1,64,63,E4
1,57,58,Note_on,1,40,63,E2
1,58,58,Note_on,1,64,63,E4
1,58,58,Note_on,1,64,63,E4
1,58,58,Note_on,1,48,63,C3
1,58,58,Note_on,1,52,63,E3
1,58,58,Note_on,1,64,63,E4
1,58,58,Note_on,1,64,63,E4
1,58,58,Note_on,1,45,63,A2
1,58,58,Note_on,1,64,63,E4
1,58,58,Note_on,1,64,63,E4
1,58,58,Note_on,1,48,63,C3
1,58,58,Note_on,1,52,63,E3
1,58,58,Note_on,1,64,63,E4
1,58,58,Note_on,1,64,63,E4
1,58,58,Note_on,1,40,63,E2
1,58,58,Note_on,1,64,63,E4
1,58,59,Note_on,1,64,63,E4
1,58,59,Note_on,1,48,63,C3
1,58,59,Note_on,1,52,63,E3
1,59,59,Note_on,1,64,63,E4
1,59,59,Note_on,1,64,63,E4
1,59,59,Note_on,1,45,63,A2
1,59,59,Note_on,1,64,63,E4
1,59,59,Note_on,1,64,63,E4
1,59,59,Note_on,1,48,63,C3
1,59,59,Note_on,1,52,63,E3
1,59,59,Note_on,1,64,63,E4
1,59,59,Note_on,1,64,63,E4
1,59,59,Note_on,1,40,63,E2
1,59,59,Note_on,1,65,63,F4
1,59,59,Note_on,1,64,63,E4
1,59,59,Note_on,1,48,63,C3
1,59,59,Note_on,1,52,63,E3
1,59,59,Note_on,1,63,63,E-4
1,59,59,Note_on,1,64,63,E4
1,59,59,Note_on,1,45,63,A2
1,60,60,Note_on,1,69,63,A4
1,60,60,Note_on,1,48,63,C3
1,60,60,Note_on,1,52,63,E3
1,60,60,Note_on,1,40,63,E2
1,60,60,Note_on,1,72,63,C5
1,60,60,Note_on,1,48,63,C3
1,60,60,Note_on,1,52,63,E3
1,60,60,Note_on,1,74,63,D5
1,60,60,Note_on,1,47,63,B2
1,60,60,Note_on,1,74,63,D5
1,60,60,Note_on,1,74,63,D5
1,60,60,Note_on,1,50,63,D3
1,60,60,Note_on,1,52,63,E3
1,60,60,Note_on,1,74,63,D5
1,60,61,Note_on,1,74,63,D5
1,61,61,Note_on,1,40,63,E2
1,61,61,Note_on,1,72,63,C5
1,61,61,Note_on,1,71,63,B4
1,61,61,Note_on,1,50,63,D3
1,61,61,Note_on,1,52,63,E3
1,61,61,Note_on,1,74,63,D5
1,61,61,Note_on,1,72,63,C5
1,61,61,Note_on,1,45,63,A2
1,61,61,Note_on,1,72,63,C5
1,61,61,Note_on,1,72,63,C5
1,61,61,Note_on,1,48,63,C3
1,61,61,Note_on,1,52,63,E3
1,61,61,Note_on,1,72,63,C5
1,61,61,Note_on,1,72,63,C5
1,61,61,Note_on,1,40,63,E2
1,61,61,Note_on,1,71,63,B4
1,61,62,Note_on,1,69,63,A4
1,61,62,Note_on,1,48,63,C3
1,61,62,Note_on,1,52,63,E3
1,62,62,Note_on,1,72,63,C5
1,62,62,Note_on,1,71,63,B4
1,62,62,Note_on,1,47,63,B2
1,62,62,Note_on,1,71,63,B4
1,62,62,Note_on,1,71,63,B4
1,62,62,Note_on,1,51,63,E-3
1,62,62,Note_on,1,54,63,F#3
1,62,62,Note_on,1,71,63,B4
1,62,62,Note_on,1,66,63,F#4
1,62,62,Note_on,1,42,63,F#2
1,62,62,Note_on,1,71,63,B4
1,62,62,Note_on,1,51,63,E-3
1,62,62,Note_on,1,54,63,F#3
1,62,62,Note_on,1,68,63,G#4
1,62,63,Note_on,1,52,63,E3
1,62,63,Note_on,1,56,63,G#3
1,63,63,Note_on,1,28,63,E1
1,63,63,Note_on,1,40,63,E2
1,63,63,Note_on,1,42,63,F#2
1,63,63,Note_on,1,44,63,G#2
1,63,63,Note_on,1,64,63,E4
1,63,63,Note_on,1,45,63,A2
1,63,63,Note_on,1,64,63,E4
1,63,63,Note_on,1,64,63,E4
1,63,63,Note_on,1,48,63,C3
1,63,63,Note_on,1,52,63,E3
1,63,64,Note_on,1,64,63,E4
1,64,64,Note_on,1,64,63,E4
1,64,64,Note_on,1,40,63,E2
1,64,64,Note_on,1,64,63,E4
1,64,64,Note_on,1,64,63,E4
1,64,64,Note_on,1,48,63,C3
1,64,64,Note_on,1,52,63,E3
1,64,64,Note_on,1,64,63,E4
1,64,64,Note_on,1,64,63,E4
1,64,64,Note_on,1,45,63,A2
1,64,64,Note_on,1,64,63,E4
1,64,64,Note_on,1,64,63,E4
1,64,64,Note_on,1,48,63,C3
1,64,64,Note_on,1,52,63,E3
1,64,64,Note_on,1,64,63,E4
1,64,64,Note_on,1,64,63,E4
1,64,64,Note_on,1,40,63,E2
1,64,65,Note_on,1,64,63,E4
1,65,65,Note_on,1,64,63,E4
1,65,65,Note_on,1,48,63,C3
1,65,65,Note_on,1,52,63,E3
1,65,65,Note_on,1,64,63,E4
1,65,65,Note_on,1,64,63,E4
1,65,65,Note_on,1,45,63,A2
1,65,65,Note_on,1,65,63,F4
1,65,65,Note_on,1,64,63,E4
1,65,65,Note_on,1,48,63,C3
1,65,65,Note_on,1,52,63,E3
1,65,65,Note_on,1,63,63,E-4
1,65,65,Note_on,1,64,63,E4
1,65,65,Note_on,1,40,63,E2
1,65,65,Note_on,1,69,63,A4
1,65,65,Note_on,1,48,63,C3
1,65,65,Note_on,1,52,63,E3
1,65,65,Note_on,1,72,63,C5
1,65,66,Note_on,1,76,63,E5
1,65,66,Note_on,1,45,63,A2
1,66,66,Note_on,1,81,63,A5
1,66,66,Note_on,1,48,63,C3
1,66,66,Note_on,1,52,63,E3
1,66,66,Note_on,1,40,63,E2
1,66,66,Note_on,1,84,63,C6
1,66,66,Note_on,1,48,63,C3
1,66,66,Note_on,1,52,63,E3
1,66,66,Note_on,1,86,63,D6
1,66,66,Note_on,1,50,63,D3
1,66,66,Note_on,1,84,63,C6
1,66,67,Note_on,1,83,63,B5
1,66,67,Note_on,1,53,63,F3
1,66,67,Note_on,1,57,63,A3
1,67,67,Note_on,1,86,63,D6
1,67,67,Note_on,1,84,63,C6
1,67,67,Note_on,1,48,63,C3
1,67,67,Note_on,1,83,63,B5
1,67,67,Note_on,1,81,63,A5
1,67,67,Note_on,1,52,63,E3
1,67,67,Note_on,1,57,63,A3
1,67,67,Note_on,1,84,63,C6
1,67,67,Note_on,1,83,63,B5
1,67,67,Note_on,1,47,63,B2
1,67,67,Note_on,1,81,63,A5
1,67,67,Note_on,1,80,63,G#5
1,67,67,Note_on,1,50,63,D3
1,67,67,Note_on,1,56,63,G#3
1,67,67,Note_on,1,83,63,B5
1,67,67,Note_on,1,81,63,A5
1,67,67,Note_on,1,45,63,A2
1,67,68,Note_on,1,76,63,E5
1,68,68,Note_on,1,72,63,C5
1,68,68,Note_on,1,48,63,C3
1,68,68,Note_on,1,57,63,A3
1,68,68,Note_on,1,69,63,A4
1,68,68,Note_on,1,77,63,F5
1,68,68,Note_on,1,47,63,B2
1,68,68,Note_on,1,76,63,E5
1,68,68,Note_on,1,74,63,D5
1,68,68,Note_on,1,72,63,C5
1,68,68,Note_on,1,71,63,B4
1,68,68,Note_on,1,69,63,A4
1,68,68,Note_on,1,68,63,G#4
1,68,68,Note_on,1,40,63,E2
1,68,68,Note_on,1,52,63,E3
1,68,68,Note_on,1,71,63,B4
1,68,69,Note_on,1,69,63,A4
1,68,69,Note_on,1,45,63,A2
1,68,69,Note_on,1,57,63,A3
1,69,69,Note_on,1,33,63,A1
1,69,69,Note_on,1,45,63,A2
1,69,69,Note_on,1,48,63,C3
1,69,69,Note_on,1,52,63,E3
1,69,70,Note_on,1,40,63,E2
1,70,70,Note_on,1,48,63,C3
1,70,70,Note_on,1,52,63,E3
1,70,70,Note_on,1,40,63,E2
1,70,70,Note_on,1,42,63,F#2
1,70,70,Note_on,1,44,63,G#2
1,70,70,Note_on,1,33,63,A1
1,70,70,Note_on,1,45,63,A2
1,70,71,Note_on,1,48,63,C3
1,70,71,Note_on,1,52,63,E3
1,71,71,Note_on,1,40,63,E2
1,71,71,Note_on,1,48,63,C3
1,71,71,Note_on,1,52,63,E3
1,71,71,Note_on,1,33,63,A1
1,71,71,Note_on,1,45,63,A2
1,71,72,Note_on,1,48,63,C3
1,71,72,Note_on,1,52,63,E3
1,71,72,Note_on,1,57,63,A3
1,72,72,Note_on,1,40,63,E2
1,72,72,Note_on,1,48,63,C3
1,72,72,Note_on,1,52,63,E3
1,72,72,Note_on,1,57,63,A3
1,72,72,Note_on,1,40,63,E2
1,72,72,Note_on,1,42,63,F#2
1,72,72,Note_on,1,44,63,G#2
1,72,73,Note_on,1,33,63,A1
1,72,73,Note_on,1,45,63,A2
1,73,73,Note_on,1,48,63,C3
1,73,73,Note_on,1,52,63,E3
1,73,73,Note_on,1,57,63,A3
1,73,73,Note_on,1,40,63,E2
1,73,73,Note_on,1,48,63,C3
1,73,73,Note_on,1,52,63,E3
1,73,73,Note_on,1,57,63,A3
1,73,73,Note_on,1,33,63,A1
1,73,73,Note_on,1,45,63,A2
1,73,74,Note_on,1,52,63,E3
1,73,74,Note_on,1,57,63,A3
1,73,74,Note_on,1,60,63,C4
1,74,74,Note_on,1,40,63,E2
1,74,74,Note_on,1,52,63,E3
1,74,74,Note_on,1,57,63,A3
1,74,74,Note_on,1,60,63,C4
1,74,74,Note_on,1,33,63,A1
1,74,74,Note_on,1,45,63,A2
1,74,74,Note_on,1,57,63,A3
1,74,74,Note_on,1,60,63,C4
1,74,74,Note_on,1,64,63,E4
1,74,74,Note_on,1,40,63,E2
1,74,75,Note_on,1,57,63,A3
1,74,75,Note_on,1,60,63,C4
1,74,75,Note_on,1,64,63,E4
1,75,75,Note_on,1,33,63,A1
1,75,75,Note_on,1,45,63,A2
1,75,75,Note_on,1,60,63,C4
1,75,75,Note_on,1,64,63,E4
1,75,75,Note_on,1,69,63,A4
1,75,75,Note_on,1,40,63,E2
1,75,75,Note_on,1,64,63,E4
1,75,75,Note_on,1,69,63,A4
1,75,75,Note_on,1,72,63,C5
1,75,75,Note_on,1,33,63,A1
1,75,75,Note_on,1,45,63,A2
1,75,75,Note_on,1,69,63,A4
1,75,75,Note_on,1,72,63,C5
1,75,75,Note_on,1,76,63,E5
1,75,75,Note_on,1,40,63,E2
1,75,76,Note_on,1,72,63,C5
1,75,76,Note_on,1,76,63,E5
1,75,76,Note_on,1,81,63,A5
1,76,76,Note_on,1,76,63,E5
1,76,76,Note_on,1,45,63,A2
1,76,76,Note_on,1,69,63,A4
1,76,76,Note_on,1,72,63,C5
1,76,76,Note_on,1,76,63,E5
1,76,76,Note_on,1,48,63,C3
1,76,76,Note_on,1,52,63,E3
1,76,76,Note_on,1,69,63,A4
1,76,76,Note_on,1,72,63,C5
1,76,76,Note_on,1,76,63,E5
1,76,76,Note_on,1,40,63,E2
1,76,76,Note_on,1,69,63,A4
1,76,76,Note_on,1,72,63,C5
1,76,76,Note_on,1,76,63,E5
1,76,76,Note_on,1,48,63,C3
1,76,76,Note_on,1,52,63,E3
1,76,76,Note_on,1,69,63,A4
1,76,76,Note_on,1,72,63,C5
1,76,77,Note_on,1,76,63,E5
1,76,77,Note_on,1,45,63,A2
1,77,77,Note_on,1,69,63,A4
1,77,77,Note_on,1,72,63,C5
1,77,77,Note_on,1,76,63,E5
1,77,77,Note_on,1,48,63,C3
1,77,77,Note_on,1,52,63,E3
1,77,77,Note_on,1,69,63,A4
1,77,77,Note_on,1,72,63,C5
1,77,77,Note_on,1,76,63,E5
1,77,77,Note_on,1,40,63,E2
1,77,77,Note_on,1,69,63,A4
1,77,77,Note_on,1,72,63,C5
1,77,77,Note_on,1,76,63,E5
1,77,77,Note_on,1,48,63,C3
1,77,77,Note_on,1,52,63,E3
1,77,77,Note_on,1,69,63,A4
1,77,77,Note_on,1,72,63,C5
1,77,77,Note_on,1,76,63,E5
1,77,77,Note_on,1,45,63,A2
1,77,77,Note_on,1,69,63,A4
1,77,77,Note_on,1,72,63,C5
1,77,78,Note_on,1,76,63,E5
1,77,78,Note_on,1,48,63,C3
1,77,78,Note_on,1,52,63,E3
1,78,78,Note_on,1,69,63,A4
1,78,78,Note_on,1,72,63,C5
1,78,78,Note_on,1,76,63,E5
1,78,78,Note_on,1,40,63,E2
1,78,78,Note_on,1,77,63,F5
1,78,78,Note_on,1,76,63,E5
1,78,78,Note_on,1,48,63,C3
1,78,78,Note_on,1,52,63,E3
1,78,78,Note_on,1,75,63,E-5
1,78,78,Note_on,1,76,63,E5
1,78,78,Note_on,1,45,63,A2
1,78,78,Note_on,1,81,63,A5
1,78,78,Note_on,1,48,63,C3
1,78,78,Note_on,1,52,63,E3
1,78,78,Note_on,1,40,63,E2
1,78,79,Note_on,1,84,63,C6
1,79,79,Note_on,1,48,63,C3
1,79,79,Note_on,1,52,63,E3
1,79,79,Note_on,1,76,63,E5
1,79,79,Note_on,1,80,63,G#5
1,79,79,Note_on,1,47,63,B2
1,79,79,Note_on,1,86,63,D6
1,79,79,Note_on,1,76,63,E5
1,79,79,Note_on,1,80,63,G#5
1,79,79,Note_on,1,50,63,D3
1,79,79,Note_on,1,52,63,E3
1,79,79,Note_on,1,86,63,D6
1,79,79,Note_on,1,76,63,E5
1,79,79,Note_on,1,80,63,G#5
1,79,79,Note_on,1,40,63,E2
1,79,79,Note_on,1,86,63,D6
1,79,79,Note_on,1,76,63,E5
1,79,79,Note_on,1,80,63,G#5
1,79,79,Note_on,1,50,63,D3
1,79,79,Note_on,1,52,63,E3
1,79,80,Note_on,1,86,63,D6
1,80,80,Note_on,1,76,63,E5
1,80,80,Note_on,1,81,63,A5
1,80,80,Note_on,1,45,63,A2
1,80,80,Note_on,1,84,63,C6
1,80,80,Note_on,1,76,63,E5
1,80,80,Note_on,1,81,63,A5
1,80,80,Note_on,1,48,63,C3
1,80,80,Note_on,1,52,63,E3
1,80,80,Note_on,1,84,63,C6
1,80,80,Note_on,1,76,63,E5
1,80,80,Note_on,1,81,63,A5
1,80,80,Note_on,1,40,63,E2
1,80,80,Note_on,1,84,63,C6
1,80,80,Note_on,1,76,63,E5
1,80,80,Note_on,1,81,63,A5
1,80,80,Note_on,1,48,63,C3
1,80,80,Note_on,1,52,63,E3
1,80,80,Note_on,1,84,63,C6
1,80,80,Note_on,1,75,63,E-5
1,80,80,Note_on,1,78,63,F#5
1,80,80,Note_on,1,47,63,B2
1,80,81,Note_on,1,83,63,B5
1,81,81,Note_on,1,75,63,E-5
1,81,81,Note_on,1,78,63,F#5
1,81,81,Note_on,1,51,63,E-3
1,81,81,Note_on,1,54,63,F#3
1,81,81,Note_on,1,83,63,B5
1,81,81,Note_on,1,78,63,F#5
1,81,81,Note_on,1,42,63,F#2
1,81,81,Note_on,1,83,63,B5
1,81,81,Note_on,1,51,63,E-3
1,81,81,Note_on,1,54,63,F#3
1,81,81,Note_on,1,76,63,E5
1,81,81,Note_on,1,80,63,G#5
1,81,81,Note_on,1,52,63,E3
1,81,81,Note_on,1,56,63,G#3
1,82,82,Note_on,1,28,63,E1
1,82,82,Note_on,1,40,63,E2
1,82,82,Note_on,1,42,63,F#2
1,82,82,Note_on,1,44,63,G#2
1,82,82,Note_on,1,76,63,E5
1,82,82,Note_on,1,45,63,A2
1,82,82,Note_on,1,69,63,A4
1,82,82,Note_on,1,72,63,C5
1,82,82,Note_on,1,76,63,E5
1,82,82,Note_on,1,48,63,C3
1,82,82,Note_on,1,52,63,E3
1,82,82,Note_on,1,69,63,A4
1,82,82,Note_on,1,72,63,C5
1,82,82,Note_on,1,76,63,E5
1,82,82,Note_on,1,40,63,E2
1,82,82,Note_on,1,69,63,A4
1,82,82,Note_on,1,72,63,C5
1,82,83,Note_on,1,76,63,E5
1,82,83,Note_on,1,48,63,C3
1,82,83,Note_on,1,52,63,E3
1,83,83,Note_on,1,69,63,A4
1,83,83,Note_on,1,72,63,C5
1,83,83,Note_on,1,76,63,E5
1,83,83,Note_on,1,45,63,A2
1,83,83,Note_on,1,69,63,A4
1,83,83,Note_on,1,72,63,C5
1,83,83,Note_on,1,76,63,E5
1,83,83,Note_on,1,48,63,C3
1,83,83,Note_on,1,52,63,E3
1,83,83,Note_on,1,69,63,A4
1,83,83,Note_on,1,72,63,C5
1,83,83,Note_on,1,76,63,E5
1,83,83,Note_on,1,40,63,E2
1,83,83,Note_on,1,69,63,A4
1,83,83,Note_on,1,72,63,C5
1,83,83,Note_on,1,76,63,E5
1,83,83,Note_on,1,48,63,C3
1,83,83,Note_on,1,52,63,E3
1,83,83,Note_on,1,69,63,A4
1,83,83,Note_on,1,72,63,C5
1,83,84,Note_on,1,76,63,E5
1,83,84,Note_on,1,45,63,A2
1,84,84,Note_on,1,77,63,F5
1,84,84,Note_on,1,76,63,E5
1,84,84,Note_on,1,48,63,C3
1,84,84,Note_on,1,52,63,E3
1,84,84,Note_on,1,75,63,E-5
1,84,84,Note_on,1,76,63,E5
1,84,84,Note_on,1,40,63,E2
1,84,84,Note_on,1,81,63,A5
1,84,84,Note_on,1,48,63,C3
1,84,84,Note_on,1,52,63,E3
1,84,84,Note_on,1,84,63,C6
1,84,84,Note_on,1,88,63,E6
1,84,84,Note_on,1,45,63,A2
1,84,85,Note_on,1,93,63,A6
1,84,85,Note_on,1,48,63,C3
1,84,85,Note_on,1,52,63,E3
1,85,85,Note_on,1,40,63,E2
1,85,85,Note_on,1,96,63,C7
1,85,85,Note_on,1,48,63,C3
1,85,85,Note_on,1,52,63,E3
1,85,85,Note_on,1,98,63,D7
1,85,85,Note_on,1,50,63,D3
1,85,85,Note_on,1,96,63,C7
1,85,85,Note_on,1,95,63,B6
1,85,85,Note_on,1,53,63,F3
1,85,85,Note_on,1,57,63,A3
1,85,85,Note_on,1,98,63,D7
1,85,85,Note_on,1,96,63,C7
1,85,85,Note_on,1,48,63,C3
1,85,86,Note_on,1,95,63,B6
1,86,86,Note_on,1,93,63,A6
1,86,86,Note_on,1,52,63,E3
1,86,86,Note_on,1,57,63,A3
1,86,86,Note_on,1,96,63,C7
1,86,86,Note_on,1,95,63,B6
1,86,86,Note_on,1,47,63,B2
1,86,86,Note_on,1,93,63,A6
1,86,86,Note_on,1,92,63,G#6
1,86,86,Note_on,1,50,63,D3
1,86,86,Note_on,1,56,63,G#3
1,86,86,Note_on,1,95,63,B6
1,86,86,Note_on,1,93,63,A6
1,86,86,Note_on,1,45,63,A2
1,86,86,Note_on,1,88,63,E6
1,86,86,Note_on,1,84,63,C6
1,86,86,Note_on,1,48,63,C3
1,86,86,Note_on,1,52,63,E3
1,86,87,Note_on,1,81,63,A5
1,87,87,Note_on,1,89,63,F6
1,87,87,Note_on,1,47,63,B2
1,87,87,Note_on,1,88,63,E6
1,87,87,Note_on,1,86,63,D6
1,87,87,Note_on,1,84,63,C6
1,87,87,Note_on,1,83,63,B5
1,87,87,Note_on,1,81,63,A5
1,87,87,Note_on,1,80,63,G#5
1,87,87,Note_on,1,40,63,E2
1,87,87,Note_on,1,52,63,E3
1,87,87,Note_on,1,83,63,B5
1,87,87,Note_on,1,81,63,A5
1,87,87,Note_on,1,45,63,A2
1,87,87,Note_on,1,57,63,A3
1,88,88,Note_on,1,45,63,A2
1,88,88,Note_on,1,62,63,D4
1,88,88,Note_on,1,74,63,D5
1,88,88,Note_on,1,65,63,F4
1,88,88,Note_on,1,69,63,A4
1,88,88,Note_on,1,73,63,C#5
1,88,89,Note_on,1,74,63,D5
1,89,89,Note_on,1,76,63,E5
1,89,89,Note_on,1,65,63,F4
1,89,89,Note_on,1,69,63,A4
1,89,89,Note_on,1,77,63,F5
1,89,89,Note_on,1,76,63,E5
1,89,89,Note_on,1,65,63,F4
1,89,89,Note_on,1,69,63,A4
1,89,89,Note_on,1,74,63,D5
1,89,89,Note_on,1,62,63,D4
1,89,89,Note_on,1,77,63,F5
1,89,89,Note_on,1,65,63,F4
1,89,89,Note_on,1,69,63,A4
1,90,90,Note_on,1,60,63,C4
1,90,90,Note_on,1,76,63,E5
1,90,90,Note_on,1,64,63,E4
1,90,90,Note_on,1,69,63,A4
1,90,90,Note_on,1,74,63,D5
1,90,90,Note_on,1,72,63,C5
1,90,90,Note_on,1,74,63,D5
1,90,90,Note_on,1,64,63,E4
1,90,90,Note_on,1,69,63,A4
1,91,91,Note_on,1,64,63,E4
1,91,91,Note_on,1,69,63,A4
1,91,91,Note_on,1,60,63,C4
1,90,91,Note_on,1,76,63,E5
1,91,91,Note_on,1,64,63,E4
1,91,91,Note_on,1,69,63,A4
1,91,91,Note_on,1,72,63,C5
1,91,91,Note_on,1,59,63,B3
1,91,91,Note_on,1,71,63,B4
1,91,91,Note_on,1,59,63,B3
1,91,91,Note_on,1,64,63,E4
1,91,91,Note_on,1,70,63,B-4
1,91,92,Note_on,1,71,63,B4
1,92,92,Note_on,1,72,63,C5
1,92,92,Note_on,1,59,63,B3
1,92,92,Note_on,1,64,63,E4
1,92,92,Note_on,1,74,63,D5
1,92,92,Note_on,1,72,63,C5
1,92,92,Note_on,1,59,63,B3
1,92,92,Note_on,1,64,63,E4
1,92,92,Note_on,1,71,63,B4
1,92,92,Note_on,1,59,63,B3
1,92,92,Note_on,1,74,63,D5
1,92,92,Note_on,1,59,63,B3
1,92,92,Note_on,1,64,63,E4
1,93,93,Note_on,1,72,63,C5
1,93,93,Note_on,1,57,63,A3
1,93,93,Note_on,1,69,63,A4
1,93,93,Note_on,1,57,63,A3
1,93,93,Note_on,1,72,63,C5
1,93,93,Note_on,1,60,63,C4
1,93,93,Note_on,1,76,63,E5
1,93,93,Note_on,1,64,63,E4
1,93,93,Note_on,1,81,63,A5
1,93,93,Note_on,1,57,63,A3
1,93,93,Note_on,1,69,63,A4
1,94,94,Note_on,1,76,63,E5
1,94,94,Note_on,1,52,63,E3
1,94,94,Note_on,1,64,63,E4
1,94,94,Note_on,1,72,63,C5
1,94,94,Note_on,1,48,63,C3
1,94,94,Note_on,1,60,63,C4
1,94,94,Note_on,1,69,63,A4
1,94,94,Note_on,1,45,63,A2
1,94,94,Note_on,1,57,63,A3
1,94,94,Note_on,1,50,63,D3
1,94,94,Note_on,1,74,63,D5
1,94,94,Note_on,1,53,63,F3
1,94,94,Note_on,1,57,63,A3
1,94,94,Note_on,1,73,63,C#5
1,94,95,Note_on,1,74,63,D5
1,94,95,Note_on,1,45,63,A2
1,95,95,Note_on,1,76,63,E5
1,95,95,Note_on,1,53,63,F3
1,95,95,Note_on,1,57,63,A3
1,95,95,Note_on,1,77,63,F5
1,95,95,Note_on,1,50,63,D3
1,95,95,Note_on,1,76,63,E5
1,95,95,Note_on,1,53,63,F3
1,95,95,Note_on,1,57,63,A3
1,95,95,Note_on,1,74,63,D5
1,95,95,Note_on,1,45,63,A2
1,95,96,Note_on,1,77,63,F5
1,95,96,Note_on,1,53,63,F3
1,95,96,Note_on,1,57,63,A3
1,96,96,Note_on,1,48,63,C3
1,96,96,Note_on,1,76,63,E5
1,96,96,Note_on,1,52,63,E3
1,96,96,Note_on,1,57,63,A3
1,96,96,Note_on,1,74,63,D5
1,96,96,Note_on,1,72,63,C5
1,96,96,Note_on,1,45,63,A2
1,96,96,Note_on,1,74,63,D5
1,96,96,Note_on,1,52,63,E3
1,96,96,Note_on,1,57,63,A3
1,96,96,Note_on,1,76,63,E5
1,96,96,Note_on,1,48,63,C3
1,97,97,Note_on,1,52,63,E3
1,97,97,Note_on,1,57,63,A3
1,97,97,Note_on,1,45,63,A2
1,97,97,Note_on,1,81,63,A5
1,97,97,Note_on,1,52,63,E3
1,97,97,Note_on,1,57,63,A3
1,97,97,Note_on,1,50,63,D3
1,97,97,Note_on,1,53,63,F3
1,97,97,Note_on,1,57,63,A3
1,97,97,Note_on,1,74,63,D5
1,97,98,Note_on,1,47,63,B2
1,98,98,Note_on,1,77,63,F5
1,98,98,Note_on,1,53,63,F3
1,98,98,Note_on,1,57,63,A3
1,98,98,Note_on,1,76,63,E5
1,98,98,Note_on,1,40,63,E2
1,98,98,Note_on,1,52,63,E3
1,98,98,Note_on,1,72,63,C5
1,98,98,Note_on,1,36,63,C2
1,98,98,Note_on,1,48,63,C3
1,98,98,Note_on,1,74,63,D5
1,98,98,Note_on,1,38,63,D2
1,98,98,Note_on,1,50,63,D3
1,98,99,Note_on,1,71,63,B4
1,98,99,Note_on,1,35,63,B1
1,98,99,Note_on,1,47,63,B2
1,99,99,Note_on,1,69,63,A4
1,99,99,Note_on,1,33,63,A1
1,99,99,Note_on,1,45,63,A2
1,99,99,Note_on,1,64,63,E4
1,99,99,Note_on,1,68,63,G#4
1,99,99,Note_on,1,76,63,E5
1,99,99,Note_on,1,28,63,E1
1,99,99,Note_on,1,40,63,E2
1,99,100,Note_on,1,69,63,A4
1,99,100,Note_on,1,72,63,C5
1,99,100,Note_on,1,81,63,A5
1,99,100,Note_on,1,33,63,A1
1,99,100,Note_on,1,45,63,A2
1,100,100,Note_on,1,28,63,E1
1,100,100,Note_on,1,40,63,E2
1,100,100,Note_on,1,64,63,E4
1,100,100,Note_on,1,45,63,A2
1,100,100,Note_on,1,57,63,A3
1,100,100,Note_on,1,60,63,C4
1,100,101,Note_on,1,64,63,E4
1,100,101,Note_on,1,48,63,C3
1,100,101,Note_on,1,52,63,E3
1,101,101,Note_on,1,57,63,A3
1,101,101,Note_on,1,60,63,C4
1,101,101,Note_on,1,64,63,E4
1,101,101,Note_on,1,40,63,E2
1,101,101,Note_on,1,57,63,A3
1,101,101,Note_on,1,60,63,C4
1,101,101,Note_on,1,64,63,E4
1,101,101,Note_on,1,48,63,C3
1,101,101,Note_on,1,52,63,E3
1,101,101,Note_on,1,57,63,A3
1,101,101,Note_on,1,60,63,C4
1,101,101,Note_on,1,64,63,E4
1,101,101,Note_on,1,45,63,A2
1,101,101,Note_on,1,57,63,A3
1,101,101,Note_on,1,60,63,C4
1,101,101,Note_on,1,64,63,E4
1,101,101,Note_on,1,48,63,C3
1,101,101,Note_on,1,52,63,E3
1,101,101,Note_on,1,57,63,A3
1,101,101,Note_on,1,60,63,C4
1,101,102,Note_on,1,64,63,E4
1,101,102,Note_on,1,40,63,E2
1,102,102,Note_on,1,57,63,A3
1,102,102,Note_on,1,60,63,C4
1,102,102,Note_on,1,64,63,E4
1,102,102,Note_on,1,48,63,C3
1,102,102,Note_on,1,52,63,E3
1,102,102,Note_on,1,57,63,A3
1,102,102,Note_on,1,60,63,C4
1,102,102,Note_on,1,64,63,E4
1,102,102,Note_on,1,45,63,A2
1,102,102,Note_on,1,57,63,A3
1,102,102,Note_on,1,60,63,C4
1,102,102,Note_on,1,64,63,E4
1,102,102,Note_on,1,48,63,C3
1,102,102,Note_on,1,52,63,E3
1,102,102,Note_on,1,57,63,A3
1,102,102,Note_on,1,60,63,C4
1,102,102,Note_on,1,64,63,E4
1,102,102,Note_on,1,40,63,E2
1,102,102,Note_on,1,65,63,F4
1,102,103,Note_on,1,64,63,E4
1,102,103,Note_on,1,48,63,C3
1,102,103,Note_on,1,52,63,E3
1,103,103,Note_on,1,63,63,E-4
1,103,103,Note_on,1,64,63,E4
1,103,103,Note_on,1,45,63,A2
1,103,103,Note_on,1,69,63,A4
1,103,103,Note_on,1,48,63,C3
1,103,103,Note_on,1,52,63,E3
1,103,103,Note_on,1,40,63,E2
1,103,103,Note_on,1,72,63,C5
1,103,103,Note_on,1,48,63,C3
1,103,103,Note_on,1,52,63,E3
1,103,103,Note_on,1,64,63,E4
1,103,103,Note_on,1,68,63,G#4
1,103,103,Note_on,1,47,63,B2
1,103,104,Note_on,1,74,63,D5
1,104,104,Note_on,1,64,63,E4
1,104,104,Note_on,1,68,63,G#4
1,104,104,Note_on,1,50,63,D3
1,104,104,Note_on,1,52,63,E3
1,104,104,Note_on,1,74,63,D5
1,104,104,Note_on,1,64,63,E4
1,104,104,Note_on,1,68,63,G#4
1,104,104,Note_on,1,40,63,E2
1,104,104,Note_on,1,74,63,D5
1,104,104,Note_on,1,64,63,E4
1,104,104,Note_on,1,68,63,G#4
1,104,104,Note_on,1,50,63,D3
1,104,104,Note_on,1,52,63,E3
1,104,104,Note_on,1,74,63,D5
1,104,104,Note_on,1,64,63,E4
1,104,104,Note_on,1,69,63,A4
1,104,104,Note_on,1,45,63,A2
1,104,104,Note_on,1,72,63,C5
1,104,104,Note_on,1,64,63,E4
1,104,104,Note_on,1,69,63,A4
1,104,104,Note_on,1,48,63,C3
1,104,104,Note_on,1,52,63,E3
1,104,105,Note_on,1,72,63,C5
1,105,105,Note_on,1,64,63,E4
1,105,105,Note_on,1,69,63,A4
1,105,105,Note_on,1,40,63,E2
1,105,105,Note_on,1,72,63,C5
1,105,105,Note_on,1,64,63,E4
1,105,105,Note_on,1,69,63,A4
1,105,105,Note_on,1,48,63,C3
1,105,105,Note_on,1,52,63,E3
1,105,105,Note_on,1,72,63,C5
1,105,105,Note_on,1,63,63,E-4
1,105,105,Note_on,1,66,63,F#4
1,105,105,Note_on,1,47,63,B2
1,105,105,Note_on,1,71,63,B4
1,105,105,Note_on,1,63,63,E-4
1,105,105,Note_on,1,66,63,F#4
1,105,105,Note_on,1,51,63,E-3
1,105,105,Note_on,1,54,63,F#3
1,105,105,Note_on,1,71,63,B4
1,105,105,Note_on,1,66,63,F#4
1,105,105,Note_on,1,42,63,F#2
1,105,106,Note_on,1,71,63,B4
1,106,106,Note_on,1,51,63,E-3
1,106,106,Note_on,1,54,63,F#3
1,106,106,Note_on,1,64,63,E4
1,106,106,Note_on,1,68,63,G#4
1,106,106,Note_on,1,52,63,E3
1,106,106,Note_on,1,56,63,G#3
1,106,106,Note_on,1,28,63,E1
1,106,106,Note_on,1,40,63,E2
1,106,106,Note_on,1,42,63,F#2
1,106,106,Note_on,1,44,63,G#2
1,106,107,Note_on,1,64,63,E4
1,106,107,Note_on,1,45,63,A2
1,107,107,Note_on,1,57,63,A3
1,107,107,Note_on,1,60,63,C4
1,107,107,Note_on,1,64,63,E4
1,107,107,Note_on,1,48,63,C3
1,107,107,Note_on,1,52,63,E3
1,107,107,Note_on,1,57,63,A3
1,107,107,Note_on,1,60,63,C4
1,107,107,Note_on,1,64,63,E4
1,107,107,Note_on,1,40,63,E2
1,107,107,Note_on,1,57,63,A3
1,107,107,Note_on,1,60,63,C4
1,107,107,Note_on,1,64,63,E4
1,107,107,Note_on,1,48,63,C3
1,107,107,Note_on,1,52,63,E3
1,107,107,Note_on,1,57,63,A3
1,107,107,Note_on,1,60,63,C4
1,107,107,Note_on,1,64,63,E4
1,107,107,Note_on,1,45,63,A2
1,107,107,Note_on,1,57,63,A3
1,107,107,Note_on,1,60,63,C4
1,107,108,Note_on,1,64,63,E4
1,107,108,Note_on,1,48,63,C3
1,107,108,Note_on,1,52,63,E3
1,108,108,Note_on,1,57,63,A3
1,108,108,Note_on,1,60,63,C4
1,108,108,Note_on,1,64,63,E4
1,108,108,Note_on,1,40,63,E2
1,108,108,Note_on,1,57,63,A3
1,108,108,Note_on,1,60,63,C4
1,108,108,Note_on,1,64,63,E4
1,108,108,Note_on,1,48,63,C3
1,108,108,Note_on,1,52,63,E3
1,108,108,Note_on,1,57,63,A3
1,108,108,Note_on,1,60,63,C4
1,108,108,Note_on,1,64,63,E4
1,108,108,Note_on,1,45,63,A2
1,108,108,Note_on,1,65,63,F4
1,108,108,Note_on,1,64,63,E4
1,108,108,Note_on,1,48,63,C3
1,108,108,Note_on,1,52,63,E3
1,108,108,Note_on,1,63,63,E-4
1,108,109,Note_on,1,64,63,E4
1,108,109,Note_on,1,40,63,E2
1,109,109,Note_on,1,69,63,A4
1,109,109,Note_on,1,48,63,C3
1,109,109,Note_on,1,52,63,E3
1,109,109,Note_on,1,72,63,C5
1,109,109,Note_on,1,76,63,E5
1,109,109,Note_on,1,45,63,A2
1,109,109,Note_on,1,81,63,A5
1,109,109,Note_on,1,48,63,C3
1,109,109,Note_on,1,52,63,E3
1,109,109,Note_on,1,40,63,E2
1,109,109,Note_on,1,84,63,C6
1,109,109,Note_on,1,48,63,C3
1,109,109,Note_on,1,52,63,E3
1,110,110,Note_on,1,86,63,D6
1,110,110,Note_on,1,50,63,D3
1,110,110,Note_on,1,53,63,F3
1,110,110,Note_on,1,84,63,C6
1,110,110,Note_on,1,83,63,B5
1,110,110,Note_on,1,57,63,A3
1,110,110,Note_on,1,86,63,D6
1,110,110,Note_on,1,84,63,C6
1,110,110,Note_on,1,48,63,C3
1,110,110,Note_on,1,52,63,E3
1,110,110,Note_on,1,83,63,B5
1,110,110,Note_on,1,81,63,A5
1,110,110,Note_on,1,57,63,A3
1,110,110,Note_on,1,84,63,C6
1,110,110,Note_on,1,83,63,B5
1,110,110,Note_on,1,47,63,B2
1,110,110,Note_on,1,50,63,D3
1,110,110,Note_on,1,81,63,A5
1,110,111,Note_on,1,80,63,G#5
1,110,111,Note_on,1,52,63,E3
1,111,111,Note_on,1,83,63,B5
1,111,111,Note_on,1,81,63,A5
1,111,111,Note_on,1,45,63,A2
1,111,111,Note_on,1,48,63,C3
1,111,111,Note_on,1,76,63,E5
1,111,111,Note_on,1,72,63,C5
1,111,111,Note_on,1,52,63,E3
1,111,111,Note_on,1,69,63,A4
1,111,111,Note_on,1,77,63,F5
1,111,111,Note_on,1,44,63,G#2
1,111,111,Note_on,1,52,63,E3
1,111,111,Note_on,1,76,63,E5
1,111,111,Note_on,1,74,63,D5
1,111,111,Note_on,1,72,63,C5
1,111,112,Note_on,1,71,63,B4
1,112,112,Note_on,1,69,63,A4
1,112,112,Note_on,1,68,63,G#4
1,111,112,Note_on,1,40,63,E2
1,111,112,Note_on,1,52,63,E3
1,112,112,Note_on,1,71,63,B4
1,112,112,Note_on,1,69,63,A4
1,112,112,Note_on,1,45,63,A2
1,112,112,Note_on,1,57,63,A3
1,112,113,Note_on,1,33,63,A1
1,112,113,Note_on,1,45,63,A2
1,113,113,Note_on,1,65,63,F4
1,113,113,Note_on,1,46,63,B-2
1,113,113,Note_on,1,58,63,B-3
1,113,113,Note_on,1,61,63,C#4
1,113,113,Note_on,1,65,63,F4
1,113,113,Note_on,1,49,63,C#3
1,113,113,Note_on,1,53,63,F3
1,113,113,Note_on,1,58,63,B-3
1,113,113,Note_on,1,61,63,C#4
1,113,113,Note_on,1,65,63,F4
1,113,113,Note_on,1,41,63,F2
1,113,113,Note_on,1,58,63,B-3
1,113,113,Note_on,1,61,63,C#4
1,113,113,Note_on,1,65,63,F4
1,113,113,Note_on,1,49,63,C#3
1,113,113,Note_on,1,53,63,F3
1,113,113,Note_on,1,58,63,B-3
1,113,113,Note_on,1,61,63,C#4
1,113,114,Note_on,1,65,63,F4
1,113,114,Note_on,1,46,63,B-2
1,114,114,Note_on,1,58,63,B-3
1,114,114,Note_on,1,61,63,C#4
1,114,114,Note_on,1,65,63,F4
1,114,114,Note_on,1,49,63,C#3
1,114,114,Note_on,1,53,63,F3
1,114,114,Note_on,1,58,63,B-3
1,114,114,Note_on,1,61,63,C#4
1,114,114,Note_on,1,65,63,F4
1,114,114,Note_on,1,41,63,F2
1,114,114,Note_on,1,58,63,B-3
1,114,114,Note_on,1,61,63,C#4
1,114,114,Note_on,1,65,63,F4
1,114,114,Note_on,1,49,63,C#3
1,114,114,Note_on,1,53,63,F3
1,114,114,Note_on,1,58,63,B-3
1,114,114,Note_on,1,61,63,C#4
1,114,114,Note_on,1,65,63,F4
1,114,114,Note_on,1,46,63,B-2
1,114,114,Note_on,1,58,63,B-3
1,114,114,Note_on,1,61,63,C#4
1,114,114,Note_on,1,65,63,F4
1,114,114,Note_on,1,49,63,C#3
1,114,114,Note_on,1,53,63,F3
1,115,115,Note_on,1,58,63,B-3
1,115,115,Note_on,1,61,63,C#4
1,115,115,Note_on,1,65,63,F4
1,115,115,Note_on,1,41,63,F2
1,115,115,Note_on,1,66,63,F#4
1,115,115,Note_on,1,65,63,F4
1,115,115,Note_on,1,49,63,C#3
1,115,115,Note_on,1,53,63,F3
1,115,115,Note_on,1,64,63,E4
1,115,115,Note_on,1,65,63,F4
1,115,115,Note_on,1,46,63,B-2
1,115,115,Note_on,1,70,63,B-4
1,115,115,Note_on,1,49,63,C#3
1,115,115,Note_on,1,53,63,F3
1,115,115,Note_on,1,41,63,F2
1,115,115,Note_on,1,73,63,C#5
1,115,115,Note_on,1,49,63,C#3
1,115,115,Note_on,1,53,63,F3
1,115,116,Note_on,1,65,63,F4
1,115,116,Note_on,1,69,63,A4
1,115,116,Note_on,1,48,63,C3
1,116,116,Note_on,1,75,63,E-5
1,116,116,Note_on,1,65,63,F4
1,116,116,Note_on,1,69,63,A4
1,116,116,Note_on,1,51,63,E-3
1,116,116,Note_on,1,53,63,F3
1,116,116,Note_on,1,75,63,E-5
1,116,116,Note_on,1,65,63,F4
1,116,116,Note_on,1,69,63,A4
1,116,116,Note_on,1,41,63,F2
1,116,116,Note_on,1,75,63,E-5
1,116,116,Note_on,1,65,63,F4
1,116,116,Note_on,1,69,63,A4
1,116,116,Note_on,1,51,63,E-3
1,116,116,Note_on,1,53,63,F3
1,116,116,Note_on,1,75,63,E-5
1,116,116,Note_on,1,65,63,F4
1,116,116,Note_on,1,70,63,B-4
1,116,116,Note_on,1,46,63,B-2
1,116,116,Note_on,1,73,63,C#5
1,116,116,Note_on,1,65,63,F4
1,116,116,Note_on,1,70,63,B-4
1,116,116,Note_on,1,49,63,C#3
1,116,116,Note_on,1,53,63,F3
1,116,117,Note_on,1,73,63,C#5
1,117,117,Note_on,1,65,63,F4
1,117,117,Note_on,1,70,63,B-4
1,117,117,Note_on,1,41,63,F2
1,117,117,Note_on,1,73,63,C#5
1,117,117,Note_on,1,65,63,F4
1,117,117,Note_on,1,70,63,B-4
1,117,117,Note_on,1,49,63,C#3
1,117,117,Note_on,1,53,63,F3
1,117,117,Note_on,1,73,63,C#5
1,117,117,Note_on,1,64,63,E4
1,117,117,Note_on,1,67,63,G4
1,117,117,Note_on,1,48,63,C3
1,117,117,Note_on,1,72,63,C5
1,117,117,Note_on,1,64,63,E4
1,117,117,Note_on,1,67,63,G4
1,117,117,Note_on,1,52,63,E3
1,117,117,Note_on,1,55,63,G3
1,117,117,Note_on,1,72,63,C5
1,117,117,Note_on,1,67,63,G4
1,117,117,Note_on,1,43,63,G2
1,117,118,Note_on,1,72,63,C5
1,117,118,Note_on,1,52,63,E3
1,117,118,Note_on,1,55,63,G3
1,118,118,Note_on,1,65,63,F4
1,118,118,Note_on,1,69,63,A4
1,118,118,Note_on,1,53,63,F3
1,118,118,Note_on,1,57,63,A3
1,118,118,Note_on,1,29,63,F1
1,118,118,Note_on,1,41,63,F2
1,118,118,Note_on,1,43,63,G2
1,118,118,Note_on,1,45,63,A2
1,118,118,Note_on,1,65,63,F4
1,118,118,Note_on,1,46,63,B-2
1,118,118,Note_on,1,58,63,B-3
1,118,118,Note_on,1,61,63,C#4
1,118,118,Note_on,1,65,63,F4
1,118,118,Note_on,1,49,63,C#3
1,118,118,Note_on,1,53,63,F3
1,118,118,Note_on,1,58,63,B-3
1,118,118,Note_on,1,61,63,C#4
1,118,118,Note_on,1,65,63,F4
1,118,118,Note_on,1,41,63,F2
1,118,118,Note_on,1,58,63,B-3
1,118,118,Note_on,1,61,63,C#4
1,118,119,Note_on,1,65,63,F4
1,118,119,Note_on,1,49,63,C#3
1,118,119,Note_on,1,53,63,F3
1,119,119,Note_on,1,58,63,B-3
1,119,119,Note_on,1,61,63,C#4
1,119,119,Note_on,1,65,63,F4
1,119,119,Note_on,1,46,63,B-2
1,119,119,Note_on,1,58,63,B-3
1,119,119,Note_on,1,61,63,C#4
1,119,119,Note_on,1,65,63,F4
1,119,119,Note_on,1,49,63,C#3
1,119,119,Note_on,1,53,63,F3
1,119,119,Note_on,1,58,63,B-3
1,119,119,Note_on,1,61,63,C#4
1,119,119,Note_on,1,65,63,F4
1,119,119,Note_on,1,41,63,F2
1,119,119,Note_on,1,58,63,B-3
1,119,119,Note_on,1,61,63,C#4
1,119,119,Note_on,1,65,63,F4
1,119,119,Note_on,1,49,63,C#3
1,119,119,Note_on,1,53,63,F3
1,119,119,Note_on,1,58,63,B-3
1,119,119,Note_on,1,61,63,C#4
1,119,119,Note_on,1,65,63,F4
1,119,119,Note_on,1,46,63,B-2
1,119,120,Note_on,1,66,63,F#4
1,120,120,Note_on,1,65,63,F4
1,120,120,Note_on,1,49,63,C#3
1,120,120,Note_on,1,53,63,F3
1,120,120,Note_on,1,64,63,E4
1,120,120,Note_on,1,65,63,F4
1,120,120,Note_on,1,41,63,F2
1,120,120,Note_on,1,70,63,B-4
1,120,120,Note_on,1,49,63,C#3
1,120,120,Note_on,1,53,63,F3
1,120,120,Note_on,1,73,63,C#5
1,120,120,Note_on,1,77,63,F5
1,120,120,Note_on,1,46,63,B-2
1,120,120,Note_on,1,82,63,B-5
1,120,120,Note_on,1,49,63,C#3
1,120,120,Note_on,1,53,63,F3
1,120,120,Note_on,1,41,63,F2
1,120,120,Note_on,1,85,63,C#6
1,120,121,Note_on,1,49,63,C#3
1,120,121,Note_on,1,53,63,F3
1,121,121,Note_on,1,87,63,E-6
1,121,121,Note_on,1,51,63,E-3
1,121,121,Note_on,1,85,63,C#6
1,121,121,Note_on,1,84,63,C6
1,121,121,Note_on,1,54,63,F#3
1,121,121,Note_on,1,58,63,B-3
1,121,121,Note_on,1,87,63,E-6
1,121,121,Note_on,1,85,63,C#6
1,121,121,Note_on,1,49,63,C#3
1,121,121,Note_on,1,84,63,C6
1,121,121,Note_on,1,82,63,B-5
1,121,121,Note_on,1,53,63,F3
1,121,121,Note_on,1,58,63,B-3
1,121,121,Note_on,1,85,63,C#6
1,121,121,Note_on,1,84,63,C6
1,121,121,Note_on,1,48,63,C3
1,121,121,Note_on,1,82,63,B-5
1,121,122,Note_on,1,81,63,A5
1,121,122,Note_on,1,51,63,E-3
1,121,122,Note_on,1,57,63,A3
1,122,122,Note_on,1,84,63,C6
1,122,122,Note_on,1,82,63,B-5
1,122,122,Note_on,1,46,63,B-2
1,122,122,Note_on,1,77,63,F5
1,122,122,Note_on,1,73,63,C#5
1,122,122,Note_on,1,49,63,C#3
1,122,122,Note_on,1,53,63,F3
1,122,122,Note_on,1,70,63,B-4
1,122,122,Note_on,1,78,63,F#5
1,122,122,Note_on,1,48,63,C3
1,122,122,Note_on,1,77,63,F5
1,122,122,Note_on,1,75,63,E-5
1,122,122,Note_on,1,73,63,C#5
1,122,122,Note_on,1,72,63,C5
1,122,123,Note_on,1,70,63,B-4
1,123,123,Note_on,1,69,63,A4
1,122,123,Note_on,1,41,63,F2
1,122,123,Note_on,1,53,63,F3
1,123,123,Note_on,1,72,63,C5
1,123,123,Note_on,1,70,63,B-4
1,123,123,Note_on,1,46,63,B-2
1,123,123,Note_on,1,58,63,B-3
1,123,123,Note_on,1,34,63,B-1
1,123,123,Note_on,1,46,63,B-2
1,123,123,Note_on,1,99,63,E-7
1,123,123,Note_on,1,51,63,E-3
1,123,123,Note_on,1,54,63,F#3
1,123,123,Note_on,1,97,63,C#7
1,123,123,Note_on,1,96,63,C7
1,123,123,Note_on,1,99,63,E-7
1,123,124,Note_on,1,97,63,C#7
1,123,124,Note_on,1,49,63,C#3
1,124,124,Note_on,1,53,63,F3
1,124,124,Note_on,1,96,63,C7
1,124,124,Note_on,1,94,63,B-6
1,124,124,Note_on,1,97,63,C#7
1,124,124,Note_on,1,96,63,C7
1,124,124,Note_on,1,48,63,C3
1,124,124,Note_on,1,51,63,E-3
1,124,124,Note_on,1,94,63,B-6
1,124,124,Note_on,1,93,63,A6
1,124,124,Note_on,1,96,63,C7
1,124,124,Note_on,1,94,63,B-6
1,124,124,Note_on,1,46,63,B-2
1,124,124,Note_on,1,49,63,C#3
1,124,124,Note_on,1,89,63,F6
1,124,124,Note_on,1,85,63,C#6
1,124,125,Note_on,1,82,63,B-5
1,125,125,Note_on,1,90,63,F#6
1,125,125,Note_on,1,45,63,A2
1,125,125,Note_on,1,48,63,C3
1,125,125,Note_on,1,89,63,F6
1,125,125,Note_on,1,87,63,E-6
1,125,125,Note_on,1,85,63,C#6
1,125,125,Note_on,1,84,63,C6
1,125,125,Note_on,1,82,63,B-5
1,125,125,Note_on,1,81,63,A5
1,125,125,Note_on,1,41,63,F2
1,125,125,Note_on,1,53,63,F3
1,125,125,Note_on,1,84,63,C6
1,125,125,Note_on,1,82,63,B-5
1,125,125,Note_on,1,46,63,B-2
1,125,125,Note_on,1,58,63,B-3
1,125,125,Note_on,1,82,63,B-5
1,125,125,Note_on,1,85,63,C#6
1,125,125,Note_on,1,94,63,B-6
1,125,125,Note_on,1,34,63,B-1
1,125,125,Note_on,1,46,63,B-2
